<?xml version="1.0" encoding="utf-8"?>
<!-- Generator: Adobe Illustrator 16.0.0, SVG Export Plug-In . SVG Version: 6.00 Build 0)  -->
<!DOCTYPE svg PUBLIC "-//W3C//DTD SVG 1.1//EN" "http://www.w3.org/Graphics/SVG/1.1/DTD/svg11.dtd">
<svg version="1.1" id="Layer_1" xmlns="http://www.w3.org/2000/svg" xmlns:xlink="http://www.w3.org/1999/xlink" x="0px" y="0px"
	 width="369.29px" height="207.171px" viewBox="0 0 369.29 207.171" enable-background="new 0 0 369.29 207.171"
	 xml:space="preserve">
<g id="Layer_1_1_">
	<polyline fill="#5F7F9C" points="0,11.316 8.585,11.316 8.585,19.01 12.601,19.01 12.601,11.316 21.186,11.316 21.186,34.108 
		12.601,34.108 12.601,25.59 8.585,25.59 8.585,34.108 0,34.108 0,11.316 	"/>
	<polyline fill="#5F7F9C" points="37.021,11.316 54.084,11.316 54.084,17.167 45.633,17.167 45.633,19.641 53.482,19.641 
		53.482,25.497 45.633,25.497 45.633,28.188 54.366,28.188 54.366,34.108 37.021,34.108 37.021,11.316 	"/>
	<path fill="#5F7F9C" d="M66.753,34.147h8.652l0.843-3.65h6.622l0.792,3.65h9.403L85.88,11.316H74.29L66.753,34.147L66.753,34.147z
		 M81.628,24.937H77.58l2.098-9.003L81.628,24.937"/>
	<path fill="#5F7F9C" d="M105.537,34.108h8.586v-8.262c0.277-0.023,0.564-0.023,0.785-0.023c2.062,0,2.346,0.974,2.692,3.429
		l0.221,1.692c0.13,1.021,0.377,2.06,0.665,3.164h8.708c-0.38-1.688-0.666-3.041-0.797-4.055l-0.282-2.438
		c-0.409-3.283-1.143-4.68-4.208-5.197c2.979-0.791,4.49-2.556,4.49-5.312c0-4.555-2.939-5.791-9.206-5.791h-11.654V34.108
		L105.537,34.108z M114.123,20.722v-4.307c0.37-0.033,0.694-0.033,0.976-0.033c1.932,0,2.782,0.604,2.782,2.025
		c0,1.456-1.073,2.335-3.131,2.335C114.561,20.742,114.334,20.742,114.123,20.722"/>
	<path fill="#5F7F9C" d="M147.91,26.796c0,0.061,0,0.129,0,0.184c0,1.56,0.694,2.271,2.177,2.271c1.341,0,2.132-0.656,2.132-1.636
		c0-0.729-0.323-1.294-0.896-1.577c-1.169-0.572-3.224-0.895-5.911-1.753c-3.678-1.169-5.39-2.968-5.39-6.161
		c0-4.465,3.615-7.156,10.261-7.156c6.042,0,9.237,2.244,9.237,6.265c0,0.16,0,0.316,0,0.472h-7.562
		c-0.095-1.36-0.723-2.02-1.991-2.02c-1.168,0-1.901,0.659-1.901,1.519c0,1.589,1.583,1.524,4.465,2.318
		c5.294,1.409,7.819,2.868,7.819,7.008c0,4.82-3.859,7.953-10.45,7.953c-6.68,0-10.227-2.52-10.227-6.868
		c0-0.251,0-0.525,0.041-0.819H147.91"/>
	<polyline fill="#5F7F9C" points="191.004,17.394 185.523,17.394 185.523,34.108 176.729,34.108 176.729,17.394 171.212,17.394 
		171.212,11.316 191.004,11.316 191.004,17.394 	"/>
	<text transform="matrix(1 0 0 1 202.439 33.6328)" fill="#455560" font-family="'Garamond-Italic'" font-size="49.5828">api portal</text>
</g>
<g id="business_media" display="none">
	<g display="inline">
		<path fill="#455560" d="M249.922,47.688c-1.2,0-4.485-0.438-4.485-4.605c0-6.764,11.244-31.653,11.244-34.749
			c0-0.758-0.694-0.947-1.454-1.074c-0.885-0.126-1.768-0.126-1.768-0.821c0-0.506,0.313-0.569,0.567-0.569
			c1.642,0,6.002-0.632,6.507-0.632c0.504,0,0.631,0.063,0.631,0.442c0,4.106-10.74,28.999-10.485,28.051
			c-0.128,0.504-0.38,1.07-0.19,1.07c0.254,0,0.695-0.818,1.137-1.515c0.254-0.44,7.959-10.739,11.941-10.739
			c3.285,0,3.6,3.601,3.6,5.243C267.168,37.015,257.06,47.688,249.922,47.688z M262.305,25.201c-3.602,0-14.215,11.752-14.215,19.08
			c0,0.883,0.252,2.272,2.084,2.272c4.613,0,14.594-14.658,14.594-18.512C264.768,26.085,263.883,25.201,262.305,25.201z"/>
		<path fill="#455560" d="M286.563,43.713c-0.064,0.188-0.255,0.502-0.255,0.884c0,0.381,0.126,0.566,0.507,0.566
			c1.83,0,6.002-5.812,6.572-5.812c0.314,0,0.632,0.316,0.632,0.631c0,0.695-5.877,7.707-9.729,7.707
			c-1.076,0-1.771-0.817-1.771-1.895c0-0.439,0.255-1.263,0.695-2.273l1.959-4.23c1.644-3.54,1.959-4.044,1.959-4.295
			c0-0.192,0-0.314-0.064-0.314c-0.377,0-2.59,3.408-6.82,7.01c-4.549,3.918-7.58,6-9.287,6c-0.758,0-1.58-0.438-1.58-1.387
			c0-1.707,2.718-6.822,3.602-8.402l5.432-10.108c0.506-0.947,1.139-2.022,1.139-2.338c0-0.441-0.377-0.631-0.758-0.631
			c-1.896,0-5.56,5.118-6.002,5.118c-0.315,0-0.506-0.127-0.506-0.506c0-1.199,5.688-7.645,9.729-7.645
			c1.071,0,1.708,0.504,1.708,1.073c0,1.265-0.381,2.084-0.826,2.969l-8.591,16.806c-0.124,0.314-0.252,0.506-0.252,0.883
			c0,0.314,0.315,0.51,0.696,0.51c2.59,0,12.697-10.994,14.529-14.217c1.389-2.463,3.096-6.444,3.477-7.139
			c0.252-0.443,0.502-0.633,1.955-0.633c0.947,0,1.267,0.127,1.267,0.568c0,0.381-0.694,1.959-1.267,3.222L286.563,43.713z"/>
		<path fill="#455560" d="M314.103,24.316c0,1.328-0.946,1.517-1.578,1.517c-1.896,0-2.397-2.526-3.979-2.526
			c-1.008,0-2.021,0.694-2.021,2.653c0,1.768,0.759,4.105,1.451,6.568c0.694,2.467,1.455,5.059,1.455,7.394
			c0,4.925-2.78,7.769-7.706,7.769c-3.666,0-5.057-1.264-5.057-3.223c0-1.008,0.822-1.701,1.642-1.701
			c2.274,0,1.834,3.409,4.424,3.409c3.031,0,3.538-2.211,3.538-3.729c0-1.833-0.757-4.229-1.453-6.569
			c-0.695-2.398-1.451-4.734-1.451-6.443c0-4.611,2.397-7.644,7.012-7.644C312.525,21.791,314.103,22.61,314.103,24.316z"/>
		<path fill="#455560" d="M323.265,41.058c-0.38,0.821-0.882,1.58-0.882,2.146c0,0.38,0.062,0.761,0.695,0.761
			c0.504,0,1.264-0.505,2.905-1.579c1.896-1.262,2.591-2.021,2.968-2.021s0.441,0.251,0.441,0.631c0,0.761-6.568,6.634-10.297,6.634
			c-1.139,0-1.829-0.377-1.829-1.388c0-0.508,0.187-1.014,0.438-1.518l7.269-14.722c0.694-1.45,1.263-2.589,1.263-3.41
			c0-0.506-0.314-0.632-0.566-0.632c-0.951,0-4.299,3.346-5.182,3.346c-0.381,0-0.509-0.188-0.509-0.566
			c0-0.504,0.569-0.756,1.076-1.264c0.756-0.759,5.938-5.56,8.719-5.56c0.946,0,1.327,1.075,1.327,1.707
			c0,0.821-0.57,2.337-0.887,3.031L323.265,41.058z M332.428,10.67c0,1.265-1.201,2.528-2.528,2.528
			c-1.323,0-2.528-1.263-2.528-2.528c0-1.263,1.205-2.525,2.528-2.525C331.227,8.145,332.428,9.408,332.428,10.67z"/>
		<path fill="#455560" d="M352.894,41.879c-0.251,0.506-0.567,0.948-0.567,1.265c0,0.506,0.316,0.758,0.696,0.758
			c1.578,0,4.927-4.105,5.367-4.105c0.38,0,0.567,0.251,0.567,0.502c0,1.328-5.434,7.016-9.727,7.016
			c-1.139,0-1.58-0.377-1.58-1.072c0-0.633,0.441-1.708,0.887-2.721l7.197-15.349c0.508-1.074,0.631-1.896,0.631-2.527
			c0-1.012-0.566-1.706-1.449-1.706c-2.273,0-4.484,2.59-11.754,14.339c-1.322,2.148-2.461,4.106-3.66,6.824
			c-0.633,1.388-1.074,2.209-2.086,2.209c-1.074,0-1.515-0.377-1.515-1.137c0-0.566,0.44-1.578,0.632-2.085l5.998-16.048
			c0.315-0.883,0.631-1.705,0.631-2.146c0-0.506-0.377-0.822-0.945-0.822c-1.645,0-4.61,4.674-5.242,4.674
			c-0.316,0-0.506-0.25-0.506-0.505c0-0.693,0.76-1.453,1.138-2.021c0.886-1.264,4.61-5.433,7.074-5.433
			c1.519,0,1.958,0.947,1.958,2.653c0,2.463-3.791,10.487-3.791,11.183c0,0.123,0.064,0.315,0.129,0.315
			c0.188,0,0.441-0.381,0.757-0.888c1.138-1.831,6.698-13.265,12.571-13.265c2.4,0,3.857,1.263,3.857,3.475
			c0,1.579-0.951,3.537-1.645,4.99L352.894,41.879z"/>
	</g>
	<g display="inline">
		<path fill="#455560" d="M380.943,26.528c0,2.274-2.34,8.151-12.952,9.917c-0.38,0.947-0.502,2.148-0.502,2.971
			c0,3.538,1.327,4.486,3.723,4.486c3.604,0,6.639-5.053,7.143-5.053c0.381,0,0.505,0.187,0.505,0.565
			c0,0.567-4.61,8.274-9.604,8.274c-3.787,0-5.301-3.283-5.301-7.326c0-8.403,7.453-18.572,13.201-18.572
			C379.87,21.791,380.943,24.379,380.943,26.528z M368.372,35.056c7.896-2.334,10.426-7.201,10.426-9.791
			c0-1.138-0.381-2.34-1.959-2.34C375.258,22.926,370.647,26.275,368.372,35.056z"/>
		<path fill="#455560" d="M399.26,24.316c0,1.328-0.945,1.517-1.578,1.517c-1.895,0-2.395-2.526-3.979-2.526
			c-1.008,0-2.021,0.694-2.021,2.653c0,1.768,0.758,4.105,1.45,6.568c0.695,2.467,1.457,5.059,1.457,7.394
			c0,4.925-2.78,7.769-7.707,7.769c-3.666,0-5.055-1.264-5.055-3.223c0-1.008,0.82-1.701,1.639-1.701
			c2.275,0,1.834,3.409,4.425,3.409c3.032,0,3.537-2.211,3.537-3.729c0-1.833-0.757-4.229-1.452-6.569
			c-0.695-2.398-1.451-4.734-1.451-6.443c0-4.611,2.398-7.644,7.012-7.644C397.682,21.791,399.26,22.61,399.26,24.316z"/>
		<path fill="#455560" d="M418.721,24.316c0,1.328-0.947,1.517-1.58,1.517c-1.895,0-2.398-2.526-3.98-2.526
			c-1.008,0-2.021,0.694-2.021,2.653c0,1.768,0.76,4.105,1.453,6.568c0.697,2.467,1.453,5.059,1.453,7.394
			c0,4.925-2.779,7.769-7.707,7.769c-3.662,0-5.055-1.264-5.055-3.223c0-1.008,0.822-1.701,1.645-1.701
			c2.273,0,1.83,3.409,4.418,3.409c3.037,0,3.539-2.211,3.539-3.729c0-1.833-0.754-4.229-1.449-6.569
			c-0.695-2.398-1.455-4.734-1.455-6.443c0-4.611,2.402-7.644,7.018-7.644C417.141,21.791,418.721,22.61,418.721,24.316z"/>
	</g>
	<g display="inline">
		<path fill="#455560" d="M452.391,28.042c0.445-1.073,0.57-2.273,0.57-2.967c0-0.443-0.189-1.643-1.072-1.643
			c-1.834,0-4.928,4.295-6.889,7.517c-2.395,3.981-3.598,6.257-7.262,13.016c-1.393,2.591-1.455,3.224-2.844,3.224
			c-0.76,0-1.203-0.19-1.203-0.697c0-0.817,0.443-1.895,0.762-2.654l6.062-15.35c0.314-0.76,0.82-1.771,0.82-2.589
			c0-0.569-0.254-1.075-0.82-1.075c-0.252,0-0.947,0.631-1.578,1.137c-3.35,2.652-3.73,4.612-4.676,4.612
			c-0.316,0-0.506-0.125-0.506-0.441c0-1.012,1.52-2.147,2.781-3.729c1.578-2.021,4.043-4.61,7.012-4.61
			c0.82,0,1.451,0.568,1.451,1.579c0,3.347-4.234,10.93-4.234,12.002c0,0.19,0.064,0.315,0.256,0.315
			c0.125,0,0.633-1.323,1.266-2.399c1.895-3.222,6.189-11.497,11.055-11.497c1.453,0,2.904,1.01,2.904,2.653
			c0,2.526-3.727,10.423-3.727,10.867c0,0.123,0,0.377,0.064,0.377c0.123,0,0.252-0.315,0.756-1.138
			c2.336-3.788,6.699-12.76,12.191-12.76c2.781,0,3.793,1.516,3.793,3.222c0,1.325-0.506,2.272-0.887,3.03L461.805,41.5
			c-0.252,0.507-0.564,1.267-0.564,1.897c0,0.438,0.25,0.633,0.631,0.633c0.441,0,1.643-0.57,2.273-1.143
			c3.789-3.408,3.92-4.169,4.484-4.169c0.443,0,0.566,0.19,0.566,0.507c0,0.949-6.629,8.463-11.113,8.463
			c-0.762,0-1.393-0.881-1.393-1.766c0-1.011,0.506-2.148,1.074-3.285l7.393-14.718c0.439-0.823,0.883-1.771,0.883-3.035
			c0-0.947-0.506-1.453-1.645-1.453c-3.221,0-6.943,5.622-13.645,17.375c-2.4,4.17-2.273,6.379-4.107,6.379
			c-1.197,0-1.643-0.252-1.643-0.821c0-0.441,0.316-1.011,0.631-1.769L452.391,28.042z"/>
		<path fill="#455560" d="M490.551,26.528c0,2.274-2.34,8.151-12.951,9.917c-0.381,0.947-0.504,2.148-0.504,2.971
			c0,3.538,1.328,4.486,3.725,4.486c3.604,0,6.639-5.053,7.141-5.053c0.379,0,0.506,0.187,0.506,0.565
			c0,0.567-4.609,8.274-9.604,8.274c-3.789,0-5.305-3.283-5.305-7.326c0-8.403,7.455-18.572,13.203-18.572
			C489.479,21.791,490.551,24.379,490.551,26.528z M477.981,35.056c7.896-2.334,10.424-7.201,10.424-9.791
			c0-1.138-0.379-2.34-1.959-2.34C484.87,22.926,480.254,26.275,477.981,35.056z"/>
		<path fill="#455560" d="M518.473,12.882c0.633-1.706,1.328-3.159,1.328-4.359c0-0.948-0.887-1.137-1.703-1.264
			c-0.889-0.126-1.771-0.38-1.771-1.011s1.393-0.631,2.146-0.631h4.611c1.012,0,1.582,0.063,1.582,0.631s-0.191,1.138-0.381,1.643
			L511.59,41.438c-0.508,1.39-0.822,2.021-0.822,2.525c0,0.316,0.125,0.695,0.693,0.695c0.443,0,1.01-0.695,2.719-2.213
			c2.775-2.465,3.662-4.674,4.484-4.674c0.316,0,0.566,0.127,0.566,0.379c0,1.453-7.199,9.537-10.865,9.537
			c-1.135,0-1.516-0.502-1.516-1.449c0-3.92,3.158-9.479,3.158-9.855c0-0.127,0-0.255-0.189-0.255s-0.379,0.444-0.568,0.695
			c-1.389,1.895-8.904,10.864-13.268,10.864c-2.777,0-3.156-2.211-3.156-4.547c0-8.147,9.162-20.217,18.066-20.217
			c1.643,0,2.842,0.381,3.666,0.569L518.473,12.882z M498.198,43.521c5.178,0,14.846-12.002,14.846-16.045
			c0-2.527-0.635-3.285-2.4-3.285c-5.432,0-13.896,10.108-13.896,17.309C496.745,42.511,496.995,43.521,498.198,43.521z"/>
	</g>
	<g display="inline">
		<path fill="#455560" d="M528.518,41.058c-0.375,0.821-0.885,1.58-0.885,2.146c0,0.38,0.066,0.761,0.697,0.761
			c0.506,0,1.264-0.505,2.904-1.579c1.895-1.262,2.59-2.021,2.971-2.021s0.441,0.251,0.441,0.631c0,0.761-6.57,6.634-10.297,6.634
			c-1.139,0-1.834-0.377-1.834-1.388c0-0.508,0.191-1.014,0.445-1.518l7.262-14.722c0.695-1.45,1.268-2.589,1.268-3.41
			c0-0.506-0.32-0.632-0.57-0.632c-0.949,0-4.297,3.346-5.182,3.346c-0.381,0-0.502-0.188-0.502-0.566
			c0-0.504,0.566-0.756,1.072-1.264c0.758-0.759,5.938-5.56,8.719-5.56c0.945,0,1.322,1.075,1.322,1.707
			c0,0.821-0.564,2.337-0.883,3.031L528.518,41.058z M537.68,10.67c0,1.265-1.197,2.528-2.525,2.528s-2.527-1.263-2.527-2.528
			c0-1.263,1.199-2.525,2.527-2.525S537.68,9.408,537.68,10.67z"/>
		<path fill="#455560" d="M556.883,25.201c1.014,0,2.021,0.252,2.531,0.252c0.631,0,1.197-0.316,1.641-1.2
			c0.693-1.391,1.07-1.832,2.715-1.832c1.074,0,1.455,0.253,1.455,0.885c0,0.188-0.129,0.632-0.381,1.137l-8.211,18.003
			c-0.189,0.381-0.381,0.695-0.381,1.072c0,0.381,0.254,0.444,0.695,0.444c2.211,0,6.318-5.812,7.016-5.812
			c0.438,0,0.566,0.125,0.566,0.566c0,0.948-7.771,8.971-11.059,8.971c-1.07,0-1.514-0.377-1.514-1.136
			c0-2.147,3.158-8.086,3.98-9.793l-0.127-0.127l-2.781,3.033c-3.16,3.476-8.463,8.021-12.193,8.021
			c-2.336,0-2.779-2.211-2.779-3.599C538.059,36.444,549.555,25.201,556.883,25.201z M543.936,43.901
			c4.295,0,15.162-11.18,15.162-15.351c0-1.075-0.568-1.835-2.34-1.835c-5.561,0-14.91,9.982-14.91,15.29
			C541.848,43.017,542.481,43.901,543.936,43.901z"/>
	</g>
</g>
<path fill="#51606B" d="M59.921,164.548l11.384-11.384h-5.692L54.23,164.548l11.384,11.384h5.692L59.921,164.548z M91.228,153.164
	h-5.692l11.384,11.384l-11.384,11.384h5.692l11.384-11.384L91.228,153.164z M81.267,147.473l-7.115,34.151h4.269l7.115-34.151
	H81.267z"/>
<polyline fill="#5F7F9C" points="20.333,146.692 32.254,146.692 32.254,157.378 37.832,157.378 37.832,146.692 49.753,146.692 
	49.753,178.345 37.832,178.345 37.832,166.516 32.254,166.516 32.254,178.345 20.333,178.345 20.333,146.692 "/>
</svg>
