<?xml version="1.0" encoding="utf-8"?>
<!-- Generator: Adobe Illustrator 16.0.0, SVG Export Plug-In . SVG Version: 6.00 Build 0)  -->
<!DOCTYPE svg PUBLIC "-//W3C//DTD SVG 1.1//EN" "http://www.w3.org/Graphics/SVG/1.1/DTD/svg11.dtd">
<svg version="1.1" id="Layer_1" xmlns="http://www.w3.org/2000/svg" xmlns:xlink="http://www.w3.org/1999/xlink" x="0px" y="0px"
	 width="369.29px" height="51.085px" viewBox="0 0 369.29 51.085" enable-background="new 0 0 369.29 51.085" xml:space="preserve">
<g id="Layer_1_1_">
	<polyline fill="#5F7F9C" points="36.63,17.926 43.514,17.926 43.514,24.095 46.733,24.095 46.733,17.926 53.618,17.926 
		53.618,36.201 46.733,36.201 46.733,29.371 43.514,29.371 43.514,36.201 36.63,36.201 36.63,17.926 	"/>
	<polyline fill="#5F7F9C" points="66.315,17.926 79.997,17.926 79.997,22.617 73.22,22.617 73.22,24.601 79.514,24.601 
		79.514,29.296 73.22,29.296 73.22,31.455 80.224,31.455 80.224,36.201 66.315,36.201 66.315,17.926 	"/>
	<path fill="#5F7F9C" d="M90.156,36.233h6.937l0.675-2.927h5.31l0.635,2.927h7.539l-5.761-18.307h-9.293L90.156,36.233
		L90.156,36.233z M102.083,28.847h-3.246l1.683-7.219L102.083,28.847"/>
	<path fill="#5F7F9C" d="M121.254,36.201h6.885v-6.625c0.222-0.019,0.452-0.019,0.63-0.019c1.653,0,1.881,0.781,2.158,2.75
		l0.177,1.355c0.104,0.819,0.302,1.651,0.533,2.537h6.982c-0.304-1.354-0.535-2.438-0.639-3.251l-0.226-1.955
		c-0.328-2.633-0.917-3.752-3.374-4.167c2.389-0.634,3.6-2.049,3.6-4.259c0-3.653-2.356-4.644-7.382-4.644h-9.345L121.254,36.201
		L121.254,36.201z M128.139,25.467v-3.454c0.297-0.027,0.556-0.027,0.783-0.027c1.549,0,2.23,0.485,2.23,1.624
		c0,1.167-0.86,1.873-2.511,1.873C128.49,25.484,128.309,25.484,128.139,25.467"/>
	<path fill="#5F7F9C" d="M155.232,30.338c0,0.048,0,0.104,0,0.148c0,1.25,0.557,1.821,1.745,1.821c1.075,0,1.709-0.526,1.709-1.312
		c0-0.584-0.259-1.038-0.718-1.265c-0.937-0.458-2.585-0.717-4.74-1.405c-2.949-0.937-4.322-2.38-4.322-4.94
		c0-3.58,2.899-5.738,8.229-5.738c4.844,0,7.407,1.799,7.407,5.023c0,0.129,0,0.253,0,0.378h-6.064
		c-0.076-1.09-0.58-1.62-1.597-1.62c-0.937,0-1.524,0.528-1.524,1.219c0,1.273,1.269,1.222,3.581,1.858
		c4.244,1.13,6.27,2.299,6.27,5.62c0,3.865-3.094,6.377-8.379,6.377c-5.356,0-8.2-2.021-8.2-5.507c0-0.202,0-0.421,0.033-0.657
		H155.232"/>
	<polyline fill="#5F7F9C" points="189.788,22.799 185.391,22.799 185.391,36.201 178.34,36.201 178.34,22.799 173.917,22.799 
		173.917,17.926 189.788,17.926 189.788,22.799 	"/>
	<g enable-background="new    ">
		<path fill="#455560" d="M213.961,21.764c0.129-0.219,0.213-0.395,0.252-0.523c0.156-0.388,0.312-0.641,0.466-0.757
			c0.364-0.039,0.63-0.058,0.798-0.058c0.221,0,0.436,0.047,0.645,0.136l0.059,0.234c0,0.077-0.031,0.194-0.098,0.35
			c-0.039,0.078-0.123,0.324-0.254,0.738l-0.154,0.388l-1.281,3.475c-0.544,1.566-1.021,2.815-1.428,3.747
			c-0.408,0.932-0.764,1.879-1.061,2.843s-0.57,1.654-0.814,2.067l-0.078,0.187c0,0.075,0.068,0.174,0.205,0.3
			c0.548-0.323,1.008-0.673,1.384-1.049c0.97-0.97,1.545-1.573,1.729-1.805c0.133-0.169,0.26-0.324,0.381-0.466
			c0.146,0.129,0.279,0.265,0.398,0.407c-0.35,0.505-0.93,1.191-1.749,2.058c-0.815,0.867-1.556,1.482-2.214,1.844
			c-0.507,0.271-0.984,0.407-1.434,0.407c-0.282,0-0.5-0.062-0.643-0.188c-0.143-0.127-0.214-0.291-0.214-0.495
			c0-0.177,0.062-0.512,0.192-1.004c0.324-0.854,0.552-1.417,0.683-1.688c0.128-0.271,0.304-0.692,0.522-1.261
			c0.129-0.35,0.395-0.957,0.797-1.826c-0.254,0.247-0.566,0.61-0.938,1.087c-1.079,1.32-2.315,2.57-3.715,3.748
			c-0.317,0.271-1.089,0.705-2.313,1.301c-0.453,0.167-0.984,0.278-1.599,0.329c-0.519-0.013-0.864-0.064-1.036-0.154
			c-0.32-0.168-0.58-0.434-0.779-0.797c-0.146-0.271-0.219-0.691-0.219-1.261c0-0.829,0.184-1.747,0.555-2.757
			c0.636-1.721,1.275-2.996,1.926-3.825c1.111-1.436,2.213-2.574,3.304-3.417c1.093-0.841,2.095-1.456,3.007-1.845
			c1.204-0.518,2.25-0.777,3.137-0.777c0.289,0,0.566,0.026,0.832,0.078C213.47,21.586,213.723,21.662,213.961,21.764z
			 M204.485,34.5c0.319-0.078,0.602-0.188,0.842-0.33c0.146-0.078,0.666-0.434,1.562-1.069c1.629-1.592,2.549-2.504,2.763-2.737
			c0.47-0.505,0.993-1.197,1.582-2.077c0.162-0.22,0.502-0.829,1.021-1.824l0.504-1.339c0.183-0.789,0.273-1.243,0.273-1.359
			c0-0.362-0.15-0.706-0.451-1.029c-0.201-0.193-0.526-0.29-0.98-0.29c-0.52,0-0.967,0.083-1.34,0.251
			c-0.84,0.388-1.604,0.881-2.299,1.476c-0.934,0.816-1.832,1.86-2.697,3.135c-0.866,1.274-1.479,2.339-1.84,3.192
			c-0.492,1.178-0.738,2.058-0.738,2.641c0,0.479,0.1,0.834,0.3,1.067s0.454,0.351,0.763,0.351
			C203.85,34.558,204.097,34.539,204.485,34.5z"/>
		<path fill="#455560" d="M209.614,45.197c0.479-0.118,1.107-0.221,1.885-0.312c0.399-0.039,0.688-0.071,0.854-0.097
			c0.208-0.052,0.399-0.091,0.583-0.117c0.184-0.078,0.312-0.162,0.389-0.252c0.143-0.168,0.318-0.513,0.523-1.028l1.923-5.048
			c0.271-0.66,0.526-1.392,0.772-2.194c0.158-0.505,0.328-0.996,0.518-1.476c0.188-0.479,0.293-0.789,0.318-0.932
			c0.076-0.298,0.143-0.511,0.193-0.641l1.807-5.028c0.062-0.194,0.551-1.618,1.453-4.271c0.272-0.801,0.521-1.604,0.738-2.407
			c-0.919,0.155-1.722,0.337-2.408,0.543c-0.143,0.039-0.343,0.096-0.602,0.174c-0.48,0.194-0.777,0.291-0.893,0.291
			c-0.104,0-0.269-0.045-0.485-0.135l-0.039-0.214c0-0.181,0.104-0.336,0.312-0.466c0.633-0.4,2.135-0.854,4.504-1.357
			c0.621-1.619,0.998-2.719,1.127-3.3c0.195-0.777,0.416-1.313,0.662-1.612c0.154-0.025,0.317-0.038,0.486-0.038
			c0.182,0,0.453,0.013,0.816,0.038c0.223,0.235,0.332,0.424,0.332,0.566l-0.077,0.271c-0.024,0.065-0.11,0.363-0.253,0.893
			c-0.077,0.297-0.2,0.666-0.367,1.106c-0.339,0.865-0.553,1.448-0.643,1.745c0.565-0.039,0.946-0.058,1.142-0.058
			c0.207,0,0.517,0.014,0.928,0.039h0.097c0.686,0,1.398,0.182,2.147,0.543c1.046,0.519,1.806,1.215,2.282,2.087
			c0.477,0.874,0.717,1.888,0.717,3.038c0,0.868-0.168,1.793-0.505,2.776c-0.336,0.984-0.847,1.986-1.53,3.009
			c-0.686,1.022-1.466,1.88-2.344,2.572c-0.881,0.692-1.661,1.155-2.346,1.388c-1.537,0.543-2.553,0.816-3.043,0.816
			c-0.36,0-0.77-0.051-1.221-0.154c-0.451-0.104-0.943-0.259-1.474-0.466c-0.521,1.048-1.38,3.293-2.584,6.736
			c-0.231,0.685-0.423,1.193-0.563,1.523c-0.143,0.329-0.211,0.585-0.211,0.766l0.018,0.175l0.214,0.174
			c0.351,0.104,0.767,0.167,1.253,0.194c0.482,0.025,0.908,0.07,1.271,0.135c0.062,0.051,0.147,0.098,0.252,0.137l0.097,0.31
			c0,0.065-0.033,0.137-0.097,0.214c-0.506-0.025-0.896-0.038-1.164-0.038c-0.185,0-0.33,0.006-0.448,0.019l-0.466,0.019
			l-3.571-0.135c-0.634,0-1.134,0.038-1.495,0.116c-0.451-0.026-0.841-0.039-1.165-0.039h-0.719l-0.019-0.136
			C209.497,45.545,209.536,45.391,209.614,45.197z M225.752,33.142c1.201-1.32,2.057-2.669,2.565-4.047
			c0.513-1.378,0.769-2.586,0.769-3.622c0-0.659-0.092-1.326-0.272-1.999c-0.091-0.363-0.276-0.687-0.562-0.972
			c-0.396-0.415-0.783-0.706-1.158-0.874c-0.618-0.272-1.408-0.407-2.375-0.407c-0.297,0-0.65,0.019-1.062,0.057
			c-0.854,2.667-1.561,4.737-2.117,6.212l-1.613,4.641c-0.129,0.375-0.219,0.737-0.27,1.086c-0.037,0.183-0.059,0.376-0.059,0.583
			c0,0.44,0.121,0.756,0.367,0.951c0.388,0.299,0.923,0.448,1.605,0.448c0.62,0,1.215-0.122,1.782-0.369
			C223.792,34.636,224.592,34.073,225.752,33.142z"/>
		<path fill="#455560" d="M238.402,21.57c-0.271,0-0.471,0.019-0.603,0.057c-0.606,0.324-1.053,0.602-1.338,0.836
			c-0.582,0.452-1.133,0.984-1.65,1.591l-1.127,0.252c0.998-1.346,2.105-2.4,3.322-3.164c1.219-0.764,2.176-1.146,2.875-1.146
			c0.297,0,0.521,0.075,0.67,0.223c0.148,0.15,0.223,0.34,0.223,0.573c0,0.634-0.361,1.689-1.087,3.166
			c-0.091,0.181-0.306,0.646-0.64,1.397c-0.778,1.694-1.608,3.299-2.488,4.812c-0.285,0.493-0.598,1.074-0.934,1.747
			c-0.183,0.362-0.344,0.667-0.485,0.912c-0.399,0.674-0.601,1.172-0.601,1.495c0,0.091,0.035,0.171,0.104,0.243
			c0.067,0.072,0.155,0.107,0.265,0.107c0.141,0,0.355-0.077,0.648-0.232c0.484-0.259,1.064-0.689,1.738-1.292
			c0.676-0.601,1.271-1.29,1.783-2.066h0.854c-0.394,0.698-0.972,1.5-1.733,2.407c-0.766,0.906-1.636,1.63-2.607,2.174
			c-0.732,0.414-1.381,0.621-1.948,0.621c-0.435,0-0.752-0.087-0.955-0.263c-0.203-0.175-0.306-0.404-0.306-0.688
			c0-0.996,0.729-2.874,2.193-5.63l3.125-5.902c0.322-0.608,0.551-1.086,0.68-1.436c0.078-0.219,0.117-0.369,0.117-0.448
			C238.499,21.855,238.467,21.739,238.402,21.57z M239.508,12.855c0-0.454,0.177-0.857,0.523-1.214
			c0.352-0.355,0.758-0.533,1.223-0.533c0.439,0,0.813,0.155,1.127,0.466c0.31,0.311,0.466,0.667,0.466,1.068
			c0,0.518-0.194,0.989-0.583,1.417c-0.23,0.246-0.658,0.369-1.281,0.369c-0.413,0-0.764-0.143-1.048-0.427
			C239.652,13.716,239.508,13.332,239.508,12.855z"/>
		<path fill="#455560" d="M244.809,45.197c0.48-0.118,1.105-0.221,1.885-0.312c0.4-0.039,0.686-0.071,0.854-0.097
			c0.205-0.052,0.4-0.091,0.582-0.117c0.184-0.078,0.312-0.162,0.389-0.252c0.145-0.168,0.318-0.513,0.523-1.028l1.922-5.048
			c0.271-0.66,0.531-1.392,0.777-2.194c0.153-0.505,0.325-0.996,0.514-1.476c0.188-0.479,0.293-0.789,0.32-0.932
			c0.077-0.298,0.141-0.511,0.192-0.641l1.806-5.028c0.065-0.194,0.551-1.618,1.456-4.271c0.271-0.801,0.517-1.604,0.737-2.407
			c-0.919,0.155-1.723,0.337-2.407,0.543c-0.144,0.039-0.344,0.096-0.604,0.174c-0.479,0.194-0.774,0.291-0.893,0.291
			c-0.104,0-0.264-0.045-0.484-0.135l-0.039-0.214c0-0.181,0.104-0.336,0.312-0.466c0.635-0.4,2.135-0.854,4.503-1.357
			c0.619-1.619,0.995-2.719,1.126-3.3c0.194-0.777,0.415-1.313,0.663-1.612c0.154-0.025,0.315-0.038,0.486-0.038
			c0.181,0,0.452,0.013,0.817,0.038c0.221,0.235,0.33,0.424,0.33,0.566l-0.076,0.271c-0.027,0.065-0.111,0.363-0.252,0.893
			c-0.078,0.297-0.203,0.666-0.369,1.106c-0.338,0.865-0.553,1.448-0.646,1.745c0.567-0.039,0.949-0.058,1.144-0.058
			c0.207,0,0.518,0.014,0.931,0.039h0.094c0.687,0,1.399,0.182,2.147,0.543c1.043,0.519,1.807,1.215,2.281,2.087
			c0.479,0.874,0.717,1.888,0.717,3.038c0,0.868-0.17,1.793-0.504,2.776c-0.336,0.983-0.849,1.986-1.53,3.009
			c-0.685,1.022-1.466,1.88-2.345,2.572c-0.879,0.692-1.66,1.155-2.344,1.388c-1.537,0.543-2.554,0.816-3.043,0.816
			c-0.361,0-0.771-0.051-1.221-0.154c-0.452-0.104-0.941-0.259-1.475-0.466c-0.52,1.048-1.381,3.293-2.586,6.736
			c-0.231,0.685-0.42,1.193-0.562,1.523c-0.144,0.329-0.215,0.585-0.215,0.766l0.021,0.175l0.213,0.174
			c0.351,0.104,0.769,0.167,1.25,0.194c0.484,0.025,0.912,0.07,1.271,0.135c0.064,0.051,0.148,0.098,0.252,0.137l0.098,0.31
			c0,0.065-0.033,0.137-0.098,0.214c-0.505-0.025-0.893-0.038-1.165-0.038c-0.18,0-0.329,0.006-0.446,0.019l-0.465,0.019
			l-3.572-0.135c-0.635,0-1.135,0.038-1.496,0.116c-0.451-0.026-0.842-0.039-1.162-0.039h-0.719l-0.02-0.136
			C244.693,45.545,244.731,45.391,244.809,45.197z M260.95,33.142c1.201-1.32,2.055-2.669,2.565-4.047
			c0.511-1.378,0.767-2.586,0.767-3.622c0-0.659-0.092-1.326-0.273-1.999c-0.09-0.363-0.274-0.687-0.559-0.972
			c-0.396-0.415-0.785-0.706-1.158-0.874c-0.619-0.272-1.41-0.407-2.377-0.407c-0.297,0-0.649,0.019-1.062,0.057
			c-0.854,2.667-1.562,4.737-2.118,6.212l-1.611,4.641c-0.131,0.375-0.223,0.737-0.272,1.086c-0.039,0.183-0.058,0.376-0.058,0.583
			c0,0.44,0.121,0.756,0.369,0.951c0.385,0.299,0.92,0.448,1.604,0.448c0.617,0,1.215-0.122,1.781-0.369
			C258.987,34.636,259.788,34.073,260.95,33.142z"/>
		<path fill="#455560" d="M280.568,24.793c0,3.003-0.909,5.669-2.728,8c-1.819,2.331-3.705,3.494-5.658,3.494
			c-1.051,0-1.896-0.391-2.544-1.175c-0.646-0.783-0.972-2.009-0.972-3.679c0-1.125,0.252-2.422,0.758-3.892
			c0.506-1.468,1.156-2.689,1.961-3.659c0.182-0.22,0.388-0.483,0.621-0.795c0.685-0.894,1.5-1.644,2.445-2.252
			c0.943-0.609,1.908-0.912,2.893-0.912c0.906,0,1.668,0.378,2.291,1.136C280.258,21.813,280.568,23.059,280.568,24.793z
			 M270.473,33.626c0,0.596,0.139,1.035,0.417,1.32c0.278,0.284,0.729,0.428,1.349,0.428c0.608,0,1.223-0.298,1.846-0.894
			c1.113-1.087,2.228-2.958,3.34-5.61c1.113-2.653,1.668-4.744,1.668-6.271c0-0.543-0.135-0.973-0.406-1.291
			c-0.271-0.316-0.582-0.476-0.934-0.476c-0.764,0-1.559,0.447-2.387,1.34c-1.412,1.5-2.629,3.572-3.65,6.212
			C270.887,30.533,270.473,32.281,270.473,33.626z"/>
		<path fill="#455560" d="M286.897,21.57c-0.43,0.311-0.829,0.674-1.204,1.086c-0.104,0.117-0.694,0.894-1.767,2.329l-0.795,0.04
			c0.32-0.699,0.922-1.559,1.801-2.582s1.641-1.721,2.285-2.097c0.414-0.246,0.879-0.388,1.395-0.426
			c0.323,0.09,0.547,0.211,0.67,0.365c0.121,0.154,0.182,0.34,0.182,0.558c0,0.218-0.022,0.436-0.075,0.653
			c-0.144,0.706-0.427,1.719-0.851,3.038c-0.422,1.32-0.803,2.362-1.137,3.125l-1.009,2.388l-0.079,0.35
			c0.184-0.312,0.551-1.003,1.107-2.078c2.106-3.998,3.627-6.465,4.562-7.401c0.687-0.666,1.487-0.999,2.407-0.999
			c0.518,0,1.001,0.206,1.455,0.62c0.334,0.323,0.506,0.751,0.506,1.281c0,0.595-0.188,1.107-0.564,1.534
			c-0.258,0.298-0.627,0.447-1.104,0.447c-0.4,0-0.684-0.094-0.846-0.282c-0.164-0.187-0.264-0.657-0.303-1.408
			c-0.166-0.336-0.354-0.505-0.562-0.505c-0.21,0-0.429,0.11-0.66,0.329c-0.622,0.556-1.796,2.335-3.521,5.34
			c-1.727,3.004-2.806,5.091-3.238,6.26c-0.434,1.17-0.786,1.973-1.061,2.413c-0.142,0.223-0.402,0.334-0.789,0.334
			c-0.35,0-0.596-0.062-0.742-0.185c-0.146-0.122-0.221-0.281-0.221-0.475c0-0.258,0.062-0.556,0.191-0.893
			c0.559-1.359,1.449-3.863,2.681-7.514l1.358-4.154c0.091-0.371,0.154-0.608,0.193-0.71l0.117-0.287
			C287.286,21.942,287.155,21.776,286.897,21.57z"/>
		<path fill="#455560" d="M300.25,21.707h-1.185l-0.543-0.02l-1.263,0.039h-0.252c0.027-0.283,0.139-0.614,0.334-0.989
			c1.889-0.052,3.009-0.098,3.359-0.136c0.254-0.622,0.471-1.119,0.646-1.494c0.38-0.842,0.773-1.839,1.18-2.991
			c0.129-0.375,0.27-0.719,0.42-1.029c0.284-0.04,0.614-0.059,0.99-0.059c0.312,0,0.609,0.034,0.893,0.097l0.039,0.312
			c0,0.246-0.572,1.669-1.713,4.271c-0.129,0.299-0.234,0.602-0.322,0.912c0.369,0.065,0.586,0.097,0.652,0.097h0.402l0.652,0.019
			l1.842-0.04c0,0.428-0.076,0.778-0.23,1.049c-0.513,0.052-1.183,0.079-2.014,0.079c-0.408,0-0.67,0.007-0.786,0.019
			c-0.649,0.065-1.026,0.131-1.128,0.194l-3.161,7.579c-0.353,0.729-0.954,2.119-1.808,4.168c0,0.078,0.037,0.166,0.115,0.269
			l0.252,0.039c0.35,0,0.783-0.22,1.301-0.659c1.125-0.972,2.188-2.104,3.185-3.397c0.216,0.117,0.404,0.251,0.567,0.407
			c-1.275,1.566-2.172,2.598-2.689,3.097c-0.52,0.498-1.176,1.017-1.972,1.554c-0.794,0.537-1.274,0.837-1.438,0.902
			c-0.291,0.117-0.588,0.174-0.892,0.174c-0.315,0-0.55-0.068-0.701-0.203c-0.149-0.136-0.228-0.333-0.228-0.592
			c0-0.375,0.312-1.25,0.929-2.621l0.815-1.806l2.858-6.892C299.729,23.163,300.024,22.38,300.25,21.707z"/>
		<path fill="#455560" d="M317.978,21.764c0.128-0.219,0.214-0.395,0.251-0.523c0.156-0.388,0.312-0.641,0.469-0.757
			c0.361-0.039,0.627-0.058,0.797-0.058c0.221,0,0.434,0.047,0.644,0.136l0.058,0.234c0,0.077-0.031,0.194-0.097,0.35
			c-0.039,0.078-0.125,0.324-0.252,0.738l-0.155,0.388l-1.281,3.475c-0.545,1.566-1.021,2.815-1.431,3.747
			c-0.403,0.932-0.763,1.879-1.06,2.843s-0.569,1.654-0.815,2.067l-0.077,0.187c0,0.075,0.068,0.174,0.207,0.3
			c0.545-0.323,1.006-0.673,1.381-1.049c0.971-0.97,1.547-1.573,1.729-1.805c0.133-0.169,0.26-0.324,0.383-0.466
			c0.145,0.129,0.279,0.265,0.398,0.407c-0.35,0.505-0.928,1.191-1.748,2.058c-0.817,0.867-1.555,1.482-2.213,1.844
			c-0.51,0.271-0.986,0.407-1.435,0.407c-0.286,0-0.501-0.062-0.646-0.188c-0.143-0.127-0.213-0.291-0.213-0.495
			c0-0.177,0.063-0.512,0.193-1.004c0.323-0.854,0.551-1.417,0.68-1.688c0.131-0.272,0.305-0.692,0.524-1.261
			c0.128-0.35,0.396-0.957,0.796-1.826c-0.251,0.247-0.566,0.61-0.938,1.087c-1.078,1.32-2.315,2.57-3.713,3.748
			c-0.318,0.271-1.09,0.705-2.315,1.301c-0.452,0.167-0.985,0.278-1.597,0.329c-0.521-0.013-0.864-0.064-1.037-0.154
			c-0.32-0.168-0.58-0.434-0.778-0.797c-0.147-0.271-0.22-0.691-0.22-1.261c0-0.829,0.185-1.747,0.555-2.757
			c0.635-1.721,1.277-2.996,1.926-3.825c1.109-1.436,2.211-2.574,3.303-3.417c1.092-0.841,2.092-1.456,3.006-1.845
			c1.203-0.518,2.248-0.777,3.136-0.777c0.292,0,0.567,0.026,0.833,0.078C317.489,21.586,317.739,21.662,317.978,21.764z
			 M308.5,34.5c0.318-0.078,0.601-0.188,0.84-0.33c0.146-0.078,0.668-0.434,1.562-1.069c1.63-1.592,2.552-2.504,2.765-2.737
			c0.467-0.505,0.992-1.197,1.582-2.077c0.16-0.22,0.5-0.829,1.021-1.824l0.505-1.339c0.183-0.789,0.271-1.243,0.271-1.359
			c0-0.362-0.148-0.706-0.449-1.029c-0.201-0.193-0.527-0.29-0.979-0.29c-0.521,0-0.967,0.083-1.341,0.251
			c-0.841,0.388-1.604,0.881-2.299,1.476c-0.935,0.816-1.833,1.86-2.699,3.135c-0.864,1.274-1.479,2.339-1.839,3.192
			c-0.492,1.178-0.738,2.058-0.738,2.641c0,0.479,0.1,0.834,0.301,1.067c0.199,0.233,0.453,0.351,0.76,0.351
			C307.866,34.558,308.114,34.539,308.5,34.5z"/>
		<path fill="#455560" d="M328.247,10.756l0.06-0.563c1.587-0.129,2.79-0.193,3.606-0.193h0.858v0.261l-0.604,1.883
			c-0.023,0.052-0.496,1.25-1.416,3.592l-2.623,6.832c-0.469,1.281-1.244,3.261-2.33,5.94l-0.643,1.688
			c-0.453,1.229-0.816,2.058-1.088,2.485c-0.428,0.697-0.641,1.214-0.641,1.548l0.078,0.31c0.422-0.04,0.947-0.331,1.572-0.875
			c0.914-0.763,1.743-1.741,2.489-2.93c0.24-0.051,0.429-0.078,0.56-0.078l0.217,0.019c-0.485,0.945-1.008,1.715-1.565,2.31
			c-0.884,0.931-1.491,1.521-1.827,1.766c-0.744,0.571-1.461,1.003-2.144,1.301c-0.435,0.194-0.864,0.291-1.285,0.291
			c-0.226,0-0.396-0.057-0.504-0.175c-0.112-0.117-0.169-0.266-0.169-0.447c0-0.608,1.035-3.281,3.104-8.018
			c0.635-1.436,1.295-3.079,1.982-4.93c1.201-3.234,2.127-5.539,2.773-6.911c0.647-1.372,1.119-2.608,1.418-3.708
			c0.024-0.112,0.041-0.206,0.041-0.28c0-0.187-0.092-0.36-0.273-0.522C329.665,11.155,329.114,10.956,328.247,10.756z"/>
	</g>
</g>
<g id="business_media" display="none">
	<g display="inline">
		<path fill="#455560" d="M249.922,47.688c-1.2,0-4.485-0.438-4.485-4.605c0-6.764,11.244-31.653,11.244-34.749
			c0-0.758-0.694-0.947-1.454-1.074c-0.885-0.126-1.768-0.126-1.768-0.821c0-0.506,0.312-0.569,0.562-0.569
			c1.646,0,6.002-0.632,6.513-0.632c0.504,0,0.631,0.063,0.631,0.442c0,4.106-10.74,28.999-10.485,28.051
			c-0.128,0.504-0.38,1.07-0.19,1.07c0.254,0,0.695-0.818,1.137-1.515c0.254-0.44,7.959-10.739,11.941-10.739
			c3.285,0,3.6,3.601,3.6,5.243C267.168,37.015,257.06,47.688,249.922,47.688z M262.305,25.201c-3.602,0-14.215,11.752-14.215,19.08
			c0,0.883,0.252,2.271,2.084,2.271c4.613,0,14.594-14.658,14.594-18.512C264.768,26.085,263.883,25.201,262.305,25.201z"/>
		<path fill="#455560" d="M286.563,43.713c-0.064,0.188-0.255,0.502-0.255,0.884c0,0.381,0.126,0.566,0.507,0.566
			c1.83,0,6.002-5.812,6.572-5.812c0.314,0,0.632,0.316,0.632,0.631c0,0.695-5.877,7.707-9.729,7.707
			c-1.076,0-1.771-0.817-1.771-1.895c0-0.439,0.255-1.263,0.694-2.273l1.959-4.23c1.645-3.54,1.959-4.044,1.959-4.295
			c0-0.192,0-0.314-0.063-0.314c-0.377,0-2.59,3.408-6.819,7.01c-4.549,3.918-7.58,6-9.287,6c-0.758,0-1.58-0.438-1.58-1.387
			c0-1.707,2.723-6.822,3.604-8.402l5.435-10.108c0.506-0.947,1.142-2.022,1.142-2.338c0-0.441-0.378-0.631-0.761-0.631
			c-1.895,0-5.561,5.118-6.002,5.118c-0.312,0-0.506-0.127-0.506-0.506c0-1.199,5.688-7.645,9.729-7.645
			c1.069,0,1.708,0.504,1.708,1.073c0,1.265-0.382,2.084-0.824,2.969l-8.593,16.806c-0.124,0.314-0.252,0.506-0.252,0.883
			c0,0.314,0.313,0.51,0.694,0.51c2.591,0,12.697-10.994,14.529-14.217c1.389-2.463,3.096-6.444,3.477-7.139
			c0.253-0.443,0.503-0.633,1.955-0.633c0.947,0,1.269,0.127,1.269,0.568c0,0.381-0.692,1.959-1.269,3.222L286.563,43.713z"/>
		<path fill="#455560" d="M314.103,24.316c0,1.328-0.946,1.517-1.578,1.517c-1.896,0-2.397-2.526-3.979-2.526
			c-1.008,0-2.021,0.694-2.021,2.653c0,1.768,0.759,4.105,1.451,6.568c0.694,2.467,1.455,5.059,1.455,7.394
			c0,4.925-2.78,7.769-7.706,7.769c-3.666,0-5.057-1.264-5.057-3.223c0-1.008,0.822-1.701,1.642-1.701
			c2.274,0,1.834,3.409,4.424,3.409c3.031,0,3.538-2.211,3.538-3.729c0-1.833-0.757-4.229-1.453-6.569
			c-0.695-2.398-1.451-4.734-1.451-6.443c0-4.611,2.397-7.644,7.012-7.644C312.525,21.791,314.103,22.61,314.103,24.316z"/>
		<path fill="#455560" d="M323.265,41.058c-0.38,0.821-0.882,1.58-0.882,2.146c0,0.38,0.062,0.761,0.695,0.761
			c0.504,0,1.264-0.505,2.899-1.579c1.896-1.262,2.597-2.021,2.974-2.021s0.438,0.251,0.438,0.631c0,0.761-6.564,6.634-10.299,6.634
			c-1.141,0-1.827-0.377-1.827-1.388c0-0.508,0.188-1.014,0.438-1.518l7.271-14.722c0.692-1.45,1.263-2.589,1.263-3.41
			c0-0.506-0.312-0.632-0.564-0.632c-0.948,0-4.299,3.346-5.182,3.346c-0.383,0-0.511-0.188-0.511-0.566
			c0-0.504,0.567-0.756,1.075-1.264c0.757-0.759,5.939-5.56,8.72-5.56c0.944,0,1.327,1.075,1.327,1.707
			c0,0.821-0.568,2.337-0.889,3.031L323.265,41.058z M332.428,10.67c0,1.265-1.201,2.528-2.528,2.528
			c-1.323,0-2.528-1.263-2.528-2.528c0-1.263,1.205-2.525,2.528-2.525C331.227,8.145,332.428,9.408,332.428,10.67z"/>
		<path fill="#455560" d="M352.894,41.879c-0.251,0.506-0.567,0.948-0.567,1.265c0,0.506,0.316,0.758,0.696,0.758
			c1.578,0,4.927-4.105,5.367-4.105c0.38,0,0.567,0.251,0.567,0.502c0,1.328-5.438,7.016-9.729,7.016
			c-1.142,0-1.58-0.377-1.58-1.072c0-0.633,0.438-1.708,0.89-2.721l7.194-15.349c0.511-1.074,0.634-1.896,0.634-2.527
			c0-1.012-0.566-1.706-1.449-1.706c-2.271,0-4.481,2.59-11.754,14.339c-1.322,2.148-2.461,4.106-3.66,6.824
			c-0.633,1.388-1.071,2.209-2.086,2.209c-1.074,0-1.518-0.377-1.518-1.137c0-0.566,0.438-1.578,0.635-2.085l5.998-16.048
			c0.312-0.883,0.631-1.705,0.631-2.146c0-0.506-0.377-0.822-0.945-0.822c-1.645,0-4.607,4.674-5.239,4.674
			c-0.313,0-0.506-0.25-0.506-0.505c0-0.693,0.76-1.453,1.138-2.021c0.889-1.264,4.607-5.433,7.074-5.433
			c1.521,0,1.958,0.947,1.958,2.653c0,2.463-3.791,10.487-3.791,11.183c0,0.123,0.062,0.315,0.129,0.315
			c0.188,0,0.438-0.381,0.759-0.888c1.139-1.831,6.696-13.265,12.569-13.265c2.397,0,3.854,1.263,3.854,3.475
			c0,1.579-0.951,3.537-1.646,4.99L352.894,41.879z"/>
	</g>
	<g display="inline">
		<path fill="#455560" d="M380.943,26.528c0,2.274-2.34,8.151-12.952,9.917c-0.38,0.947-0.502,2.148-0.502,2.971
			c0,3.538,1.327,4.486,3.723,4.486c3.604,0,6.645-5.053,7.146-5.053c0.381,0,0.505,0.187,0.505,0.565
			c0,0.567-4.606,8.274-9.604,8.274c-3.784,0-5.301-3.283-5.301-7.326c0-8.403,7.453-18.572,13.201-18.572
			C379.87,21.791,380.943,24.379,380.943,26.528z M368.372,35.056c7.896-2.334,10.426-7.201,10.426-9.791
			c0-1.138-0.381-2.34-1.959-2.34C375.258,22.926,370.647,26.275,368.372,35.056z"/>
		<path fill="#455560" d="M399.26,24.316c0,1.328-0.945,1.517-1.578,1.517c-1.895,0-2.395-2.526-3.979-2.526
			c-1.014,0-2.021,0.694-2.021,2.653c0,1.768,0.758,4.105,1.449,6.568c0.695,2.467,1.457,5.059,1.457,7.394
			c0,4.925-2.779,7.769-7.707,7.769c-3.666,0-5.055-1.264-5.055-3.223c0-1.008,0.815-1.701,1.639-1.701
			c2.275,0,1.834,3.409,4.426,3.409c3.031,0,3.537-2.211,3.537-3.729c0-1.833-0.758-4.229-1.452-6.569
			c-0.694-2.398-1.451-4.734-1.451-6.443c0-4.611,2.397-7.644,7.013-7.644C397.682,21.791,399.26,22.61,399.26,24.316z"/>
		<path fill="#455560" d="M418.721,24.316c0,1.328-0.947,1.517-1.58,1.517c-1.895,0-2.398-2.526-3.98-2.526
			c-1.008,0-2.021,0.694-2.021,2.653c0,1.768,0.771,4.105,1.453,6.568c0.697,2.467,1.453,5.059,1.453,7.394
			c0,4.925-2.779,7.769-7.707,7.769c-3.662,0-5.055-1.264-5.055-3.223c0-1.008,0.822-1.701,1.645-1.701
			c2.273,0,1.83,3.409,4.418,3.409c3.037,0,3.539-2.211,3.539-3.729c0-1.833-0.754-4.229-1.438-6.569
			c-0.695-2.398-1.455-4.734-1.455-6.443c0-4.611,2.395-7.644,7.018-7.644C417.141,21.791,418.721,22.61,418.721,24.316z"/>
	</g>
	<g display="inline">
		<path fill="#455560" d="M452.391,28.042c0.445-1.073,0.57-2.273,0.57-2.967c0-0.443-0.189-1.643-1.072-1.643
			c-1.834,0-4.928,4.295-6.889,7.517c-2.395,3.981-3.598,6.257-7.262,13.016c-1.396,2.591-1.455,3.224-2.844,3.224
			c-0.771,0-1.203-0.19-1.203-0.697c0-0.817,0.438-1.895,0.762-2.654l6.061-15.35c0.314-0.76,0.82-1.771,0.82-2.589
			c0-0.569-0.254-1.075-0.82-1.075c-0.252,0-0.945,0.631-1.576,1.137c-3.352,2.652-3.73,4.612-4.678,4.612
			c-0.314,0-0.506-0.125-0.506-0.441c0-1.012,1.521-2.147,2.781-3.729c1.578-2.021,4.043-4.61,7.012-4.61
			c0.82,0,1.451,0.568,1.451,1.579c0,3.347-4.234,10.93-4.234,12.002c0,0.19,0.064,0.315,0.258,0.315
			c0.125,0,0.633-1.323,1.266-2.399c1.895-3.222,6.188-11.497,11.055-11.497c1.453,0,2.904,1.01,2.904,2.653
			c0,2.526-3.729,10.423-3.729,10.867c0,0.123,0,0.377,0.064,0.377c0.123,0,0.252-0.315,0.756-1.138
			c2.336-3.788,6.699-12.76,12.191-12.76c2.771,0,3.793,1.516,3.793,3.222c0,1.325-0.506,2.272-0.896,3.03L461.805,41.5
			c-0.252,0.507-0.564,1.267-0.564,1.897c0,0.438,0.25,0.633,0.631,0.633c0.441,0,1.643-0.57,2.273-1.143
			c3.789-3.408,3.92-4.169,4.484-4.169c0.443,0,0.566,0.19,0.566,0.507c0,0.949-6.629,8.463-11.113,8.463
			c-0.762,0-1.393-0.881-1.393-1.766c0-1.011,0.506-2.148,1.062-3.285l7.396-14.718c0.438-0.823,0.883-1.771,0.883-3.035
			c0-0.947-0.506-1.453-1.645-1.453c-3.225,0-6.943,5.622-13.646,17.375c-2.4,4.17-2.27,6.379-4.105,6.379
			c-1.189,0-1.645-0.252-1.645-0.821c0-0.441,0.316-1.011,0.631-1.771L452.391,28.042z"/>
		<path fill="#455560" d="M490.551,26.528c0,2.274-2.34,8.151-12.951,9.917c-0.381,0.947-0.504,2.148-0.504,2.971
			c0,3.538,1.328,4.486,3.725,4.486c3.604,0,6.639-5.053,7.141-5.053c0.379,0,0.506,0.187,0.506,0.565
			c0,0.567-4.604,8.274-9.604,8.274c-3.789,0-5.305-3.283-5.305-7.326c0-8.403,7.455-18.572,13.203-18.572
			C489.479,21.791,490.551,24.379,490.551,26.528z M477.981,35.056c7.896-2.334,10.424-7.201,10.424-9.791
			c0-1.138-0.379-2.34-1.959-2.34C484.87,22.926,480.254,26.275,477.981,35.056z"/>
		<path fill="#455560" d="M518.473,12.882c0.633-1.706,1.328-3.159,1.328-4.359c0-0.948-0.887-1.137-1.703-1.264
			c-0.889-0.126-1.771-0.38-1.771-1.011s1.393-0.631,2.146-0.631h4.611c1.012,0,1.582,0.063,1.582,0.631s-0.191,1.138-0.381,1.643
			L511.59,41.438c-0.508,1.39-0.822,2.021-0.822,2.525c0,0.316,0.125,0.695,0.693,0.695c0.443,0,1.01-0.695,2.719-2.213
			c2.775-2.465,3.662-4.674,4.484-4.674c0.316,0,0.566,0.127,0.566,0.379c0,1.453-7.199,9.537-10.865,9.537
			c-1.135,0-1.521-0.502-1.521-1.449c0-3.92,3.158-9.479,3.158-9.855c0-0.127,0-0.255-0.188-0.255c-0.189,0-0.385,0.444-0.568,0.695
			c-1.389,1.895-8.904,10.864-13.268,10.864c-2.777,0-3.156-2.211-3.156-4.547c0-8.147,9.162-20.217,18.061-20.217
			c1.646,0,2.848,0.381,3.666,0.569L518.473,12.882z M498.198,43.521c5.178,0,14.846-12.002,14.846-16.045
			c0-2.527-0.635-3.285-2.395-3.285c-5.438,0-13.896,10.108-13.896,17.309C496.745,42.511,496.995,43.521,498.198,43.521z"/>
	</g>
	<g display="inline">
		<path fill="#455560" d="M528.518,41.058c-0.375,0.821-0.885,1.58-0.885,2.146c0,0.38,0.066,0.761,0.697,0.761
			c0.506,0,1.264-0.505,2.904-1.579c1.895-1.262,2.59-2.021,2.971-2.021s0.441,0.251,0.441,0.631c0,0.761-6.57,6.634-10.309,6.634
			c-1.139,0-1.834-0.377-1.834-1.388c0-0.508,0.191-1.014,0.445-1.518l7.262-14.722c0.695-1.45,1.271-2.589,1.271-3.41
			c0-0.506-0.32-0.632-0.57-0.632c-0.949,0-4.297,3.346-5.182,3.346c-0.381,0-0.502-0.188-0.502-0.566
			c0-0.504,0.562-0.756,1.072-1.264c0.758-0.759,5.938-5.56,8.719-5.56c0.941,0,1.322,1.075,1.322,1.707
			c0,0.821-0.564,2.337-0.887,3.031L528.518,41.058z M537.68,10.67c0,1.265-1.197,2.528-2.525,2.528s-2.527-1.263-2.527-2.528
			c0-1.263,1.199-2.525,2.527-2.525S537.68,9.408,537.68,10.67z"/>
		<path fill="#455560" d="M556.883,25.201c1.014,0,2.021,0.252,2.531,0.252c0.631,0,1.197-0.316,1.641-1.2
			c0.693-1.391,1.07-1.832,2.715-1.832c1.074,0,1.455,0.253,1.455,0.885c0,0.188-0.129,0.632-0.381,1.137l-8.211,18.003
			c-0.189,0.381-0.381,0.695-0.381,1.072c0,0.381,0.254,0.444,0.695,0.444c2.211,0,6.311-5.812,7.016-5.812
			c0.438,0,0.566,0.125,0.566,0.566c0,0.948-7.771,8.971-11.062,8.971c-1.066,0-1.514-0.377-1.514-1.136
			c0-2.147,3.158-8.086,3.979-9.793l-0.127-0.127l-2.779,3.033c-3.16,3.476-8.463,8.021-12.193,8.021
			c-2.336,0-2.779-2.211-2.779-3.599C538.059,36.444,549.555,25.201,556.883,25.201z M543.936,43.901
			c4.295,0,15.162-11.18,15.162-15.351c0-1.075-0.568-1.835-2.34-1.835c-5.561,0-14.91,9.982-14.91,15.29
			C541.848,43.017,542.481,43.901,543.936,43.901z"/>
	</g>
</g>
</svg>
