<?xml version="1.0" standalone="no"?>
<!DOCTYPE svg PUBLIC "-//W3C//DTD SVG 1.1//EN" "http://www.w3.org/Graphics/SVG/1.1/DTD/svg11.dtd" >
<svg xmlns="http://www.w3.org/2000/svg">
<metadata></metadata>
<defs>
<font id="garamond_3_urwregular" horiz-adv-x="1024" >
<font-face units-per-em="2048" ascent="1638" descent="-410" />
<missing-glyph horiz-adv-x="614" />
<glyph horiz-adv-x="2048" />
<glyph horiz-adv-x="2048" />
<glyph unicode="&#xd;" horiz-adv-x="0" />
<glyph unicode=" "  horiz-adv-x="614" />
<glyph unicode="&#x09;" horiz-adv-x="614" />
<glyph unicode="&#xa0;" horiz-adv-x="614" />
<glyph unicode="!" horiz-adv-x="475" d="M123 94q0 48 33.5 81.5t81.5 33.5q47 0 80.5 -33.5t33.5 -81.5q0 -46 -34 -80t-80 -34q-47 0 -81 34t-34 80zM143 1255q0 127 95 127q45 0 68.5 -32t23.5 -95q0 -74 -3.5 -146t-12.5 -190.5t-15 -175.5l-35 -350h-55l-35 350q-16 165 -23.5 293.5t-7.5 218.5z" />
<glyph unicode="&#x22;" horiz-adv-x="682" d="M106 1366h160l-45 -549h-71zM416 1366h157l-43 -549h-71z" />
<glyph unicode="#" horiz-adv-x="1159" d="M82 512v78h299l29 217h-279v80h291l65 479h84l-67 -479h227l70 479h76l-66 -479h266v-80h-276l-31 -217h262v-78h-272l-74 -512h-76l70 512h-227l-72 -512h-82l70 512h-287zM463 590h227l31 217h-227z" />
<glyph unicode="$" horiz-adv-x="956" d="M59 143q0 23 31 45q29 23 55 23q15 0 25 -9t33 -40q81 -109 219 -109v565q-173 106 -241 197.5t-68 216.5q0 85 38.5 159.5t107.5 123t163 65.5v125h65v-121q15 2 31 2q50 0 99 -10.5t89 -29t64.5 -41t24.5 -45.5q0 -20 -29 -48q-25 -22 -49 -22q-22 0 -37 20 q-44 54 -84.5 77t-95.5 26h-13v-514q103 -66 103 -68q89 -59 139.5 -112.5t74 -113t23.5 -134.5q0 -150 -90.5 -253.5t-249.5 -135.5v-134h-65v132q-97 1 -157 15t-122 50q-37 23 -60.5 50.5t-23.5 47.5zM258 1077q0 -66 36 -116t128 -115v459q-78 -24 -121 -84t-43 -144z M487 63q57 18 99 54t66 84.5t24 103.5q0 79 -45 144.5t-144 125.5v-512z" />
<glyph unicode="%" horiz-adv-x="1620" d="M68 879q0 98 20.5 180t58 139.5t90 88t115.5 30.5t116 -30.5t91.5 -89.5t58 -139.5t19.5 -178.5q0 -132 -35.5 -231.5t-99.5 -153.5t-150 -54t-150 54.5t-99 153.5t-35 231zM213 883q0 -180 36.5 -279.5t102.5 -99.5t103 99t37 280q0 179 -37 278t-103 99t-102.5 -99.5 t-36.5 -277.5zM518 0l498 1296h84l-496 -1296h-86zM981 420q0 97 21 179t58 139t90 87.5t116 30.5t116 -30.5t90.5 -88.5t57.5 -139t20 -178t-19.5 -178t-58 -140t-90.5 -89.5t-116 -30.5t-116 30.5t-90 88.5t-58.5 140t-20.5 179zM1126 422q0 -179 37 -278t103 -99 q67 0 103 99t36 278t-36 278t-103 99q-66 0 -103 -99t-37 -278z" />
<glyph unicode="&#x26;" horiz-adv-x="1368" d="M68 305q0 72 29 132t91 114t168 115q-123 120 -123 239q0 58 35 110t93.5 82.5t127.5 30.5q64 0 117.5 -28.5t85 -77t31.5 -102.5q0 -139 -180 -240q86 -85 118 -118.5t148 -164.5l16 -16q103 132 135.5 184t32.5 82q0 27 -19.5 38.5t-68.5 14.5h-33v62q102 -10 218 -10 q40 0 104 3t100 7v-62q-60 -3 -102.5 -22t-83.5 -57q-28 -26 -104 -123l-19 -25l-18 -22l-17 -23l-78 -100q9 -10 17.5 -19.5t18.5 -21.5t48 -54q60 -67 100.5 -95.5t73.5 -28.5q29 0 55.5 12.5t90.5 54.5l37 -43q-125 -156 -238 -156q-80 0 -151 68q-39 37 -61 61t-93 111 q-77 -87 -125 -133q-56 -53 -121 -81t-135 -28q-88 0 -162 44t-116.5 120.5t-42.5 165.5zM217 350q0 -97 66 -163t161 -66q70 0 142 38t141 111q-117 137 -174 198.5t-147 147.5q-72 -49 -112 -88t-58.5 -81t-18.5 -97zM365 942q0 -47 28 -98q40 -57 64 -80q19 -19 26 -25 t11 -10q63 45 89.5 89t26.5 102q0 68 -34 107.5t-91 39.5q-52 0 -86 -35t-34 -90z" />
<glyph unicode="'" horiz-adv-x="393" d="M115 1366h164l-46 -549h-75z" />
<glyph unicode="(" horiz-adv-x="586" d="M82 498q0 81 11.5 166t35.5 165.5t56 152t83 161.5q58 97 120.5 176.5t129.5 140.5l39 -43q-309 -359 -309 -930q0 -572 289 -909l-41 -39q-130 130 -223 287.5t-142 330t-49 341.5z" />
<glyph unicode=")" horiz-adv-x="586" d="M27 -418q309 358 309 928q0 573 -287 911l41 39q95 -95 172.5 -210.5t131 -238.5t81 -250t27.5 -259q0 -118 -19.5 -221.5t-60.5 -208.5t-107 -215q-117 -200 -247 -318z" />
<glyph unicode="*" horiz-adv-x="854" d="M96 1280q1 26 20.5 46t41.5 20q27 0 54.5 -22.5t86.5 -90.5q17 -20 31.5 -36t31.5 -36l-14 -20q-132 36 -205 73q-27 16 -37 30t-10 36zM106 938q3 28 23.5 47.5t71.5 42.5q62 29 147 59l14 -18q-37 -58 -116 -151q-43 -48 -76 -48q-26 0 -45 20.5t-19 47.5zM403 1178v20 v129q0 133 72 133q29 0 47.5 -17.5t18.5 -43.5q0 -35 -56 -135q-18 -32 -24.5 -43t-14.5 -24l-16 -26zM414 1059l20 8q38 -42 78 -100q57 -81 57 -125q0 -27 -20 -44.5t-49 -17.5q-41 0 -59 58.5t-27 220.5zM463 1106v22q70 28 103 39t71 20t55 9q29 0 48.5 -19.5 t19.5 -48.5q0 -67 -76 -67q-31 0 -135 24q-48 11 -86 21z" />
<glyph unicode="+" d="M47 655v88h420v394h92v-394h420v-88h-420v-395h-92v395h-420z" />
<glyph unicode="," horiz-adv-x="446" d="M53 -291l6 60q89 3 140 45t51 112q0 32 -13.5 44.5t-50.5 13.5q-44 3 -73 35t-29 77q0 48 35 80.5t86 32.5q69 0 112 -60.5t43 -154.5q0 -67 -30.5 -131t-81.5 -105q-38 -29 -81.5 -39t-113.5 -10z" />
<glyph unicode="-" horiz-adv-x="440" d="M0 383v133h440v-133h-440z" />
<glyph unicode="." horiz-adv-x="446" d="M109 94q0 48 33.5 81.5t80.5 33.5q30 0 57 -15.5t42.5 -42.5t15.5 -57q0 -47 -33.5 -80.5t-81.5 -33.5q-46 0 -80 34t-34 80z" />
<glyph unicode="/" horiz-adv-x="852" d="M-113 -422l842 1882l84 -39l-840 -1882z" />
<glyph unicode="0" horiz-adv-x="956" d="M70 662q0 148 29.5 270t83 208.5t129.5 133.5t169 47q94 0 168.5 -47.5t127.5 -135.5t81.5 -217.5t28.5 -283.5q0 -146 -29.5 -266t-84 -207t-131 -133.5t-165.5 -46.5q-94 0 -169 46.5t-128 135t-81.5 215.5t-28.5 281zM244 651q0 -193 26.5 -327t78.5 -203.5t128 -69.5 q115 0 174.5 146t59.5 428q0 213 -25 352t-75.5 207.5t-129.5 68.5q-112 0 -174.5 -159t-62.5 -443z" />
<glyph unicode="1" horiz-adv-x="956" d="M219 1165q195 95 328 183l41 -27q-3 -39 -6 -152q-4 -174 -4 -290v-545q0 -132 10 -182t44.5 -66.5t123.5 -19.5v-66q-156 10 -260 10q-97 0 -265 -10v66q46 4 50 4q68 5 96.5 23t37.5 71t9 170v844q-37 -18 -53 -23q-76 -35 -117 -53z" />
<glyph unicode="2" horiz-adv-x="956" d="M16 49q199 209 357 414q135 179 193.5 299.5t58.5 222.5q0 90 -58.5 148.5t-150.5 58.5q-147 0 -252 -188l-55 30q41 88 103 152.5t137 99.5t153 35q85 0 155 -41t110 -112.5t40 -161.5q0 -61 -20 -124.5t-62.5 -134.5t-112 -157.5t-182.5 -208.5l-225 -244q26 0 35 -0.5 t18 -1.5h207q136 0 201.5 9t100 36.5t62.5 85.5l56 -16l-115 -250q-176 4 -408 4q-198 0 -321 -4z" />
<glyph unicode="3" horiz-adv-x="956" d="M96 129q0 31 24 52.5t56 21.5q38 0 80 -49q34 -38 59.5 -59t49.5 -28.5t59 -7.5q63 0 114.5 42t81 115t29.5 161q0 155 -79 231t-242 76h-33v61q74 8 106.5 16.5t69.5 29.5q61 35 95 94t34 129q0 86 -53.5 143t-134.5 57q-64 0 -112 -32.5t-101 -110.5l-54 41 q53 74 104.5 120t107 67.5t122.5 21.5q115 0 194 -81t79 -198q0 -103 -56.5 -172t-189.5 -131q73 -3 133 -27.5t99.5 -66.5t60 -100.5t20.5 -132.5q0 -118 -59 -216t-162.5 -155t-226.5 -57q-120 0 -197.5 41t-77.5 104z" />
<glyph unicode="4" horiz-adv-x="956" d="M45 387l12 127l504 780l164 62v-850h143v-119h-143v-387h-150v387h-530zM139 506h436v676z" />
<glyph unicode="5" horiz-adv-x="956" d="M90 113q0 33 24 55t58 22q24 0 43.5 -10t42.5 -33q52 -48 83 -63.5t73 -15.5q65 0 126 46.5t97.5 124.5t36.5 162q0 104 -38.5 179t-112 115t-173.5 40q-65 0 -149 -20l-17 16l99 574h510l-35 -144h-422l-53 -282q68 8 112 8q126 0 220 -48t145 -138.5t51 -208.5 q0 -106 -35 -200t-99.5 -163t-154 -107t-190.5 -38q-108 0 -175 35.5t-67 93.5z" />
<glyph unicode="6" horiz-adv-x="956" d="M100 440q0 136 47 274t133.5 261.5t206.5 223t265 165.5l26 -47q-103 -56 -187.5 -126t-145 -154.5t-100.5 -186t-64 -227.5q87 79 143 107t125 28q66 0 124.5 -29t100 -77.5t66 -116.5t24.5 -148q0 -85 -28.5 -159t-82 -129t-126 -85t-154.5 -30q-109 0 -194 57 t-132 161.5t-47 237.5zM264 444q0 -116 28.5 -202.5t82.5 -132.5t127 -46q44 0 82.5 19t66 53.5t43 83.5t15.5 107q0 71 -17.5 130.5t-49.5 102t-75.5 66.5t-97.5 24q-71 0 -143 -55q-9 -7 -37 -35q-19 -20 -19 -22q-6 -55 -6 -93z" />
<glyph unicode="7" horiz-adv-x="956" d="M84 1028l59 277h742l14 -25l-520 -1280h-150q21 40 58 119q23 50 30 65l13 25l12 27l416 933h-258q-172 -2 -148 -2q-91 -6 -135 -35t-74 -104h-59z" />
<glyph unicode="8" horiz-adv-x="956" d="M104 309q0 108 64.5 191.5t208.5 158.5q-100 69 -147.5 116t-68 99t-20.5 121q0 94 44 168.5t122.5 116t177.5 41.5q96 0 170 -36.5t114 -103.5t40 -153q0 -105 -55.5 -184.5t-171.5 -138.5q94 -61 154 -121t88 -122.5t28 -133.5q0 -73 -28.5 -137.5t-80 -111t-119 -71 t-147.5 -24.5q-163 0 -268 91.5t-105 233.5zM258 1055q0 -99 96 -185q50 -43 117 -88q59 -39 57 -39q140 97 140 254q0 110 -60 178t-155 68q-85 0 -140 -53t-55 -135zM260 332q0 -75 32 -141t86 -103t118 -37t111 25t73.5 72.5t26.5 109.5q0 120 -82 205q-45 48 -119 102 q-25 20 -44.5 34t-27.5 19q-174 -101 -174 -286z" />
<glyph unicode="9" horiz-adv-x="956" d="M92 913q0 90 28 163.5t82.5 130.5t124 85.5t156.5 28.5q109 0 194 -57.5t132 -164.5t47 -241q0 -132 -44.5 -260t-127.5 -243t-204.5 -215.5t-266.5 -174.5l-33 64q150 85 248 177t156.5 205t89.5 269q-126 -135 -258 -135q-92 0 -166 48t-116 131.5t-42 188.5zM248 979 q0 -136 66.5 -229t166.5 -93q54 0 123 37q17 11 58 45q22 24 22 27q6 70 6 108q0 110 -29.5 192t-83 127.5t-124.5 45.5q-92 0 -148.5 -72.5t-56.5 -187.5z" />
<glyph unicode=":" horiz-adv-x="446" d="M109 94q0 48 33.5 81.5t80.5 33.5q30 0 57 -15.5t42.5 -42.5t15.5 -57q0 -47 -33.5 -80.5t-81.5 -33.5q-46 0 -80 34t-34 80zM109 741q0 48 33.5 81.5t80.5 33.5q30 0 57 -15.5t42.5 -42.5t15.5 -57q0 -47 -33.5 -80.5t-81.5 -33.5q-46 0 -80 34t-34 80z" />
<glyph unicode=";" horiz-adv-x="446" d="M53 -291l6 60q89 3 140 45t51 112q0 32 -13.5 44.5t-50.5 13.5q-44 3 -73 35t-29 77q0 48 35 80.5t86 32.5q69 0 112 -60.5t43 -154.5q0 -67 -30.5 -131t-81.5 -105q-38 -29 -81.5 -39t-113.5 -10zM92 741q0 48 33.5 81.5t81.5 33.5q30 0 56.5 -15t42.5 -42t16 -58 q0 -47 -34.5 -80.5t-80.5 -33.5q-47 0 -81 34t-34 80z" />
<glyph unicode="&#x3c;" d="M88 698v13l848 544v-77l-639 -416l639 -426v-205z" />
<glyph unicode="=" d="M47 512v86h932v-86h-932zM47 801v86h932v-86h-932z" />
<glyph unicode="&#x3e;" d="M88 131v78l639 414l-639 428v204l848 -567v-12z" />
<glyph unicode="?" horiz-adv-x="643" d="M82 1321q0 55 100 55q119 0 248 -135q78 -82 118 -166.5t40 -165.5q0 -77 -28.5 -131t-88.5 -90t-158 -59q-33 -8 -42 -25.5t-9 -73.5v-114h-67v352q272 30 272 225q0 66 -28.5 122t-76.5 89t-104 33q-27 0 -32.5 -1t-67.5 -19q-2 -3 -13 -3t-20 9.5t-25 38.5 q-18 40 -18 59zM125 94q0 48 33.5 81.5t81.5 33.5q47 0 80.5 -33.5t33.5 -81.5q0 -46 -34 -80t-80 -34q-47 0 -81 34t-34 80z" />
<glyph unicode="@" horiz-adv-x="1503" d="M82 684q0 189 93 350t251 255.5t342 94.5q174 0 322 -76t232.5 -208t84.5 -289q0 -106 -36.5 -203.5t-100 -173.5t-147 -119t-171.5 -43q-64 0 -105 28.5t-52 78.5q-107 -107 -230 -107q-98 0 -161.5 75t-63.5 188q0 143 61 273.5t161 209t214 78.5q74 0 124.5 -29.5 t68.5 -83.5l26 86h158l-184 -543q-41 -112 -41 -151q0 -18 12.5 -29.5t32.5 -11.5q64 0 127.5 39t114.5 106.5t80.5 153.5t29.5 172q0 136 -74.5 251t-202.5 182t-282 67q-125 0 -234 -48.5t-191.5 -134t-129.5 -201t-47 -243.5q0 -166 82.5 -307.5t223.5 -224.5t304 -83 q85 0 163.5 21.5t146 61t125 99.5t100.5 134h82q-66 -174 -239.5 -284.5t-377.5 -110.5q-140 0 -266.5 53.5t-223.5 152t-149.5 225t-52.5 269.5zM485 440q0 -51 29.5 -82.5t81.5 -31.5q64 0 124 60t93 161l111 323q6 19 6 43q0 37 -14.5 66.5t-40.5 47t-58 17.5 q-106 0 -196 -159q-40 -70 -70 -147.5t-48 -155.5t-18 -142z" />
<glyph unicode="A" horiz-adv-x="1311" d="M-8 0v70q59 4 83 12t42 31q24 28 47 77q3 6 4 7.5t19 46t71 172.5q37 84 43 110l156 408q35 94 92 240q33 88 65 178l119 53q5 -17 7.5 -26.5t13 -46t32.5 -107.5q2 -6 15 -46t22 -67l219 -657q65 -199 94.5 -267.5t62 -89t112.5 -28.5v-70q-129 10 -240 10 q-103 0 -233 -10v70q85 9 106 19t21 44q0 10 -33 133l-90 281h-428l-74 -207q-32 -89 -43 -129q-14 -48 -14 -76q0 -32 28 -46.5t101 -18.5v-70q-107 10 -215 10q-107 0 -205 -10zM451 643h360l-168 524z" />
<glyph unicode="B" horiz-adv-x="1202" d="M82 1300v72q72 -5 115 -6.5t65 -2.5t55 -1q-2 0 170 4q39 1 71.5 1.5t68.5 0.5q131 0 203 -23t116 -79q18 -22 34.5 -54.5t24 -66t7.5 -64.5q0 -251 -310 -333q70 -5 116.5 -13t83.5 -22.5t71 -38.5q44 -30 75 -73t47.5 -97t16.5 -109q0 -90 -32.5 -163t-92.5 -125 t-146 -80.5t-190 -28.5q-76 0 -188 8q-106 4 -137 4q-47 0 -170 -6l-23 -2h-22l-23 -2v72h21q84 0 112 28q24 24 27 80q1 5 1 -2.5t0.5 11.5t2.5 147v700q-4 174 -8 195q-16 69 -135 69h-27zM420 354q0 -116 4 -161t16 -66q37 -53 160 -53q106 0 181.5 38t115 110t39.5 171 q0 102 -43.5 167t-133.5 96.5t-231 31.5q-14 0 -108 -4v-330zM420 770q31 -2 72 -2q111 0 189.5 32.5t120.5 94t42 149.5q0 120 -80 182t-236 62q-55 0 -108 -4v-514z" />
<glyph unicode="C" horiz-adv-x="1391" d="M82 680q0 147 54 277t154 227.5t233 149.5t286 52q98 0 203.5 -20t275.5 -70l33 -297l-68 -10q-34 155 -136.5 233t-276.5 78q-124 0 -226 -43.5t-178 -125.5t-116.5 -195t-40.5 -242q0 -183 70.5 -326t199 -221.5t293.5 -78.5q182 0 284.5 81.5t145.5 260.5l71 -7 l-47 -315q-97 -40 -173.5 -63t-156.5 -34t-155 -11q-214 0 -380 87.5t-257.5 247.5t-91.5 365z" />
<glyph unicode="D" horiz-adv-x="1522" d="M82 0v72h27q84 0 112 28q24 24 27 80q1 5 1 -2.5t0.5 11.5t2.5 147v694q-4 174 -8 195q-16 69 -135 69h-21v72q49 -5 85.5 -6.5t64 -2.5t73.5 -1q26 0 172 4q60 2 93.5 3t53.5 2t40 1q41 2 123 2q112 0 191.5 -14.5t142.5 -47.5t120 -87q193 -187 193 -519 q0 -205 -86.5 -366t-243 -249.5t-354.5 -88.5q-32 0 -238 8q-91 6 -172 6q-110 0 -264 -10zM424 430q0 -132 2 -180t8.5 -73.5t22.5 -43.5q21 -24 80 -35.5t155 -11.5q128 0 216 29t157 94q61 56 103 131.5t63.5 164.5t21.5 191q0 137 -39.5 244.5t-118 184.5t-188.5 116 t-248 39q-46 0 -133 -6l-32 -2l-35 -2h-33v-84q-2 -49 -2 -94v-662z" />
<glyph unicode="E" horiz-adv-x="1176" d="M88 0v72h21q84 0 112 28q24 24 27 80q1 5 1 -2.5t0.5 11.5t2.5 147v694q-4 174 -8 195q-16 69 -135 69h-21v72q82 -7 191 -9.5t266 -2.5q52 0 99.5 0.5t97.5 1.5t109 3t146 5l29 -281l-72 -14q-17 95 -45.5 136.5t-91 56t-196.5 14.5q-104 0 -139 -3t-45.5 -13.5 t-10.5 -42.5v-474h174q111 0 164 12t70.5 45.5t17.5 108.5h72q-4 -130 -4 -151q0 -63 2.5 -133t7.5 -123h-78q-2 77 -19.5 109t-68.5 41.5t-184 9.5h-154v-281v-80q0 -82 6.5 -123.5t27 -61t64.5 -25t131 -5.5h74q121 0 183.5 18t96.5 65t62 144l70 -18l-70 -295 q-177 6 -280 8t-183 2q-23 0 -58.5 -0.5t-77.5 -1t-130 -0.5q-50 -1 -82.5 -1.5t-55 -1t-56 -2.5t-60.5 -3z" />
<glyph unicode="F" horiz-adv-x="1032" d="M80 1294v72q254 -10 369 -10q111 0 252.5 3t244.5 7l33 -293l-70 -6q-12 119 -73 166q-38 29 -98 39t-210 10h-51q-37 0 -45 -10t-8 -55v-62v-448h162q109 0 159.5 9.5t69.5 37t25 90.5q0 16 2 28h67q-1 -44 -2.5 -75t-2.5 -62.5t-1 -68.5q0 -70 6 -199h-67 q-5 77 -20 108t-59.5 40.5t-160.5 9.5h-178v-289q4 -174 8 -195q15 -69 135 -69h25v-72q-113 12 -242 12q-140 0 -262 -12v72h21q84 0 112 28q24 24 27 80q1 5 1 -2.5t0.5 11.5t2.5 147v694q-4 174 -8 195q-16 69 -135 69h-29z" />
<glyph unicode="G" horiz-adv-x="1440" d="M82 672q0 161 52 292t149.5 226.5t234 145.5t299.5 50q189 0 451 -79l32 -299l-61 -9q-34 150 -133.5 224.5t-269.5 74.5q-162 0 -289 -80.5t-197.5 -225.5t-70.5 -330q0 -135 37.5 -245t109.5 -190t172.5 -122t218.5 -42q77 0 146 20.5t90 49.5q15 24 21.5 67.5 t6.5 123.5q0 87 -10.5 116t-51.5 38t-163 16v71q122 -12 246 -12q126 0 278 12v-71q-53 -3 -76.5 -11t-35.5 -30.5t-15.5 -71t-3.5 -131.5q0 -68 4 -107t15 -82q-245 -88 -480 -88q-210 0 -371 86.5t-248 246.5t-87 366z" />
<glyph unicode="H" horiz-adv-x="1595" d="M84 0v72h25q84 0 112 28q24 24 27 80q1 5 1 -2.5t0.5 11.5t2.5 147v694q-4 174 -8 195q-16 69 -135 69h-25v72q174 -10 254 -10q103 0 252 10v-72h-23q-84 0 -112 -28q-24 -24 -27 -80q-1 -7 -1 -9.5t-3 -146.5v-276h750v276q-3 130 -4 153t-5 42q-15 69 -135 69h-22v72 q169 -10 249 -10q38 0 64 1t72 2.5t116 6.5v-72h-22q-83 0 -113 -28q-23 -25 -26 -80q-2 -8 -2 -21v-45l-3 -45v-45v-694q3 -94 4 -130t1 -41.5t4 -23.5q15 -69 135 -69h22v-72q-135 10 -245 10q-95 0 -256 -10v72h22q83 0 113 28q14 15 19 31t7 49q2 8 2 21v45l3 45v45v330 h-750v-330q4 -174 8 -195q15 -69 135 -69h23v-72q-126 10 -232 10q-130 0 -274 -10z" />
<glyph unicode="I" horiz-adv-x="672" d="M86 0v72h25q84 0 112 28q24 24 27 80q1 5 1 -2.5t0.5 11.5t2.5 147v694q-4 174 -8 195q-15 69 -135 69h-25v72q134 -10 254 -10q51 0 80.5 1t70 2.5t97.5 6.5v-72h-25q-84 0 -112 -28q-24 -24 -27 -80q-1 -7 -1 -9.5t-3 -146.5v-694q4 -174 8 -195q15 -69 135 -69h25v-72 l-23 2q-159 8 -227 8q-106 0 -252 -10z" />
<glyph unicode="J" horiz-adv-x="635" d="M-190 -410q1 14 9 29.5t48 75.5q16 24 35 24l47 -14q30 -12 67 -12q65 0 118.5 45t72.5 115q26 102 26 243q5 285 5 486v106q0 213 -0.5 274t-4.5 185q-2 67 -13.5 94.5t-46.5 38.5t-116 14v72q63 -5 107 -6.5t73.5 -2.5t73.5 -1q112 0 250 10v-72q-38 -1 -66.5 -4.5 t-41 -10t-21.5 -19.5q-16 -21 -19.5 -63t-4.5 -267v-355q0 -51 2 -94q2 -73 2 -176q0 -137 -13.5 -229.5t-47 -163t-95.5 -145.5q-82 -97 -174 -158.5t-156 -61.5q-48 0 -82 13t-34 30z" />
<glyph unicode="K" horiz-adv-x="1384" d="M84 0v72h25q84 0 112 28q24 24 27 80q1 5 1 -2.5t0.5 11.5t2.5 147v694q-4 174 -8 195q-16 69 -135 69h-25v72q54 -5 95 -6.5t72 -2.5t85 -1q123 0 252 10v-72h-23q-84 0 -112 -28q-24 -24 -27 -80q-1 -7 -1 -9.5t-3 -146.5v-342l244 268q24 27 178 207q53 65 53 92 q0 39 -78 39h-22v72q132 -10 221 -10q49 0 117 3t116 7v-72q-69 -3 -117.5 -19.5t-98.5 -56t-132 -124.5l-237 -250l323 -426q121 -160 183.5 -230t110.5 -96t108 -26v-66h-109q-99 2 -135.5 4.5t-50 8t-33.5 24.5q-15 12 -26.5 25t-28.5 36t-66 88q-45 60 -92 123l-297 412 l-131 -139v-246q4 -174 8 -195q15 -69 135 -69h23v-72q-159 10 -248 10q-97 0 -256 -10z" />
<glyph unicode="L" horiz-adv-x="1073" d="M90 0v72h21q84 0 112 28q24 24 27 80q1 5 1 -2.5t0.5 11.5t2.5 147v694q-4 174 -8 195q-15 69 -135 69h-21v72q55 -5 96 -6.5t70 -2.5t72 -1q120 0 266 10v-72h-27q-84 0 -112 -28q-24 -24 -27 -80q-1 -7 -1 -9.5t-3 -146.5v-674q1 -69 3 -139.5t16.5 -95.5t47.5 -32 t113 -7h92q103 0 164 18t95.5 63.5t66.5 141.5l68 -18l-86 -287q-97 5 -285 8q-72 2 -279 2q-191 0 -350 -10z" />
<glyph unicode="M" horiz-adv-x="1806" d="M68 0v72q81 7 109.5 24.5t37.5 74t14 226.5l21 621l4 118v-1q0 75 -9.5 108t-38 43t-100.5 12q-8 1 -15 1.5t-23 0.5v66q79 -8 157 -8q79 0 174 8q19 -40 19 -43l26 -59l27 -62l27 -61q14 -30 29 -62.5t29 -63.5t32 -69l315 -651l311 651q19 37 89 191q78 173 96 229 q89 -8 174 -8q83 0 160 8v-66q-19 -2 -43 -2q-91 -2 -119.5 -27.5t-28.5 -105.5q0 -35 2 -49l21 -729q1 -88 2.5 -120.5t1.5 -37.5q2 -71 13 -102.5t43 -41.5t110 -13v-72q-144 10 -254 10q-103 0 -252 -10v72q84 5 115.5 18t42 48t10.5 120v53l-8 791l-400 -846 q-42 -96 -82 -182q-12 -26 -24 -62h-33l-512 1078l-10 -668q-2 -62 -2 -121q0 -72 6 -117.5t23 -69.5t48 -32t91 -10v-72q-178 10 -224 10q-69 0 -202 -10z" />
<glyph unicode="N" horiz-adv-x="1556" d="M82 0v68h31q91 0 112 67q17 53 17 150l2 49v47l2 49l8 617v22q0 110 -9.5 151.5t-41.5 55t-121 20.5v70q104 -8 176 -8q67 0 158 8l809 -1063v475q0 80 -6 258q-4 137 -11.5 174.5t-33.5 59.5q-16 13 -42.5 19t-80.5 7v70q96 -10 217 -10q117 0 217 10v-70 q-56 -1 -81.5 -7.5t-41.5 -22.5q-29 -32 -37 -133v1l-2 -116l-2 -72v-72l-8 -907h-37l-934 1207l6 -605q0 -131 8 -280q5 -109 15 -151.5t36 -55t91 -14.5h22v-68q-149 10 -231 10q-72 0 -207 -10z" />
<glyph unicode="O" horiz-adv-x="1585" d="M82 690q0 144 54.5 273t152.5 224t230.5 147t281.5 52q201 0 361.5 -92t250.5 -256.5t90 -367.5q0 -144 -55 -270.5t-152.5 -220.5t-227.5 -146.5t-280 -52.5q-199 0 -361.5 92t-253.5 254.5t-91 363.5zM274 705q0 -136 40.5 -255t111 -206.5t169 -137t208.5 -49.5 q143 0 260.5 77t183.5 212.5t66 302.5q0 141 -39 262.5t-110 209.5t-166.5 137t-209.5 49q-146 0 -264.5 -77.5t-184 -215.5t-65.5 -309z" />
<glyph unicode="P" horiz-adv-x="1047" d="M84 0v72h27q84 0 112 28q24 24 27 80q1 5 1 -2.5t0.5 11.5t2.5 147v694q-4 174 -8 195q-15 69 -135 69h-27v72q84 -4 168 -4q28 1 51 1.5t59 0.5l52 4l49 2l51 2q27 2 94 2q125 0 192 -22t122 -80q90 -101 90 -256q0 -125 -60 -220.5t-169 -148.5t-248 -53v68 q146 8 227.5 92.5t81.5 226.5q0 101 -38.5 171t-114 104t-189.5 34h-72q-1 -39 -1.5 -71t-2.5 -62q-2 -65 -2 -131v-690q4 -174 8 -195q15 -69 135 -69h29v-72q-136 10 -248 10q-128 0 -264 -10z" />
<glyph unicode="Q" horiz-adv-x="1581" d="M82 686q0 144 54.5 274t153.5 226t229 148t280 52q149 0 277.5 -53.5t223 -149.5t147 -228.5t52.5 -282.5q0 -130 -40.5 -243.5t-116.5 -200.5t-188.5 -148.5t-256.5 -93.5l252 -121q97 -47 176 -81t182 -71q65 -24 111.5 -35.5t99.5 -17.5t109 -6q162 0 301 37l6 -51 q-91 -21 -158 -34t-115.5 -20t-90 -10.5t-82.5 -3.5q-84 0 -164 13.5t-168 44.5t-201.5 84t-312.5 155q-98 50 -185 92q-81 39 -146 69t-81 39t-43 27q-149 97 -227 248.5t-78 341.5zM270 698q0 -183 66.5 -329.5t185 -228t269.5 -81.5q111 0 206.5 44t166 124.5t109 190 t38.5 235.5q0 183 -68 332t-188 233.5t-271 84.5q-146 0 -264 -77.5t-184 -217t-66 -310.5z" />
<glyph unicode="R" horiz-adv-x="1305" d="M86 0v72h23q84 0 112 28q24 24 27 80q1 5 1 -2.5t0.5 11.5t2.5 147v694q-4 174 -8 195q-16 69 -135 69h-23v72q102 -10 186 -10q39 0 230 12q94 4 131 4q108 0 190 -39.5t124 -114t42 -174.5q0 -128 -66.5 -221t-195.5 -143q3 -4 35 -45q12 -15 18 -23t23 -34l194 -265 q62 -84 100 -130t69 -70.5t59.5 -33.5t79.5 -16v-63h-113q-61 0 -99.5 3.5t-63.5 15t-47 35.5t-54 71l-357 512q-77 -6 -106 -6q-25 0 -43 2v-297q4 -174 8 -195q15 -69 135 -69h27v-72q-146 10 -252 10q-108 0 -254 -10zM422 709h59q101 0 179.5 36t120.5 104t42 157 q0 69 -21.5 121.5t-63.5 89t-100.5 55t-137.5 18.5q-10 0 -72 -4q-1 -36 -1.5 -65.5t-2.5 -57.5q-2 -61 -2 -125v-329z" />
<glyph unicode="S" horiz-adv-x="936" d="M51 328l78 14q32 -145 105.5 -217t189.5 -72q114 0 193 74t79 178q0 94 -47.5 152.5t-208.5 160.5q-127 85 -156 106.5t-65 59.5q-44 51 -69 116t-25 128q0 106 52.5 188t150.5 126t223 44q120 0 246 -40q5 -59 14.5 -113.5t28.5 -134.5l-70 -15q-25 114 -90 174t-162 60 q-69 0 -126 -31t-90.5 -84t-33.5 -117q0 -56 20 -96.5t73 -85t165 -117.5q112 -72 155 -104t77 -72q90 -96 90 -248q0 -111 -55.5 -198t-156 -135.5t-228.5 -48.5q-154 0 -316 73q-5 65 -37 246q0 -5 -4 29z" />
<glyph unicode="T" horiz-adv-x="1163" d="M0 1108q36 90 90 295h35q30 -20 71.5 -30t120 -13.5t215.5 -3.5q126 0 247.5 2.5t176.5 5.5t91.5 10t95.5 29h35q-53 -181 -72 -295h-66q7 58 7 66q0 62 -29.5 82t-120.5 20h-227v-940q4 -174 8 -195q15 -69 135 -69h29v-72q-154 10 -258 10q-70 0 -168 -6h-29l-29 -2 l-28 -2v72h22q83 0 113 28q23 24 27 80q1 5 1 -2.5t0.5 11.5t2.5 147v940h-134q-101 0 -149.5 -11t-77 -44t-65.5 -113h-70z" />
<glyph unicode="U" horiz-adv-x="1491" d="M66 1296v70q99 -10 219 -10q135 0 264 10v-70q-79 -3 -110 -17.5t-40.5 -56t-9.5 -149.5v-448q0 -91 4.5 -168.5t15 -127t27.5 -85.5q88 -181 336 -181q281 0 365 205q25 66 35 157t10 263v223q-3 178 -3 181.5t-1 15.5q-4 115 -31.5 152.5t-108.5 37.5q-8 0 -16 -2v70 q81 -10 195 -10q110 0 204 10v-70q-55 -2 -79 -13.5t-37 -45.5q-15 -29 -21 -113q0 -45 -2 -123l-2 -45v-45v-260q0 -110 -8.5 -203t-25.5 -156t-44 -110q-126 -213 -450 -213q-184 0 -307 59t-179 173q-22 50 -34.5 135t-12.5 184v496q0 129 -9.5 185.5t-39.5 74.5t-104 20 z" />
<glyph unicode="V" horiz-adv-x="1200" d="M-57 1296v70q86 -10 233 -10q56 0 127 3t113 7v-70q-66 -5 -93.5 -22t-27.5 -53q0 -37 41 -140l295 -759l287 720l8 21q26 63 36.5 97.5t10.5 60.5q0 39 -29 56.5t-96 18.5v70q38 -4 102 -7t109 -3q115 0 203 10v-70q-100 0 -142 -53q-17 -22 -41.5 -75t-77.5 -187 l-253 -623l-9 -24q-15 -40 -63 -158l-21 -55l-47 -127h-33q-18 52 -47 127q-5 13 -13.5 36t-59.5 152l-234 596q-15 40 -78 197q-35 88 -58.5 125.5t-53 50.5t-88.5 18z" />
<glyph unicode="W" horiz-adv-x="1796" d="M-55 1300v66q47 -5 84.5 -6.5t66.5 -2.5t78 -1q102 0 207 10v-66q-98 -3 -98 -61q0 -45 61 -190l303 -766l191 419l-181 406q-53 124 -83.5 156t-96.5 36v66q146 -10 211 -10q76 0 195 10v-66q-54 -5 -71 -16.5t-17 -44.5q0 -46 43 -141l92 -211l96 221q39 88 39 127 q0 33 -20 48.5t-68 16.5v66q127 -10 170 -10q87 0 180 10v-66q-43 0 -67.5 -5.5t-43.5 -23t-36.5 -49.5t-51.5 -106l-149 -334l221 -499l275 637q2 6 6.5 16.5t13 32.5t14.5 37q50 121 60 152t10 56q0 43 -27 61.5t-100 24.5v66q102 -10 207 -10q97 0 196 10v-72h-16 q-55 -3 -83 -23.5t-63.5 -90t-111.5 -246.5l-283 -651q-17 -36 -36 -88q-53 -130 -63 -155t-21 -56h-23l-272 604l-271 -604h-22l-432 1071q-42 103 -68.5 153t-52 67t-74.5 23q-10 0 -18 2z" />
<glyph unicode="X" horiz-adv-x="1212" d="M-14 0v63q64 6 107 31.5t96.5 91.5t144.5 205l196 299l-225 361q-53 86 -87.5 134t-62.5 72t-62 33t-83 10v66q117 -10 248 -10q51 0 131.5 3t132.5 7v-66h-16q-111 0 -111 -53q0 -29 60 -127l180 -293l166 250q46 73 62 99.5t20 37t4 25.5q0 37 -25.5 49t-95.5 12v66 q39 -4 109.5 -7t105.5 -3q40 0 113 3t118 7v-66q-62 -2 -102 -19.5t-85.5 -67.5t-115.5 -152l-219 -320l213 -350q48 -72 103 -160q47 -70 78.5 -103.5t62 -47.5t80.5 -17v-63q-124 10 -230 10q-111 0 -282 -10v63q83 3 112 16.5t29 49.5q0 21 -25 64q-55 98 -104 176 l-141 233l-240 -364q-40 -60 -47.5 -75t-7.5 -34q0 -32 24.5 -45t94.5 -18q10 0 16 -3v-63q-120 10 -219 10q-106 0 -221 -10z" />
<glyph unicode="Y" horiz-adv-x="1100" d="M-61 1303v63q44 -4 110.5 -7t114.5 -3q44 0 123 3t127 7v-63q-61 -6 -85 -18.5t-24 -43.5q0 -23 12.5 -54t47.5 -93l225 -414l196 369q6 7 20.5 36.5t35.5 71.5q22 48 22 78q0 36 -24.5 52t-81.5 16v63q102 -10 200 -10q35 0 102 3t107 7v-63q-68 -3 -106.5 -22.5 t-75.5 -72t-100 -172.5l-248 -475v-225q0 -107 1.5 -145.5t8 -57t21.5 -33.5q28 -28 112 -28h27v-72q-122 10 -254 10q-138 0 -256 -10v72h27q84 0 112 28q15 15 21.5 33.5t8 57t1.5 145.5v231l-315 561q-45 81 -70.5 113.5t-55 44.5t-87.5 17z" />
<glyph unicode="Z" horiz-adv-x="1217" d="M47 27q14 19 25 34.5t88 120.5q7 11 21 30.5t55 78.5l667 981h-270q-173 0 -243 -8t-114 -33q-85 -47 -118 -191l-64 11l64 344h22q17 -14 36.5 -22t55 -13t104 -6.5t138.5 -1.5q119 0 212 1t171 2.5t145 2.5q54 2 105 2l12 -23q-30 -40 -94 -131l-33 -47l-57 -86 l-29 -41l-643 -944h318h47q142 2 184 4.5t70 13t57 33.5q41 32 68 79t57 142l63 -16l-34 -158q-32 -138 -39 -186q-58 2 -197 2q-94 2 -145 2l-74 2h-74q-94 0 -225 -2l-82 -2q-74 -1 -116.5 -1h-52t-17.5 -1h-48z" />
<glyph unicode="[" horiz-adv-x="586" d="M156 -432v1866h360v-68h-215v-1731h215v-67h-360z" />
<glyph unicode="\" horiz-adv-x="852" d="M41 1421l84 39l842 -1882l-86 -39z" />
<glyph unicode="]" horiz-adv-x="586" d="M68 -365h215v1731h-215v68h360v-1866h-360v67z" />
<glyph unicode="^" d="M-51 586l567 848h12l545 -848h-78l-413 639l-428 -639h-205z" />
<glyph unicode="_" d="M47 -180h932v-88h-932v88z" />
<glyph unicode="`" d="M356 1339q0 10 7 12.5t40 2.5h121l144 -350l-43 -21l-252 330q-17 19 -17 26z" />
<glyph unicode="a" horiz-adv-x="850" d="M82 174q0 51 19 84t63.5 60t144.5 65l219 80q0 158 -12 205q-14 47 -43.5 73.5t-69.5 26.5q-32 0 -78 -19.5t-75 -48.5q-14 -14 -16.5 -24.5t-6.5 -46.5q-3 -22 -33 -38.5t-69 -17.5q-19 0 -19 19q0 70 62 117q6 6 18 14q117 77 148 96.5t84 46.5q11 1 19.5 1.5t17.5 0.5 q113 0 166 -73t53 -230q0 -24 -4 -180q-2 -61 -2 -139q0 -98 12.5 -136t48.5 -38q18 0 51 22q10 5 17 12l24 -40q-101 -80 -184 -80q-50 0 -74.5 28t-32.5 99q-123 -136 -256 -136q-86 0 -139 55t-53 142zM238 195q0 -48 33.5 -82.5t80.5 -34.5q43 0 82 21.5t94 76.5v72v155 l-98 -36q-77 -30 -117.5 -54.5t-57.5 -52t-17 -65.5z" />
<glyph unicode="b" horiz-adv-x="1026" d="M41 1296v56q61 14 111 37t127 71l38 -18q-10 -90 -12 -174q-6 -108 -6 -244v-274q107 72 166.5 96t130.5 24q98 0 179.5 -54t128 -149.5t46.5 -209.5q0 -137 -57.5 -244.5t-160 -167t-234.5 -59.5q-52 0 -111 6q-63 8 -111 8q-44 0 -120 -16v252v788q-3 112 -3.5 137 t-0.5 29q-3 62 -23 84t-74 22h-14zM299 393q0 -121 3.5 -155t21.5 -70q55 -107 188 -107q82 0 148 44.5t102.5 124t36.5 180.5t-37.5 179t-105 121.5t-156.5 43.5q-48 0 -95.5 -15t-105.5 -49v-297z" />
<glyph unicode="c" horiz-adv-x="815" d="M76 428q0 93 32 174t90 141t139.5 93.5t172.5 33.5q150 0 242 -86q26 -21 26 -45q0 -15 -24 -41q-29 -24 -56 -24q-16 0 -21 5t-46 58q-47 68 -139 68q-76 0 -136.5 -42t-95.5 -115.5t-35 -168.5q0 -107 40.5 -196.5t111 -140t153.5 -50.5q66 0 111.5 18.5t112.5 71.5 l34 -37q-58 -74 -143 -116.5t-178 -42.5q-175 0 -283 122t-108 320z" />
<glyph unicode="d" horiz-adv-x="1053" d="M76 410q0 129 55 234.5t153 165.5t218 60q108 0 211 -59v225q-1 104 -2.5 151t-5 58.5t-15.5 24.5q-21 26 -78 26h-14v56q61 14 111 37t127 71l38 -18q-10 -90 -12 -174q-6 -108 -6 -232v-618q0 -146 2.5 -205t12 -86.5t29.5 -34t67 -8.5v-59q-66 -4 -121 -14t-123 -31 l-29 32q2 18 4 41.5t2.5 40t1.5 27.5q-88 -75 -153.5 -105t-136.5 -30q-92 0 -169.5 56.5t-122 153.5t-44.5 214zM219 461q0 -156 79 -258.5t198 -102.5q90 0 163 54q22 17 35 30q6 7 11 12.5t6 6.5q2 33 2 61v58q-1 151 -2.5 224t-5.5 95t-15 47q-23 53 -75 82t-121 29 q-80 0 -143 -42.5t-97.5 -119t-34.5 -176.5z" />
<glyph unicode="e" horiz-adv-x="791" d="M76 410q0 128 51.5 233.5t143 166t202.5 60.5q118 0 194 -71t76 -181q0 -53 -16.5 -70.5t-69.5 -17.5h-442q-6 -33 -6 -63q0 -104 40.5 -185.5t112 -127t162.5 -45.5q55 0 96 13t101 52l29 -43q-63 -69 -143 -107t-165 -38q-103 0 -186.5 55t-131.5 152.5t-48 216.5z M229 600h295h29q51 0 51 51q0 62 -42.5 103t-106.5 41q-81 0 -136.5 -48.5t-89.5 -146.5z" />
<glyph unicode="f" horiz-adv-x="647" d="M90 0v68h14q44 0 66 5.5t32.5 23.5t13.5 52.5t3 118.5v68v401h-129l19 72q54 9 76.5 18.5t29.5 26.5t12 68q12 121 50 220t97 165t139.5 100.5t176.5 34.5q76 0 129 -24t53 -60q0 -30 -38 -64q-35 -28 -60 -28q-9 0 -14 2.5t-11 8.5t-38 40q-47 53 -113 53 q-76 0 -134 -63t-81 -170q-18 -112 -18 -316h282l-29 -84h-253v-401v-68q0 -98 6 -138t28 -51t80 -11h47v-68q-120 10 -219 10q-102 0 -217 -10z" />
<glyph unicode="g" horiz-adv-x="895" d="M55 -186q0 41 7 59.5t38 54.5l103 117q-66 50 -66 111q0 8 6 26l156 150q-100 45 -146.5 107.5t-46.5 150.5q0 80 42 144t116.5 100t165.5 36q132 0 205 -73l242 2v-70h-197q37 -67 37 -135q0 -122 -92 -197t-240 -75l-37 -33q-55 -49 -55 -82q0 -20 12 -35t33 -20 q29 -7 55 -8.5t125 -2.5q120 -1 155 -4.5t79 -19.5q106 -41 106 -158q0 -102 -70.5 -195t-183.5 -149.5t-237 -56.5q-94 0 -165 31.5t-109 89.5t-38 135zM193 -135q0 -92 76 -150.5t194 -58.5q112 0 189 55t77 137q0 37 -16 67.5t-43 45.5q-42 27 -164 29q-116 3 -178 12 q-18 1 -45 8l-15 4l-16 4q-34 -47 -46.5 -80.5t-12.5 -72.5zM254 621q0 -70 20.5 -123.5t58 -83t87.5 -29.5q67 0 107 52t40 136q0 110 -44.5 177t-116.5 67q-68 0 -110 -54.5t-42 -141.5z" />
<glyph unicode="h" horiz-adv-x="1094" d="M68 0v68h22q44 0 66 5.5t32.5 23.5t13.5 52.5t3 118.5v68v696q-1 104 -2.5 152.5t-5 60.5t-15.5 25q-23 26 -82 26h-14v56q58 13 111.5 36t134.5 72l35 -18q-11 -88 -13 -174q-6 -108 -6 -236v-307q113 80 181 112.5t118 32.5q85 0 148 -36.5t90 -100.5q24 -60 24 -186 l-2 -119v-92v-68q0 -70 3 -110t14 -59.5t32.5 -25t65.5 -5.5h4v-68q-100 10 -201 10q-96 0 -204 -10v68h24q44 0 66 5.5t32.5 23.5t13.5 52.5t3 118.5v68v70q0 152 -5.5 202.5t-27.5 81.5q-46 74 -135 74q-123 0 -244 -109v-319v-68q0 -70 3 -110t14 -59.5t32.5 -25 t65.5 -5.5h12v-68q-112 10 -199 10q-73 0 -208 -10z" />
<glyph unicode="i" horiz-adv-x="565" d="M82 0v68h22q44 0 66 5.5t32.5 23.5t13.5 52.5t3 118.5v68v123q-2 141 -2 157q-4 69 -25.5 89t-93.5 20v53q83 23 129 43t119 66l37 -19q-9 -64 -13.5 -113t-4.5 -116l2 -180v-123v-68q0 -98 6 -138t28 -51t80 -11h11v-68q-100 10 -199 10q-91 0 -211 -10zM180 1329 q0 38 29 66t67 28q39 0 67 -28t28 -66t-28 -67t-67 -29q-38 0 -67 29t-29 67z" />
<glyph unicode="j" horiz-adv-x="492" d="M14 -330q78 53 113.5 88.5t52.5 86t22 132.5t5 269v227l-4 174q-5 45 -28 61.5t-85 16.5v53q81 23 125.5 43.5t114.5 65.5l37 -19q-12 -84 -15.5 -123.5t-3.5 -105.5l2 -166v-301q0 -147 -9.5 -221.5t-38.5 -126t-86 -95t-173 -108.5zM172 1329q0 38 29 66t67 28t66 -28 t28 -66t-28 -67t-66 -29t-67 29t-29 67z" />
<glyph unicode="k" horiz-adv-x="991" d="M72 0v68h18q44 0 66 5.5t32.5 23.5t13.5 52.5t3 118.5v68v698v43q-3 129 -6 153.5t-17 39.5q-22 28 -78 28h-14v54q105 24 238 108l39 -18q-11 -88 -13 -174q-6 -105 -6 -234v-698v-68q0 -70 3 -110t14 -59.5t32.5 -25t65.5 -5.5h12v-68q-107 10 -203 10q-95 0 -200 -10z M371 471l174 174q65 68 75.5 81.5t10.5 29.5q0 19 -14 25.5t-60 6.5v68q123 -6 184 -6q68 0 185 6v-68h-21q-68 0 -132.5 -37t-182.5 -149l-74 -72l205 -272q49 -63 84 -107t53.5 -58.5t39 -19.5t69.5 -10v-63q-93 6 -129 6q-37 0 -129 -6q-83 131 -134 201q-9 11 -21.5 28 t-33.5 45l-28 37l-29 39l-23 31l-24 29l-23 30q-2 5 -22 31z" />
<glyph unicode="l" horiz-adv-x="547" d="M74 0v68h16q44 0 66 5.5t32.5 23.5t13.5 52.5t3 118.5v68v700q-1 104 -2.5 151t-5 58.5t-15.5 24.5q-25 28 -80 28h-14v54q60 13 111.5 36.5t128.5 71.5l39 -18q-11 -88 -13 -174q-6 -105 -6 -232v-700v-68q0 -70 3 -110t14 -59.5t32.5 -25t65.5 -5.5h16v-68 q-110 10 -194 10q-88 0 -211 -10z" />
<glyph unicode="m" horiz-adv-x="1630" d="M80 0v68h24q44 0 66 5.5t32.5 23.5t13.5 52.5t3 118.5v68v127l-2 161v-6q-5 64 -23.5 85t-74.5 22h-13v55q104 27 232 107l41 -19q-10 -65 -12 -127q111 74 170 101.5t106 27.5q181 0 240 -145q116 83 183 114t126 31q83 0 141.5 -36t83.5 -101q17 -38 23 -88.5t6 -171.5 v-137v-68q0 -70 3 -110t14 -59.5t32.5 -25t65.5 -5.5h8v-68q-129 10 -195 10q-59 0 -205 -10v68h15q44 0 66 5.5t32.5 23.5t13 52.5t2.5 118.5v68v115q0 98 -3.5 137.5t-18.5 81.5q-14 43 -56 68.5t-98 25.5q-51 0 -102 -22t-121 -74q2 -29 2 -97v-120v-115v-68 q0 -70 3 -110t14 -59.5t32.5 -25t65.5 -5.5h12v-68q-122 10 -199 10q-86 0 -194 -10v68h6q44 0 66 5.5t32.5 23.5t13.5 52.5t3 118.5v68v115q-2 121 -3.5 151.5t-6.5 48.5t-19 41q-46 72 -147 72q-51 0 -99.5 -20t-113.5 -68v-340v-68q0 -98 6 -138t28 -51t80 -11h8v-68 q-127 10 -202 10q-46 0 -129 -6h-25l-27 -2z" />
<glyph unicode="n" horiz-adv-x="1110" d="M82 0v68h22q44 0 66 5.5t32.5 23.5t13.5 52.5t3 118.5v68v131q-2 141 -2 149q-4 67 -25.5 87t-87.5 20v53q134 49 234 111l39 -19q-10 -73 -12 -141q81 56 133.5 86t93 43.5t76.5 13.5q127 0 192 -75q38 -41 52 -97.5t14 -165.5v-104v-92v-68q0 -98 6 -138t28 -51t80 -11 h4v-68q-145 10 -202 10q-55 0 -201 -10v68h23q44 0 66 5.5t32.5 23.5t13 52.5t2.5 118.5v68v92q0 110 -2.5 153t-9.5 67.5t-25 49.5q-46 66 -137 66q-60 0 -113 -24.5t-126 -86.5v-317v-68q0 -98 6 -138t28 -51t80 -11h17v-68q-141 10 -209 10q-90 0 -205 -10z" />
<glyph unicode="o" horiz-adv-x="1040" d="M76 434q0 123 60.5 225t164.5 161t231 59q95 0 175 -33t138 -94t90 -145t32 -183q0 -91 -35 -171.5t-96 -140t-143.5 -93t-176.5 -33.5q-129 0 -229 56.5t-155.5 159t-55.5 232.5zM240 465q0 -173 83.5 -289.5t206.5 -116.5q61 0 112.5 24t89 71t56.5 111.5t19 142.5 q0 111 -38.5 201.5t-106.5 142t-150 51.5q-81 0 -142.5 -42.5t-95.5 -119.5t-34 -176z" />
<glyph unicode="p" horiz-adv-x="1065" d="M70 -393h20q44 0 66 5.5t32.5 23.5t13.5 52.5t3 118.5v68v586v43q-2 89 -4.5 130t-11 60t-26.5 24t-59 7h-12v55q104 27 232 107l41 -19q-9 -66 -13 -114q107 73 156.5 94.5t114.5 21.5q107 0 190.5 -53t129.5 -147.5t46 -218.5t-55.5 -231.5t-151 -170.5t-207.5 -63 q-107 0 -223 51v-162v-68q0 -70 3 -110t14 -59.5t32.5 -25t65.5 -5.5h16v-68q-105 10 -207 10q-101 0 -206 -10v68zM352 154q34 -41 92 -67t119 -26q82 0 145.5 43t98.5 121.5t35 180.5q0 101 -36.5 181.5t-101.5 124.5t-149 44q-48 0 -104.5 -17t-98.5 -45v-540z" />
<glyph unicode="q" horiz-adv-x="999" d="M78 422q0 125 56 228t153 161.5t215 58.5q135 0 239 -100l101 104l35 -18q-14 -101 -17 -201l-2 -47l-2 -118v2v-43v-574v-68q0 -70 3 -110t14 -59.5t32.5 -25t65.5 -5.5h14v-68q-117 10 -203 10q-93 0 -209 -10v68h23q44 0 66 5.5t32.5 23.5t13.5 52.5t3 118.5v68v266 q-145 -155 -297 -155q-93 0 -170.5 57t-121.5 157.5t-44 221.5zM225 455q0 -98 36 -180.5t98 -128.5t137 -46q43 0 84.5 14.5t74.5 39t56 59.5v297q0 90 -6 129.5t-23 65.5q-55 96 -182 96q-63 0 -114 -24t-87 -70t-55 -110t-19 -142z" />
<glyph unicode="r" horiz-adv-x="713" d="M78 0v68h24q44 0 66 5.5t32.5 23.5t13.5 52.5t3 118.5v68v115v69q0 98 -6 138t-28 53t-77 18v49q128 46 230 109l26 -10v-183q71 100 124 138t122 38q36 0 56 -14t20 -39q0 -45 -18.5 -81t-38.5 -36q-11 0 -25 7q-43 18 -90 18q-45 0 -81.5 -27t-51.5 -73 q-9 -30 -14 -125q-3 -35 -3 -76v-88v-68q0 -70 3 -110t14 -59.5t32.5 -25t65.5 -5.5h21v-68q-139 10 -217 10t-203 -10z" />
<glyph unicode="s" horiz-adv-x="688" d="M82 240l55 8q15 -67 39 -112t58 -65t83 -20q68 0 111 37.5t43 95.5q0 46 -29.5 83t-107.5 85q-100 66 -143.5 105t-60.5 80t-17 102q0 66 32.5 119t90.5 82.5t131 29.5q91 0 196 -39l19 -174l-52 -8q-43 154 -157 154q-36 0 -65.5 -15.5t-46.5 -43t-17 -60.5 q0 -49 32.5 -87.5t118.5 -92.5q124 -75 167.5 -130.5t43.5 -133.5q0 -73 -36 -131t-99.5 -90.5t-142.5 -32.5q-115 0 -219 45z" />
<glyph unicode="t" horiz-adv-x="621" d="M72 727l12 57q82 57 131 125.5t72 157.5h55l-4 -256h262l-29 -84h-241v-248q1 -172 3 -234t11 -91q12 -38 46.5 -60t80.5 -22q30 0 54 5t55 17l20 -53q-122 -55 -231 -55q-66 0 -107.5 22.5t-59.5 71.5t-18 131v92v424h-112z" />
<glyph unicode="u" horiz-adv-x="1067" d="M63 784v66q33 -2 76 -2q116 0 199 16q-8 -209 -8 -329v-78q0 -126 3.5 -173.5t14.5 -78.5q17 -49 57 -76t93 -27q57 0 106 21t119 72v323v35q1 26 1.5 45t0.5 27q0 77 -8 107.5t-32 40t-83 11.5v66q54 -4 64 -4q60 0 113 5t100 13q-5 -87 -6 -106.5t-2 -64t-2 -77.5 t-1 -98v-80q0 -72 4 -268q0 -36 9.5 -54t34.5 -25.5t73 -10.5v-60q-88 -6 -141 -16.5t-117 -30.5l-24 27q16 75 16 117v14q-73 -73 -154.5 -112t-154.5 -39q-55 0 -108.5 30.5t-80.5 77.5q-23 41 -32 87t-9 136v146v78v30q1 23 1.5 40t0.5 24q0 75 -8 104.5t-32 39t-83 11.5 z" />
<glyph unicode="v" horiz-adv-x="897" d="M-6 788v68q141 -8 194 -8q51 0 218 8v-68q-13 -2 -29 -2q-84 -3 -84 -49q0 -29 37 -123l153 -383l119 283q70 182 70 209q0 35 -22 48.5t-85 16.5v68q148 -8 183 -8t163 8v-68q-54 -3 -85 -24t-63 -78t-85 -184l-123 -289q-9 -21 -70 -168q-6 -15 -22 -63h-39 q-56 152 -82 215l-133 327q-53 127 -78.5 174t-55 65.5t-81.5 24.5z" />
<glyph unicode="w" horiz-adv-x="1260" d="M-6 786v70q40 -5 70 -6.5t52.5 -2.5t61.5 -1q83 0 172 10v-70q-88 -3 -88 -55q0 -13 19 -55q9 -21 12 -33l145 -395l160 373l-25 61q-26 65 -50.5 84.5t-82.5 19.5v70q105 -10 199 -10q93 0 211 10v-70h-21q-59 -2 -83.5 -15t-24.5 -44q0 -20 18 -61l164 -418l115 321 q27 85 35 112t8 48q0 57 -74 57h-12v70q133 -8 160 -8q59 0 139 8v-70q-58 -3 -94 -51q-15 -18 -66 -141l-139 -361q-53 -136 -86 -241h-39q-41 115 -82 215l-131 317l-137 -317q-87 -213 -88 -215h-37q-13 41 -101 287l-104 276q-45 114 -67 159t-41 56t-68 16z" />
<glyph unicode="x" horiz-adv-x="920" d="M23 0v61q63 8 93.5 21.5t69.5 58t115 148.5l96 129l-176 254q-57 83 -83 100.5t-95 18.5v65q95 -10 186 -10q96 0 191 10v-65q-8 -3 -19 -3q-53 0 -53 -26q0 -21 49 -90l88 -135l29 41q35 48 55.5 81.5t27.5 51.5t9 39q0 20 -14 28.5t-49 9.5q-8 0 -17 3v65 q40 -5 69 -6.5t50.5 -2.5t59.5 -1q74 0 153 10v-65q-55 -3 -87.5 -18.5t-69 -58t-119.5 -159.5l-56 -76l166 -243q74 -107 89.5 -126.5t35.5 -30t62 -16.5q10 0 20 -2v-61q-95 10 -178 10q-63 0 -209 -10v61q52 0 69 8t17 29q0 26 -39 82l-123 178l-63 -92 q-96 -137 -99 -170q0 -18 15.5 -26t54.5 -9h12v-61q-86 10 -172 10q-80 0 -161 -10z" />
<glyph unicode="y" horiz-adv-x="885" d="M-6 791v65q95 -10 188 -10q88 0 203 10v-65q-7 0 -13.5 -1t-11.5 -2q-44 -3 -60.5 -14t-16.5 -35q0 -35 34 -121l160 -417l111 291l12 30q41 104 51.5 138.5t10.5 68.5q0 33 -23.5 47t-81.5 15v65q146 -10 182 -10q71 0 174 10v-65q-87 -9 -122 -48q-25 -28 -42 -65 t-77 -186l-185 -463q-69 -172 -123 -272t-101.5 -141.5t-104.5 -41.5q-35 0 -60.5 24t-25.5 56q0 78 112 90q48 4 79 26t59 71.5t79 168.5l-190 494q-76 183 -94.5 222.5t-37.5 48.5t-85 16z" />
<glyph unicode="z" horiz-adv-x="850" d="M35 23l13.5 18t13.5 17.5t38 52.5q21 27 86 116l396 551h-140q-118 0 -173.5 -9t-80 -37t-45.5 -95l-59 6l45 244h39l12 -8q24 -16 42 -22.5t39 -8.5t75 -2h190h113h115h28l11 -23l-543 -747q110 -4 164 -4q121 0 178.5 11t92 44t79.5 115l53 -15l-72 -227q-77 4 -202 4 h-129q-117 -1 -189.5 -1t-110.5 -1t-65 -2z" />
<glyph unicode="{" d="M213 637v31q109 6 156 42.5t47 118.5q0 62 -2 103q-1 21 -1.5 60t-0.5 61v47q0 103 9 169.5t31 106.5t62 64q44 28 133 35q-6 0 137 2q19 0 37 2v-45q-82 -1 -136.5 -14t-82 -40.5t-41.5 -76.5q-11 -32 -13.5 -57t-2.5 -72v-197v-121q-3 -85 -39.5 -133t-116.5 -68v-6 q110 -21 143 -123q9 -26 12 -70.5t3 -215.5q0 -64 -2 -123q0 -128 22 -190.5t81 -87.5t173 -25v-45q-12 0 -92 2q-102 1 -147 10t-82 35q-46 34 -68 96t-22 160q0 63 2 108v56q3 110 3 109.5t3 113.5q0 66 -18.5 102.5t-62 53.5t-124.5 22z" />
<glyph unicode="|" d="M457 -342v1708h110v-1708h-110z" />
<glyph unicode="}" d="M203 -186q131 0 188.5 31.5t75.5 113.5q10 39 10 125v86l2 47v127v70q0 71 16.5 119.5t50.5 76.5t89 39v6q-117 29 -146 127q-6 23 -8 41t-2 74v80v231q-5 127 -63 174.5t-213 51.5v45q37 -2 119 -2q102 -1 150.5 -17.5t80.5 -60.5q34 -42 46.5 -104t12.5 -193 q0 -92 -2 -162q-2 -41 -2 -106q0 -86 46 -123t157 -43v-31q-59 -3 -98 -13.5t-61.5 -29.5t-33 -50t-10.5 -79l6 -393q0 -131 -41 -201.5t-129 -89.5q-37 -7 -149 -10q-82 -2 -92 -2v45z" />
<glyph unicode="~" horiz-adv-x="1366" d="M252 1274q56 92 129.5 145.5t148.5 53.5q38 0 77.5 -10t111.5 -36q108 -36 160 -36q114 0 204 112l29 -18q-49 -87 -126.5 -142t-149.5 -55q-24 0 -37 2t-38.5 10t-117.5 37q-115 37 -174 37q-56 0 -91 -22.5t-97 -96.5z" />
<glyph unicode="&#xa1;" horiz-adv-x="475" d="M123 827q0 48 33.5 81.5t81.5 33.5q47 0 80.5 -33.5t33.5 -81.5q0 -46 -34 -80t-80 -34q-47 0 -81 34t-34 80zM145 -336q0 102 15 330q7 80 9 115t5 67l35 350h55l35 -350q6 -48 20 -252q5 -54 8 -117t3 -143q0 -62 -23 -94.5t-69 -32.5q-45 0 -69 32t-24 95z" />
<glyph unicode="&#xa2;" horiz-adv-x="956" d="M125 690q0 88 25.5 164t74.5 135t118 97t153 51v127h65v-125q110 -3 184 -43q39 -21 62.5 -44.5t23.5 -41.5q0 -23 -27.5 -46.5t-53.5 -23.5q-13 0 -18 2t-13 10.5t-29 36.5q-31 43 -56.5 59t-72.5 21v-700q16 0 22.5 -0.5t12.5 -1.5q105 0 209 92l37 -41 q-53 -65 -128.5 -108.5t-152.5 -53.5v-119h-65v119q-84 6 -151 38.5t-117 90t-76.5 136t-26.5 169.5zM281 754q0 -279 215 -371v686q-62 -12 -111 -56t-76.5 -113t-27.5 -146z" />
<glyph unicode="&#xa3;" horiz-adv-x="956" d="M43 133q0 67 50 111.5t126 44.5q75 0 135 -29q2 21 2 47q0 117 -43 346h-202v70h190q-29 154 -29 242q0 95 27 175t74 136t114 86.5t146 30.5q57 0 111 -19.5t89 -49.5t35 -58q0 -25 -30 -49q-29 -29 -56 -29q-8 0 -11 1t-8.5 5.5t-16.5 19t-21 27.5q-35 48 -64 67 t-69 19q-74 0 -117 -69t-43 -185q0 -122 39 -350h295v-70h-287q6 -94 6 -141q0 -166 -34 -287q43 -17 49 -20q120 -51 169.5 -66.5t100.5 -15.5q36 0 64 20t63 70l43 -35q-54 -97 -120.5 -150t-133.5 -53q-38 0 -71 15t-85 53q-29 22 -112 82q-74 -145 -207 -145 q-72 0 -120 44t-48 109zM119 133q0 -35 28.5 -58.5t67.5 -23.5q60 0 96 45q18 21 27 45q6 25 6 29q-78 47 -127 47q-46 0 -72 -22t-26 -62z" />
<glyph unicode="&#xa4;" horiz-adv-x="1366" d="M127 1192l59 61l189 -188q141 109 309 109q80 0 146.5 -24t158.5 -85l191 188l59 -59l-190 -193q59 -92 80.5 -157t21.5 -148q0 -78 -21.5 -139.5t-82.5 -155.5l192 -192l-61 -59l-191 190q-85 -59 -154 -84t-151 -25q-79 0 -145.5 23.5t-155.5 81.5l-188 -189l-60 62 l186 186q-42 59 -65.5 106t-34 92.5t-10.5 98.5q0 78 24 149.5t80 164.5zM330 700q0 -93 47.5 -174t128.5 -128.5t178 -47.5q95 0 176 47.5t127.5 127.5t46.5 175q0 98 -46.5 179t-127.5 128.5t-176 47.5q-97 0 -178 -47.5t-128.5 -128.5t-47.5 -179z" />
<glyph unicode="&#xa5;" horiz-adv-x="956" d="M10 1303v63q82 -10 176 -10q43 0 112 3t116 7v-63q-55 -4 -77 -17.5t-22 -42.5q0 -28 33 -117q6 -14 12 -32l146 -414l123 369q1 5 16 51q39 104 39 139q0 64 -96 64v63q97 -10 174 -10q31 0 52 1t50.5 2.5t67.5 6.5v-63q-71 -4 -118.5 -61t-100.5 -206l-84 -243h256v-68 h-281l-57 -166v-41h338v-67h-338v-119q0 -135 4.5 -174.5t21.5 -61.5q32 -30 103 -30h24v-66q-110 10 -229 10q-126 0 -231 -10v66h24q74 0 103 30q14 17 18.5 35t6 56t1.5 145v119h-336v67h336v47l-61 160h-275v68h248l-129 335q-33 90 -66 125t-100 50z" />
<glyph unicode="&#xa6;" d="M457 313h110v-655h-110v655zM457 680v686h110v-686h-110z" />
<glyph unicode="&#xa7;" horiz-adv-x="956" d="M84 537q0 93 54 174t136 114q-59 55 -86.5 111.5t-27.5 128.5q0 87 45 155t127 107t184 39q97 0 180.5 -43.5t83.5 -91.5q0 -23 -28 -51q-30 -27 -50 -27q-11 0 -15.5 2.5t-13 12.5t-44.5 53q-23 30 -66.5 50.5t-85.5 20.5q-49 0 -91 -24t-66.5 -66t-24.5 -90 q0 -49 21 -85.5t80.5 -81t174.5 -114.5q124 -74 157.5 -97.5t59.5 -53.5q80 -85 80 -203q0 -94 -49 -174t-133 -123q67 -53 99 -114t32 -134q0 -70 -29 -130t-81.5 -105.5t-122 -70.5t-150.5 -25q-71 0 -147.5 25t-126 63.5t-49.5 74.5q0 26 30 52q35 30 56 30q16 0 25 -6.5 t22 -25.5q95 -136 215 -136q90 0 149.5 60.5t59.5 148.5q0 55 -19 91.5t-74.5 78.5t-175.5 115q-97 58 -142.5 90t-80.5 64q-92 86 -92 211zM205 598q0 -47 21.5 -84.5t75.5 -79t157 -102.5q129 -79 172 -111q54 33 83 83t29 110q0 69 -51 127.5t-172 128.5q-128 74 -162 96 l-32 20q-121 -70 -121 -188z" />
<glyph unicode="&#xa8;" d="M244 1163q0 42 28.5 70.5t69.5 28.5t69.5 -28.5t28.5 -70.5q0 -40 -29 -69t-69 -29t-69 29t-29 69zM586 1163q0 42 28.5 70.5t69.5 28.5t69.5 -28.5t28.5 -70.5q0 -40 -29 -69t-69 -29t-69 29t-29 69z" />
<glyph unicode="&#xa9;" horiz-adv-x="1647" d="M113 684q0 192 95.5 355.5t258.5 258.5t354 95q193 0 356.5 -95.5t259 -258.5t95.5 -355q0 -193 -95.5 -356.5t-259 -259t-356.5 -95.5q-191 0 -354 95t-258.5 259t-95.5 357zM176 684q0 -174 86.5 -323t235.5 -235.5t323 -86.5q176 0 325 86.5t235.5 235.5t86.5 323 t-86.5 323t-235.5 235.5t-325 86.5q-174 0 -323 -86.5t-235.5 -235.5t-86.5 -323zM455 670q0 170 106.5 283.5t267.5 113.5q84 0 172 -37q25 -12 48 -12t36 41q0 2 5 12h34v-235h-34q-24 88 -86 136t-154 48q-78 0 -136 -43t-90 -120.5t-32 -180.5q0 -101 32.5 -174.5 t94 -112.5t143.5 -39q79 0 144 40.5t135 131.5v-73q-69 -80 -138.5 -115t-160.5 -35q-113 0 -201.5 46.5t-137 131t-48.5 193.5z" />
<glyph unicode="&#xaa;" horiz-adv-x="637" d="M0 608v68h637v-68h-637zM25 1094q0 79 39.5 144t109 102.5t152.5 37.5t148 -37.5t101.5 -103.5t36.5 -150q0 -79 -40 -143t-109 -100.5t-148 -36.5q-84 0 -151 36.5t-103 101.5t-36 149zM141 1114q0 -106 52.5 -178t130.5 -72q80 0 127 58t47 155q0 69 -24.5 124.5 t-67 86.5t-95.5 31q-74 0 -122 -57.5t-48 -147.5z" />
<glyph unicode="&#xab;" horiz-adv-x="788" d="M68 440v19l288 286l41 -36l-180 -263l180 -266l-41 -35zM375 440v19l289 286l41 -36l-181 -263l181 -266l-41 -35z" />
<glyph unicode="&#xac;" d="M74 463v84h878v-547h-192v463h-686z" />
<glyph unicode="&#xad;" horiz-adv-x="440" d="M0 383v133h440v-133h-440z" />
<glyph unicode="&#xae;" horiz-adv-x="1647" d="M113 684q0 192 95.5 355.5t258.5 258.5t354 95q193 0 356.5 -95.5t259 -258.5t95.5 -355q0 -193 -95.5 -356.5t-259 -259t-356.5 -95.5q-191 0 -354 95t-258.5 259t-95.5 357zM176 684q0 -174 86.5 -323t235.5 -235.5t323 -86.5q176 0 325 86.5t235.5 235.5t86.5 323 t-86.5 323t-235.5 235.5t-325 86.5q-174 0 -323 -86.5t-235.5 -235.5t-86.5 -323zM489 1020v37h328q303 0 303 -205q0 -67 -32.5 -109t-108.5 -73l156 -271q17 -31 38 -42t56 -11v-37h-164l-203 357h-151v-242q0 -45 13.5 -61.5t53.5 -16.5h35v-37h-319v37h30 q41 0 54.5 15.5t13.5 62.5v518q0 49 -12.5 63.5t-55.5 14.5h-35zM711 700h118q90 0 129 36t39 116q0 76 -44.5 118t-125.5 42h-116v-312z" />
<glyph unicode="&#xaf;" d="M256 1112v90h512v-90h-512z" />
<glyph unicode="&#xb0;" horiz-adv-x="819" d="M102 1094q0 62 23.5 119t68.5 101.5t100.5 67.5t117.5 23q85 0 155.5 -41t110 -112t39.5 -160q0 -86 -41 -159t-111.5 -114t-154.5 -41q-131 0 -219.5 91.5t-88.5 224.5zM217 1085q0 -74 57 -132t129 -58q85 0 141 56t56 139q0 86 -54.5 142t-137.5 56 q-80 0 -135.5 -59.5t-55.5 -143.5z" />
<glyph unicode="&#xb1;" horiz-adv-x="1124" d="M20 741v113h486v502h112v-502h486v-113h-486v-477h-112v477h-486zM23 0v113h1073v-113h-1073z" />
<glyph unicode="&#xb2;" horiz-adv-x="627" d="M18 557q126 126 211.5 231t126.5 184t41 138q0 50 -34 82.5t-89 32.5q-87 0 -153 -115l-47 25q41 84 107.5 132t142.5 48q89 0 144.5 -54.5t55.5 -144.5q0 -70 -52.5 -152t-182.5 -216l-131 -134h18h129q123 0 159.5 14t61.5 66l49 -14l-77 -160q-92 2 -215 2 q-129 0 -246 -2z" />
<glyph unicode="&#xb3;" horiz-adv-x="627" d="M70 606q0 20 16.5 34.5t40.5 14.5q26 0 53 -30q34 -34 52.5 -44t46.5 -10q36 0 67 23.5t48.5 63.5t17.5 92q0 174 -191 174h-28v51q190 15 190 151q0 49 -31 81t-80 32q-38 0 -66.5 -19.5t-64.5 -68.5l-43 31q49 70 100.5 101.5t114.5 31.5q75 0 125.5 -49.5t50.5 -122.5 q0 -57 -30 -97t-101 -77q53 -6 92 -32.5t59.5 -68.5t20.5 -98q0 -70 -37.5 -129.5t-103.5 -94t-143 -34.5q-75 0 -125.5 26.5t-50.5 67.5z" />
<glyph unicode="&#xb4;" d="M360 1004l140 350h137q18 0 23.5 -3t5.5 -12q0 -8 -21 -36l-237 -320z" />
<glyph unicode="&#xb5;" horiz-adv-x="1180" d="M68 -307q0 43 6.5 77t27.5 115q25 91 25 156v983h180v-678q0 -106 49.5 -166.5t137.5 -60.5q66 0 120.5 35.5t108.5 113.5v756h182v-756q0 -83 28.5 -133.5t72.5 -50.5q37 0 66.5 40.5t33.5 98.5l55 -2q-21 -121 -83.5 -184.5t-162.5 -63.5q-76 0 -120 45t-70 146 q-164 -191 -317 -191q-51 0 -93.5 20t-107.5 75q0 -55 4 -87t20 -90q22 -73 30.5 -113.5t8.5 -74.5q0 -70 -28 -111t-74 -41q-41 0 -70.5 41.5t-29.5 100.5z" />
<glyph unicode="&#xb6;" horiz-adv-x="956" d="M25 995q0 116 50 199t144 127.5t223 44.5h443v-55h-97v-1526h-71v1526h-211v-1526h-74v846h-29q-84 0 -154 26.5t-120.5 76.5t-77 117t-26.5 144z" />
<glyph unicode="&#xb8;" d="M338 -324q0 37 41 37q16 0 51 -22q27 -17 49 -17q38 0 61 24t23 62q0 34 -24.5 56t-63.5 22q-30 0 -76 -16l-18 39l182 139h55l-90 -80h19q62 0 100.5 -35t38.5 -92q0 -75 -68 -124.5t-169 -49.5q-51 0 -81 16t-30 41z" />
<glyph unicode="&#xb9;" horiz-adv-x="627" d="M143 1219q142 67 211 112l33 -20q-2 -37 -4 -116.5t-2 -147.5v-322q0 -79 5.5 -105.5t25.5 -35t82 -11.5v-51q-126 6 -170 6q-38 0 -170 -6v51q34 4 36 5q39 2 55.5 11.5t21.5 39t5 96.5v487q-10 -4 -69 -28q-9 -4 -33 -15z" />
<glyph unicode="&#xba;" horiz-adv-x="637" d="M0 608v68h637v-68h-637zM86 936q0 49 31.5 76.5t120.5 58.5l137 49q0 108 -15.5 145.5t-58.5 37.5q-20 0 -50.5 -13t-45.5 -28q-10 -9 -15 -41q-2 -16 -22.5 -27t-48.5 -12q-17 0 -17 16q0 47 41 78q57 44 164 100h25q77 0 113 -46t36 -148q0 -26 -0.5 -53t-1.5 -60 q-2 -39 -2 -88q0 -58 7.5 -80t27.5 -22q11 0 31 12q2 2 14 10l23 -35q-77 -53 -127 -53q-64 0 -76 72q-75 -78 -162 -78q-57 0 -93 36t-36 93zM190 948q0 -28 20.5 -47.5t49.5 -19.5q26 0 48 11.5t61 47.5v41v92l-58 -22q-68 -25 -94.5 -47t-26.5 -56z" />
<glyph unicode="&#xbb;" horiz-adv-x="788" d="M82 182l180 262l-180 267l41 34l289 -292v-19l-289 -289zM389 182l180 262l-180 267l41 34l289 -292v-19l-289 -289z" />
<glyph unicode="&#xbc;" horiz-adv-x="1509" d="M143 1219q142 67 211 112l33 -20q-2 -37 -4 -116.5t-2 -147.5v-322q0 -79 5.5 -105.5t25.5 -35t82 -11.5v-51q-126 6 -170 6q-38 0 -170 -6v51q34 4 36 5q39 2 55.5 11.5t21.5 39t5 96.5v487q-10 -4 -69 -28q-9 -4 -33 -15zM483 0l455 1300h86l-455 -1300h-86zM920 229 l8 84l315 465l113 39v-504h88v-84h-88v-229h-107v229h-329zM999 313h250v371z" />
<glyph unicode="&#xbd;" horiz-adv-x="1509" d="M143 1219q142 67 211 112l33 -20q-2 -37 -4 -116.5t-2 -147.5v-322q0 -79 5.5 -105.5t25.5 -35t82 -11.5v-51q-126 6 -170 6q-38 0 -170 -6v51q34 4 36 5q39 2 55.5 11.5t21.5 39t5 96.5v487q-10 -4 -69 -28q-9 -4 -33 -15zM483 0l455 1300h86l-455 -1300h-86zM901 37 q130 133 213 234.5t123.5 180.5t40.5 136q0 50 -34.5 82t-86.5 32q-90 0 -153 -112l-48 24q40 81 107 130t141 49q90 0 145.5 -54t55.5 -143q0 -71 -54.5 -155t-181.5 -214l-129 -133q27 -2 146 -2q86 0 125.5 5.5t58.5 21t39 53.5l49 -12l-78 -160q-75 2 -217 2 q-151 0 -243 -2z" />
<glyph unicode="&#xbe;" horiz-adv-x="1509" d="M70 606q0 20 16.5 34.5t40.5 14.5q26 0 53 -30q34 -34 52.5 -44t46.5 -10q36 0 67 23.5t48.5 63.5t17.5 92q0 174 -191 174h-28v51q190 15 190 151q0 49 -31 81t-80 32q-38 0 -66.5 -19.5t-64.5 -68.5l-43 31q49 70 100.5 101.5t114.5 31.5q75 0 125.5 -49.5t50.5 -122.5 q0 -57 -30 -97t-101 -77q53 -6 92 -32.5t59.5 -68.5t20.5 -98q0 -70 -37.5 -129.5t-103.5 -94t-143 -34.5q-75 0 -125.5 26.5t-50.5 67.5zM483 0l455 1300h86l-455 -1300h-86zM920 229l8 84l315 465l113 39v-504h88v-84h-88v-229h-107v229h-329zM999 313h250v371z" />
<glyph unicode="&#xbf;" horiz-adv-x="643" d="M57 10q0 116 65 182t210 99q33 7 42 23.5t9 74.5v115h68v-352q-273 -31 -273 -226q0 -66 28 -121.5t76.5 -88.5t104.5 -33q27 0 38.5 2.5t61.5 17.5q2 2 13 2q21 0 45 -47q18 -41 18 -59q0 -26 -25.5 -41t-74.5 -15q-119 0 -248 135q-158 166 -158 332zM291 827 q0 48 33.5 81.5t81.5 33.5q47 0 80.5 -33.5t33.5 -81.5q0 -46 -34 -80t-80 -34q-47 0 -81 34t-34 80z" />
<glyph unicode="&#xc0;" horiz-adv-x="1311" d="M-8 0v70q59 4 83 12t42 31q24 28 47 77q3 6 4 7.5t19 46t71 172.5q37 84 43 110l156 408q35 94 92 240q33 88 65 178l119 53q5 -17 7.5 -26.5t13 -46t32.5 -107.5q2 -6 15 -46t22 -67l219 -657q65 -199 94.5 -267.5t62 -89t112.5 -28.5v-70q-129 10 -240 10 q-103 0 -233 -10v70q85 9 106 19t21 44q0 10 -33 133l-90 281h-428l-74 -207q-32 -89 -43 -129q-14 -48 -14 -76q0 -32 28 -46.5t101 -18.5v-70q-107 10 -215 10q-107 0 -205 -10zM446 1708q0 16 21 16h31h155l209 -249l-51 -35l-322 227q-5 4 -13 9t-11 7q-19 15 -19 25z M451 643h360l-168 524z" />
<glyph unicode="&#xc1;" horiz-adv-x="1311" d="M-8 0v70q59 4 83 12t42 31q24 28 47 77q3 6 4 7.5t19 46t71 172.5q37 84 43 110l156 408q35 94 92 240q33 88 65 178l119 53q5 -17 7.5 -26.5t13 -46t32.5 -107.5q2 -6 15 -46t22 -67l219 -657q65 -199 94.5 -267.5t62 -89t112.5 -28.5v-70q-129 10 -240 10 q-103 0 -233 -10v70q85 9 106 19t21 44q0 10 -33 133l-90 281h-428l-74 -207q-32 -89 -43 -129q-14 -48 -14 -76q0 -32 28 -46.5t101 -18.5v-70q-107 10 -215 10q-107 0 -205 -10zM449 1487l204 233h176q33 0 33 -16q0 -9 -14.5 -21t-44.5 -30l-316 -209zM451 643h360 l-168 524z" />
<glyph unicode="&#xc2;" horiz-adv-x="1311" d="M-8 0v70q59 4 83 12t42 31q24 28 47 77q3 6 4 7.5t19 46t71 172.5q37 84 43 110l156 408q35 94 92 240q33 88 65 178l119 53q5 -17 7.5 -26.5t13 -46t32.5 -107.5q2 -6 15 -46t22 -67l219 -657q65 -199 94.5 -267.5t62 -89t112.5 -28.5v-70q-129 10 -240 10 q-103 0 -233 -10v70q85 9 106 19t21 44q0 10 -33 133l-90 281h-428l-74 -207q-32 -89 -43 -129q-14 -48 -14 -76q0 -32 28 -46.5t101 -18.5v-70q-107 10 -215 10q-107 0 -205 -10zM377 1477l201 247h157l199 -247l-47 -35l-232 172l-233 -172zM451 643h360l-168 524z" />
<glyph unicode="&#xc3;" horiz-adv-x="1311" d="M-8 0v70q59 4 83 12t42 31q24 28 47 77q3 6 4 7.5t19 46t71 172.5q37 84 43 110l156 408q35 94 92 240q33 88 65 178l119 53q5 -17 7.5 -26.5t13 -46t32.5 -107.5q2 -6 15 -46t22 -67l219 -657q65 -199 94.5 -267.5t62 -89t112.5 -28.5v-70q-129 10 -240 10 q-103 0 -233 -10v70q85 9 106 19t21 44q0 10 -33 133l-90 281h-428l-74 -207q-32 -89 -43 -129q-14 -48 -14 -76q0 -32 28 -46.5t101 -18.5v-70q-107 10 -215 10q-107 0 -205 -10zM387 1487q7 55 14 88t17 53q14 27 44 44.5t66 17.5q30 0 146 -43q100 -39 133 -39 q49 0 70 80h47q-6 -95 -42 -150t-91 -55q-24 0 -152 45q-102 37 -135 37q-54 0 -66 -78h-51zM451 643h360l-168 524z" />
<glyph unicode="&#xc4;" horiz-adv-x="1311" d="M-8 0v70q59 4 83 12t42 31q24 28 47 77q3 6 4 7.5t19 46t71 172.5q37 84 43 110l156 408q35 94 92 240q33 88 65 178l119 53q5 -17 7.5 -26.5t13 -46t32.5 -107.5q2 -6 15 -46t22 -67l219 -657q65 -199 94.5 -267.5t62 -89t112.5 -28.5v-70q-129 10 -240 10 q-103 0 -233 -10v70q85 9 106 19t21 44q0 10 -33 133l-90 281h-428l-74 -207q-32 -89 -43 -129q-14 -48 -14 -76q0 -32 28 -46.5t101 -18.5v-70q-107 10 -215 10q-107 0 -205 -10zM336 1604q0 44 32 75t76 31q45 0 76 -31t31 -75q0 -45 -31 -77t-76 -32q-44 0 -76 32t-32 77 zM451 643h360l-168 524zM762 1604q0 44 32 75t76 31q45 0 76 -31t31 -75q0 -45 -31 -77t-76 -32q-44 0 -76 32t-32 77z" />
<glyph unicode="&#xc5;" horiz-adv-x="1311" d="M-8 0v70q59 4 83 12t42 31q24 28 47 77q3 6 4 7.5t19 46t71 172.5q37 84 43 110l156 408q35 94 92 240q33 88 65 178l119 53q5 -17 7.5 -26.5t13 -46t32.5 -107.5q2 -6 15 -46t22 -67l219 -657q65 -199 94.5 -267.5t62 -89t112.5 -28.5v-70q-129 10 -240 10 q-103 0 -233 -10v70q85 9 106 19t21 44q0 10 -33 133l-90 281h-428l-74 -207q-32 -89 -43 -129q-14 -48 -14 -76q0 -32 28 -46.5t101 -18.5v-70q-107 10 -215 10q-107 0 -205 -10zM451 643h360l-168 524zM483 1620q0 44 23.5 84.5t62 63t86.5 22.5q73 0 123.5 -49t50.5 -121 t-50 -122t-122 -50q-71 0 -122.5 50.5t-51.5 121.5zM559 1618q0 -40 29 -69t69 -29q42 0 70.5 28.5t28.5 69.5t-28.5 69.5t-70.5 28.5q-40 0 -69 -29t-29 -69z" />
<glyph unicode="&#xc6;" horiz-adv-x="1733" d="M-27 0v63q44 7 64.5 12t36.5 13.5t30 20.5q31 27 95 155l73 148l234 483q8 20 24.5 57.5t18.5 42.5q13 30 27.5 63t21.5 49l14 32q33 64 33 106q0 31 -29.5 42t-109.5 11v68q54 -2 102 -5t105 -4t101 -2t128 -1q141 0 208.5 1t140 2t133 3.5t135.5 5.5q9 -169 28 -276 l-74 -17q-14 84 -42 127t-86.5 60.5t-159.5 17.5q-39 0 -90 -2h-86q-33 0 -41.5 -10t-8.5 -49q1 -21 1.5 -41.5t0.5 -75.5v-361h146q96 0 145.5 6.5t75.5 23t34.5 50t8.5 94.5h76q-10 -110 -10 -202q0 -38 3 -102.5t7 -106.5h-76q-5 77 -19 107.5t-52.5 40t-139.5 9.5h-199 v-305q0 -117 5 -163t27.5 -69.5t69.5 -29.5t163 -6q99 0 158.5 7t97 30t61.5 67t47 121l70 -18l-70 -293q-132 4 -203 6q-228 4 -262 4q-198 0 -499 -10v72h22q83 0 113 28q14 15 19 31t7 49q2 8 2 21v45l2 45v45v323h-337l-93 -202q-5 -12 -12.5 -29.5t-13.5 -36.5 q-54 -134 -62 -151q-28 -67 -28 -113q0 -32 21 -46.5t71 -17.5q14 0 24 -2v-61q-105 10 -213 10q-86 0 -215 -10zM528 739h303v537h-61z" />
<glyph unicode="&#xc7;" horiz-adv-x="1391" d="M82 678q0 153 54 284.5t152 225.5t235 146t298 52q85 0 159 -13t187 -48l121 -33l33 -293l-68 -12q-32 114 -79 180q-31 41 -82 71.5t-113 46t-137 15.5q-124 0 -227 -43.5t-179 -126t-116.5 -194.5t-40.5 -250q0 -137 40.5 -250.5t115 -196t178.5 -128t225 -45.5 q108 0 199 35t141 94q31 36 51 81.5t43 131.5l71 -5l-47 -317q-183 -90 -442 -113l-45 -51q73 -2 113.5 -34.5t40.5 -88.5q0 -74 -69 -126t-169 -52q-117 0 -117 55q0 17 12 27t29 10q13 0 51 -20q29 -17 52 -17q32 0 57 25t25 57q0 37 -24.5 58.5t-64.5 21.5q-36 0 -75 -18 l-17 39q36 28 72 63l55 53q-216 12 -373 100.5t-241 243t-84 359.5z" />
<glyph unicode="&#xc8;" horiz-adv-x="1176" d="M88 0v72h21q84 0 112 28q24 24 27 80q1 5 1 -2.5t0.5 11.5t2.5 147v694q-4 174 -8 195q-16 69 -135 69h-21v72q82 -7 191 -9.5t266 -2.5q52 0 99.5 0.5t97.5 1.5t109 3t146 5l29 -281l-72 -14q-17 95 -45.5 136.5t-91 56t-196.5 14.5q-104 0 -139 -3t-45.5 -13.5 t-10.5 -42.5v-474h174q111 0 164 12t70.5 45.5t17.5 108.5h72q-4 -130 -4 -151q0 -63 2.5 -133t7.5 -123h-78q-2 77 -19.5 109t-68.5 41.5t-184 9.5h-154v-281v-80q0 -82 6.5 -123.5t27 -61t64.5 -25t131 -5.5h74q121 0 183.5 18t96.5 65t62 144l70 -18l-70 -295 q-177 6 -280 8t-183 2q-23 0 -58.5 -0.5t-77.5 -1t-130 -0.5q-50 -1 -82.5 -1.5t-55 -1t-56 -2.5t-60.5 -3zM379 1708q0 16 20 16h31h156l209 -249l-52 -35l-321 227q-9 6 -15.5 10t-9.5 6q-18 14 -18 25z" />
<glyph unicode="&#xc9;" horiz-adv-x="1176" d="M88 0v72h21q84 0 112 28q24 24 27 80q1 5 1 -2.5t0.5 11.5t2.5 147v694q-4 174 -8 195q-16 69 -135 69h-21v72q82 -7 191 -9.5t266 -2.5q52 0 99.5 0.5t97.5 1.5t109 3t146 5l29 -281l-72 -14q-17 95 -45.5 136.5t-91 56t-196.5 14.5q-104 0 -139 -3t-45.5 -13.5 t-10.5 -42.5v-474h174q111 0 164 12t70.5 45.5t17.5 108.5h72q-4 -130 -4 -151q0 -63 2.5 -133t7.5 -123h-78q-2 77 -19.5 109t-68.5 41.5t-184 9.5h-154v-281v-80q0 -82 6.5 -123.5t27 -61t64.5 -25t131 -5.5h74q121 0 183.5 18t96.5 65t62 144l70 -18l-70 -295 q-177 6 -280 8t-183 2q-23 0 -58.5 -0.5t-77.5 -1t-130 -0.5q-50 -1 -82.5 -1.5t-55 -1t-56 -2.5t-60.5 -3zM381 1487l205 233h176q33 0 33 -16q0 -14 -60 -51l-315 -209z" />
<glyph unicode="&#xca;" horiz-adv-x="1176" d="M88 0v72h21q84 0 112 28q24 24 27 80q1 5 1 -2.5t0.5 11.5t2.5 147v694q-4 174 -8 195q-16 69 -135 69h-21v72q82 -7 191 -9.5t266 -2.5q52 0 99.5 0.5t97.5 1.5t109 3t146 5l29 -281l-72 -14q-17 95 -45.5 136.5t-91 56t-196.5 14.5q-104 0 -139 -3t-45.5 -13.5 t-10.5 -42.5v-474h174q111 0 164 12t70.5 45.5t17.5 108.5h72q-4 -130 -4 -151q0 -63 2.5 -133t7.5 -123h-78q-2 77 -19.5 109t-68.5 41.5t-184 9.5h-154v-281v-80q0 -82 6.5 -123.5t27 -61t64.5 -25t131 -5.5h74q121 0 183.5 18t96.5 65t62 144l70 -18l-70 -295 q-177 6 -280 8t-183 2q-23 0 -58.5 -0.5t-77.5 -1t-130 -0.5q-50 -1 -82.5 -1.5t-55 -1t-56 -2.5t-60.5 -3zM309 1477l201 247h158l198 -247l-47 -35l-231 172l-234 -172z" />
<glyph unicode="&#xcb;" horiz-adv-x="1176" d="M88 0v72h21q84 0 112 28q24 24 27 80q1 5 1 -2.5t0.5 11.5t2.5 147v694q-4 174 -8 195q-16 69 -135 69h-21v72q82 -7 191 -9.5t266 -2.5q52 0 99.5 0.5t97.5 1.5t109 3t146 5l29 -281l-72 -14q-17 95 -45.5 136.5t-91 56t-196.5 14.5q-104 0 -139 -3t-45.5 -13.5 t-10.5 -42.5v-474h174q111 0 164 12t70.5 45.5t17.5 108.5h72q-4 -130 -4 -151q0 -63 2.5 -133t7.5 -123h-78q-2 77 -19.5 109t-68.5 41.5t-184 9.5h-154v-281v-80q0 -82 6.5 -123.5t27 -61t64.5 -25t131 -5.5h74q121 0 183.5 18t96.5 65t62 144l70 -18l-70 -295 q-177 6 -280 8t-183 2q-23 0 -58.5 -0.5t-77.5 -1t-130 -0.5q-50 -1 -82.5 -1.5t-55 -1t-56 -2.5t-60.5 -3zM268 1604q0 44 32 75t77 31q44 0 75 -31t31 -75q0 -45 -31 -77t-75 -32q-45 0 -77 32t-32 77zM694 1604q0 44 32 75t77 31q44 0 75 -31t31 -75q0 -45 -31 -77 t-75 -32q-45 0 -77 32t-32 77z" />
<glyph unicode="&#xcc;" horiz-adv-x="672" d="M86 0v72h25q84 0 112 28q24 24 27 80q1 5 1 -2.5t0.5 11.5t2.5 147v694q-4 174 -8 195q-15 69 -135 69h-25v72q134 -10 254 -10q51 0 80.5 1t70 2.5t97.5 6.5v-72h-25q-84 0 -112 -28q-24 -24 -27 -80q-1 -7 -1 -9.5t-3 -146.5v-694q4 -174 8 -195q15 -69 135 -69h25v-72 l-23 2q-159 8 -227 8q-106 0 -252 -10zM129 1708q0 16 21 16h30h156l209 -249l-51 -35l-322 227q-7 6 -25 16q-18 14 -18 25z" />
<glyph unicode="&#xcd;" horiz-adv-x="672" d="M86 0v72h25q84 0 112 28q24 24 27 80q1 5 1 -2.5t0.5 11.5t2.5 147v694q-4 174 -8 195q-15 69 -135 69h-25v72q134 -10 254 -10q51 0 80.5 1t70 2.5t97.5 6.5v-72h-25q-84 0 -112 -28q-24 -24 -27 -80q-1 -7 -1 -9.5t-3 -146.5v-694q4 -174 8 -195q15 -69 135 -69h25v-72 l-23 2q-159 8 -227 8q-106 0 -252 -10zM131 1487l205 233h176q33 0 33 -16q0 -9 -13 -19.5t-47 -31.5l-315 -209z" />
<glyph unicode="&#xce;" horiz-adv-x="672" d="M57 1477l201 247h158l198 -247l-47 -35l-231 172l-234 -172zM84 0v72h25q84 0 112 28q24 24 27 80q1 5 1 -2.5t0.5 11.5t2.5 147v694q-4 174 -8 195q-16 69 -135 69h-25v72q48 -4 126.5 -7t127.5 -3q51 0 80.5 1t70 2.5t97.5 6.5v-72h-25q-84 0 -112 -28q-24 -24 -27 -80 q-1 -7 -1 -9.5t-3 -146.5v-694q4 -174 8 -195q15 -69 135 -69h25v-72l-23 2q-159 8 -227 8q-106 0 -252 -10z" />
<glyph unicode="&#xcf;" horiz-adv-x="672" d="M31 1565q0 44 32 75t76 31q45 0 76 -31t31 -75q0 -45 -31 -77t-76 -32q-44 0 -76 32t-32 77zM86 0v72h25q84 0 112 28q24 24 27 80q1 5 1 -2.5t0.5 11.5t2.5 147v694q-4 174 -8 195q-15 69 -135 69h-25v72q134 -10 254 -10q51 0 80.5 1t70 2.5t97.5 6.5v-72h-25 q-84 0 -112 -28q-24 -24 -27 -80q-1 -7 -1 -9.5t-3 -146.5v-694q4 -174 8 -195q15 -69 135 -69h25v-72l-23 2q-159 8 -227 8q-106 0 -252 -10zM430 1565q0 44 32 75t77 31q44 0 75 -31t31 -75q0 -45 -31 -77t-75 -32q-45 0 -77 32t-32 77z" />
<glyph unicode="&#xd0;" horiz-adv-x="1522" d="M82 0v72h27q84 0 112 28q24 24 27 80q1 5 1 -2.5t0.5 11.5t2.5 147v330h-170v88h170v276q-4 174 -8 195q-16 69 -135 69h-21v72q50 -5 88.5 -6.5t65.5 -2.5t69 -1q26 0 172 4q244 8 310 8q112 0 191.5 -14.5t142.5 -47.5t120 -87q193 -187 193 -519q0 -205 -86.5 -366 t-243 -249.5t-354.5 -88.5q-32 0 -238 8q-88 6 -172 6q-113 0 -264 -10zM424 430q0 -132 2 -180t8.5 -73.5t22.5 -43.5q21 -24 80 -35.5t155 -11.5q128 0 216 29t157 94q61 56 103 131.5t63.5 164.5t21.5 191q0 137 -39.5 244.5t-118 184.5t-188.5 116t-248 39 q-46 0 -133 -6l-32 -2h-35l-33 -2v-84q-2 -47 -2 -94v-338h379v-88h-379v-236z" />
<glyph unicode="&#xd1;" horiz-adv-x="1556" d="M82 0v68h31q91 0 112 67q17 53 17 150l2 49v47l2 49l8 617v22q0 110 -9.5 151.5t-41.5 55t-121 20.5v70q104 -8 176 -8q67 0 158 8l809 -1063v475q0 80 -6 258q-4 137 -11.5 174.5t-33.5 59.5q-16 13 -42.5 19t-80.5 7v70q96 -10 217 -10q117 0 217 10v-70 q-56 -1 -81.5 -7.5t-41.5 -22.5q-29 -32 -37 -133q0 10 -2 -115l-2 -72v-72l-8 -907h-37l-934 1207l6 -605q0 -131 8 -280q5 -109 15 -151.5t36 -55t91 -14.5h22v-68q-149 10 -231 10q-72 0 -207 -10zM510 1487q14 110 31 141q14 27 44 44.5t66 17.5q30 0 146 -43 q98 -39 133 -39q49 0 69 80h48q-6 -96 -42.5 -150.5t-91.5 -54.5q-23 0 -151 45q-102 37 -135 37q-54 0 -66 -78h-51z" />
<glyph unicode="&#xd2;" horiz-adv-x="1585" d="M82 690q0 144 54.5 273t152.5 224t230.5 147t281.5 52q201 0 361.5 -92t250.5 -256.5t90 -367.5q0 -144 -55 -270.5t-152.5 -220.5t-227.5 -146.5t-280 -52.5q-199 0 -361.5 92t-253.5 254.5t-91 363.5zM274 705q0 -136 40.5 -255t111 -206.5t169 -137t208.5 -49.5 q143 0 260.5 77t183.5 212.5t66 302.5q0 141 -39 262.5t-110 209.5t-166.5 137t-209.5 49q-146 0 -264.5 -77.5t-184 -215.5t-65.5 -309zM584 1708q0 16 20 16h31h156l208 -249l-51 -35l-321 227q-9 6 -15.5 10t-9.5 6q-18 14 -18 25z" />
<glyph unicode="&#xd3;" horiz-adv-x="1585" d="M82 690q0 144 54.5 273t152.5 224t230.5 147t281.5 52q201 0 361.5 -92t250.5 -256.5t90 -367.5q0 -144 -55 -270.5t-152.5 -220.5t-227.5 -146.5t-280 -52.5q-199 0 -361.5 92t-253.5 254.5t-91 363.5zM274 705q0 -136 40.5 -255t111 -206.5t169 -137t208.5 -49.5 q143 0 260.5 77t183.5 212.5t66 302.5q0 141 -39 262.5t-110 209.5t-166.5 137t-209.5 49q-146 0 -264.5 -77.5t-184 -215.5t-65.5 -309zM586 1487l205 233h176q32 0 32 -16q0 -9 -14.5 -21t-44.5 -30l-315 -209z" />
<glyph unicode="&#xd4;" horiz-adv-x="1585" d="M82 690q0 144 54.5 273t152.5 224t230.5 147t281.5 52q201 0 361.5 -92t250.5 -256.5t90 -367.5q0 -144 -55 -270.5t-152.5 -220.5t-227.5 -146.5t-280 -52.5q-199 0 -361.5 92t-253.5 254.5t-91 363.5zM274 705q0 -136 40.5 -255t111 -206.5t169 -137t208.5 -49.5 q143 0 260.5 77t183.5 212.5t66 302.5q0 141 -39 262.5t-110 209.5t-166.5 137t-209.5 49q-146 0 -264.5 -77.5t-184 -215.5t-65.5 -309zM514 1477l201 247h157l199 -247l-47 -35l-231 172l-234 -172z" />
<glyph unicode="&#xd5;" horiz-adv-x="1585" d="M82 690q0 144 54.5 273t152.5 224t230.5 147t281.5 52q201 0 361.5 -92t250.5 -256.5t90 -367.5q0 -144 -55 -270.5t-152.5 -220.5t-227.5 -146.5t-280 -52.5q-199 0 -361.5 92t-253.5 254.5t-91 363.5zM274 705q0 -136 40.5 -255t111 -206.5t169 -137t208.5 -49.5 q143 0 260.5 77t183.5 212.5t66 302.5q0 141 -39 262.5t-110 209.5t-166.5 137t-209.5 49q-146 0 -264.5 -77.5t-184 -215.5t-65.5 -309zM524 1487q15 109 31 141q14 27 44 44.5t67 17.5q29 0 145 -43q100 -39 133 -39q49 0 70 80h47q-6 -95 -42 -150t-91 -55q-24 0 -152 45 q-100 37 -135 37q-53 0 -66 -78h-51z" />
<glyph unicode="&#xd6;" horiz-adv-x="1585" d="M82 690q0 144 54.5 273t152.5 224t230.5 147t281.5 52q201 0 361.5 -92t250.5 -256.5t90 -367.5q0 -144 -55 -270.5t-152.5 -220.5t-227.5 -146.5t-280 -52.5q-199 0 -361.5 92t-253.5 254.5t-91 363.5zM274 705q0 -136 40.5 -255t111 -206.5t169 -137t208.5 -49.5 q143 0 260.5 77t183.5 212.5t66 302.5q0 141 -39 262.5t-110 209.5t-166.5 137t-209.5 49q-146 0 -264.5 -77.5t-184 -215.5t-65.5 -309zM473 1604q0 44 32 75t77 31q44 0 75 -31t31 -75q0 -45 -31 -77t-75 -32q-45 0 -77 32t-32 77zM899 1604q0 44 32 75t77 31q44 0 75 -31 t31 -75q0 -45 -31 -77t-75 -32q-45 0 -77 32t-32 77z" />
<glyph unicode="&#xd7;" d="M125 375l326 325l-324 322l61 63l324 -323l324 325l65 -65l-326 -324l324 -323l-61 -62l-324 324l-326 -326z" />
<glyph unicode="&#xd8;" horiz-adv-x="1583" d="M82 690q0 194 93.5 354t257.5 251t364 91q109 0 186.5 -20t173.5 -72l98 140l68 -50l-96 -137q87 -66 149 -155.5t93.5 -196.5t31.5 -221q0 -193 -93 -353t-256 -250.5t-361 -90.5q-68 0 -131.5 9.5t-124 31.5t-107.5 49l-109 -158l-69 45l106 160q-274 228 -274 573z M276 700q0 -275 162 -469l647 967q-58 52 -135 79.5t-164 27.5q-112 0 -206 -44.5t-162 -125t-105 -191.5t-37 -244zM502 168q56 -52 136 -81.5t165 -29.5q108 0 203.5 44t163.5 124t105.5 186t37.5 232q0 143 -43.5 273t-120.5 219z" />
<glyph unicode="&#xd9;" horiz-adv-x="1491" d="M66 1296v70q99 -10 219 -10q135 0 264 10v-70q-79 -3 -110 -17.5t-40.5 -56t-9.5 -149.5v-448q0 -91 4.5 -168.5t15 -127t27.5 -85.5q88 -181 336 -181q281 0 365 205q25 66 35 157t10 263v223q-3 178 -3 181.5t-1 15.5q-4 115 -31.5 152.5t-108.5 37.5q-8 0 -16 -2v70 q81 -10 195 -10q110 0 204 10v-70q-55 -2 -79 -13.5t-37 -45.5q-15 -29 -21 -113q0 -45 -2 -123l-2 -45v-45v-260q0 -110 -8.5 -203t-25.5 -156t-44 -110q-126 -213 -450 -213q-184 0 -307 59t-179 173q-22 50 -34.5 135t-12.5 184v496q0 129 -9.5 185.5t-39.5 74.5t-104 20 zM537 1708q0 16 20 16h31h155l209 -249l-51 -35l-321 227q-9 6 -15.5 10t-9.5 6q-18 14 -18 25z" />
<glyph unicode="&#xda;" horiz-adv-x="1491" d="M66 1296v70q99 -10 219 -10q135 0 264 10v-70q-79 -3 -110 -17.5t-40.5 -56t-9.5 -149.5v-448q0 -91 4.5 -168.5t15 -127t27.5 -85.5q88 -181 336 -181q281 0 365 205q25 66 35 157t10 263v223q-3 178 -3 181.5t-1 15.5q-4 115 -31.5 152.5t-108.5 37.5q-8 0 -16 -2v70 q81 -10 195 -10q110 0 204 10v-70q-55 -2 -79 -13.5t-37 -45.5q-15 -29 -21 -113q0 -45 -2 -123l-2 -45v-45v-260q0 -110 -8.5 -203t-25.5 -156t-44 -110q-126 -213 -450 -213q-184 0 -307 59t-179 173q-22 50 -34.5 135t-12.5 184v496q0 129 -9.5 185.5t-39.5 74.5t-104 20 zM539 1487l204 233h177q32 0 32 -16q0 -9 -14.5 -21t-44.5 -30l-315 -209z" />
<glyph unicode="&#xdb;" horiz-adv-x="1491" d="M66 1296v70q99 -10 219 -10q135 0 264 10v-70q-79 -3 -110 -17.5t-40.5 -56t-9.5 -149.5v-448q0 -91 4.5 -168.5t15 -127t27.5 -85.5q88 -181 336 -181q281 0 365 205q25 66 35 157t10 263v223q-3 178 -3 181.5t-1 15.5q-4 115 -31.5 152.5t-108.5 37.5q-8 0 -16 -2v70 q81 -10 195 -10q110 0 204 10v-70q-55 -2 -79 -13.5t-37 -45.5q-15 -29 -21 -113q0 -45 -2 -123l-2 -45v-45v-260q0 -110 -8.5 -203t-25.5 -156t-44 -110q-126 -213 -450 -213q-184 0 -307 59t-179 173q-22 50 -34.5 135t-12.5 184v496q0 129 -9.5 185.5t-39.5 74.5t-104 20 zM467 1477l201 247h157l199 -247l-47 -35l-232 172l-233 -172z" />
<glyph unicode="&#xdc;" horiz-adv-x="1491" d="M66 1296v70q99 -10 219 -10q135 0 264 10v-70q-79 -3 -110 -17.5t-40.5 -56t-9.5 -149.5v-448q0 -91 4.5 -168.5t15 -127t27.5 -85.5q88 -181 336 -181q281 0 365 205q25 66 35 157t10 263v223q-3 178 -3 181.5t-1 15.5q-4 115 -31.5 152.5t-108.5 37.5q-8 0 -16 -2v70 q81 -10 195 -10q110 0 204 10v-70q-55 -2 -79 -13.5t-37 -45.5q-15 -29 -21 -113q0 -45 -2 -123l-2 -45v-45v-260q0 -110 -8.5 -203t-25.5 -156t-44 -110q-126 -213 -450 -213q-184 0 -307 59t-179 173q-22 50 -34.5 135t-12.5 184v496q0 129 -9.5 185.5t-39.5 74.5t-104 20 zM426 1604q0 44 32 75t77 31q44 0 75 -31t31 -75q0 -45 -31 -77t-75 -32q-45 0 -77 32t-32 77zM852 1604q0 44 32 75t77 31q44 0 75 -31t31 -75q0 -45 -31 -77t-75 -32q-45 0 -77 32t-32 77z" />
<glyph unicode="&#xdd;" horiz-adv-x="1100" d="M-61 1303v63q44 -4 110.5 -7t114.5 -3q44 0 123 3t127 7v-63q-61 -6 -85 -18.5t-24 -43.5q0 -23 12.5 -54t47.5 -93l225 -414l196 369q6 7 20.5 36.5t35.5 71.5q22 48 22 78q0 36 -24.5 52t-81.5 16v63q102 -10 200 -10q35 0 102 3t107 7v-63q-68 -3 -106.5 -22.5 t-75.5 -72t-100 -172.5l-248 -475v-225q0 -107 1.5 -145.5t8 -57t21.5 -33.5q28 -28 112 -28h27v-72q-122 10 -254 10q-138 0 -256 -10v72h27q84 0 112 28q15 15 21.5 33.5t8 57t1.5 145.5v231l-315 561q-45 81 -70.5 113.5t-55 44.5t-87.5 17zM342 1487l205 233h178 q31 0 31 -16q0 -15 -58 -51l-317 -209z" />
<glyph unicode="&#xde;" horiz-adv-x="1059" d="M84 0v72h27q84 0 112 28q24 24 27 80q1 5 1 -2.5t0.5 11.5t2.5 147v655v58l-2 28q-2 123 -5.5 147t-23.5 42q-28 28 -112 28h-25v72q134 -10 254 -10q51 0 80.5 1t70 2.5t97.5 6.5v-72h-25q-58 0 -87.5 -11.5t-40.5 -43.5t-13 -98q113 8 190 8q119 0 188.5 -23t121.5 -79 q90 -101 90 -256q0 -125 -60 -220.5t-169 -148.5t-248 -53v67q146 8 227.5 92.5t81.5 227.5q0 101 -38.5 171t-114 104t-189.5 34h-78v-729q4 -174 8 -195q15 -69 135 -69h29v-72q-136 10 -248 10q-128 0 -264 -10z" />
<glyph unicode="&#xdf;" horiz-adv-x="1057" d="M80 0v68h24q44 0 66 5.5t32.5 23.5t13.5 52.5t3 118.5v68v434h-119l19 61q42 6 59.5 13.5t28.5 23.5q16 25 26 74l5 33l6 33l6 30q20 118 81.5 209.5t154 143t196.5 51.5q80 0 143.5 -33t99.5 -92t36 -131q0 -111 -62 -203q-22 -33 -35.5 -48t-83.5 -83 q-57 -57 -78.5 -86.5t-21.5 -56.5q0 -33 19 -57.5t110 -102.5q118 -100 159.5 -159.5t41.5 -131.5q0 -74 -35 -136.5t-96 -98t-136 -35.5q-52 0 -102.5 20.5t-80.5 54t-30 72.5q0 33 22.5 56.5t53.5 23.5t47.5 -16.5t32.5 -63.5q23 -74 92 -74q51 0 82 33t31 86 q0 43 -28.5 83.5t-106.5 105.5q-121 100 -163 152.5t-42 103.5q0 45 28.5 89t108.5 126q84 88 113.5 144t29.5 128q0 69 -27.5 127t-75.5 90.5t-105 32.5q-96 0 -157.5 -67.5t-82.5 -192.5q-11 -62 -16 -150.5t-5 -249.5v-366v-68q0 -70 3 -110t14 -59.5t32.5 -25t65.5 -5.5 h17v-68q-107 10 -199 10q-97 0 -215 -10z" />
<glyph unicode="&#xe0;" horiz-adv-x="850" d="M82 174q0 51 19 84t63.5 60t144.5 65l219 80q0 158 -12 205q-14 47 -43.5 73.5t-69.5 26.5q-32 0 -78 -19.5t-75 -48.5q-14 -14 -16.5 -24.5t-6.5 -46.5q-3 -22 -33 -38.5t-69 -17.5q-19 0 -19 19q0 70 62 117q6 6 18 14q117 77 148 96.5t84 46.5q11 1 19.5 1.5t17.5 0.5 q113 0 166 -73t53 -230q0 -24 -4 -180q-2 -61 -2 -139q0 -98 12.5 -136t48.5 -38q18 0 51 22q10 5 17 12l24 -40q-101 -80 -184 -80q-50 0 -74.5 28t-32.5 99q-123 -136 -256 -136q-86 0 -139 55t-53 142zM238 195q0 -48 33.5 -82.5t80.5 -34.5q43 0 82 21.5t94 76.5v72v155 l-98 -36q-77 -30 -117.5 -54.5t-57.5 -52t-17 -65.5zM270 1339q0 10 7 12.5t40 2.5h121l144 -350l-43 -21l-252 330q-17 19 -17 26z" />
<glyph unicode="&#xe1;" horiz-adv-x="850" d="M82 174q0 51 19 84t63.5 60t144.5 65l219 80q0 158 -12 205q-14 47 -43.5 73.5t-69.5 26.5q-32 0 -78 -19.5t-75 -48.5q-14 -14 -16.5 -24.5t-6.5 -46.5q-3 -22 -33 -38.5t-69 -17.5q-19 0 -19 19q0 70 62 117q6 6 18 14q117 77 148 96.5t84 46.5q11 1 19.5 1.5t17.5 0.5 q113 0 166 -73t53 -230q0 -24 -4 -180q-2 -61 -2 -139q0 -98 12.5 -136t48.5 -38q18 0 51 22q10 5 17 12l24 -40q-101 -80 -184 -80q-50 0 -74.5 28t-32.5 99q-123 -136 -256 -136q-86 0 -139 55t-53 142zM238 195q0 -48 33.5 -82.5t80.5 -34.5q43 0 82 21.5t94 76.5v72v155 l-98 -36q-77 -30 -117.5 -54.5t-57.5 -52t-17 -65.5zM272 1004l140 350h137q18 0 23.5 -3t5.5 -12q0 -8 -21 -36l-238 -320z" />
<glyph unicode="&#xe2;" horiz-adv-x="850" d="M82 174q0 51 19 84t63.5 60t144.5 65l219 80q0 158 -12 205q-14 47 -43.5 73.5t-69.5 26.5q-32 0 -78 -19.5t-75 -48.5q-14 -14 -16.5 -24.5t-6.5 -46.5q-3 -22 -33 -38.5t-69 -17.5q-19 0 -19 19q0 70 62 117q6 6 18 14q117 77 148 96.5t84 46.5q11 1 19.5 1.5t17.5 0.5 q113 0 166 -73t53 -230q0 -24 -4 -180q-2 -61 -2 -139q0 -98 12.5 -136t48.5 -38q18 0 51 22q10 5 17 12l24 -40q-101 -80 -184 -80q-50 0 -74.5 28t-32.5 99q-123 -136 -256 -136q-86 0 -139 55t-53 142zM199 999l172 367h104l176 -367l-37 -22l-194 235l-187 -235z M238 195q0 -48 33.5 -82.5t80.5 -34.5q43 0 82 21.5t94 76.5v72v155l-98 -36q-77 -30 -117.5 -54.5t-57.5 -52t-17 -65.5z" />
<glyph unicode="&#xe3;" horiz-adv-x="850" d="M82 174q0 51 19 84t63.5 60t144.5 65l219 80q0 158 -12 205q-14 47 -43.5 73.5t-69.5 26.5q-32 0 -78 -19.5t-75 -48.5q-14 -14 -16.5 -24.5t-6.5 -46.5q-3 -22 -33 -38.5t-69 -17.5q-19 0 -19 19q0 70 62 117q6 6 18 14q117 77 148 96.5t84 46.5q11 1 19.5 1.5t17.5 0.5 q113 0 166 -73t53 -230q0 -24 -4 -180q-2 -61 -2 -139q0 -98 12.5 -136t48.5 -38q18 0 51 22q10 5 17 12l24 -40q-101 -80 -184 -80q-50 0 -74.5 28t-32.5 99q-123 -136 -256 -136q-86 0 -139 55t-53 142zM158 1059q6 107 39 157t100 50q35 0 164 -49q80 -31 117 -31 q52 0 67 78h47q-5 -93 -40 -148t-91 -55q-15 0 -20 1t-21.5 6.5l-64.5 21.5q-21 7 -60 18l-26 8l-29 10q-39 13 -66 13q-53 0 -65 -80h-51zM238 195q0 -48 33.5 -82.5t80.5 -34.5q43 0 82 21.5t94 76.5v72v155l-98 -36q-77 -30 -117.5 -54.5t-57.5 -52t-17 -65.5z" />
<glyph unicode="&#xe4;" horiz-adv-x="850" d="M82 174q0 51 19 84t63.5 60t144.5 65l219 80q0 158 -12 205q-14 47 -43.5 73.5t-69.5 26.5q-32 0 -78 -19.5t-75 -48.5q-14 -14 -16.5 -24.5t-6.5 -46.5q-3 -22 -33 -38.5t-69 -17.5q-19 0 -19 19q0 70 62 117q6 6 18 14q117 77 148 96.5t84 46.5q11 1 19.5 1.5t17.5 0.5 q113 0 166 -73t53 -230q0 -24 -4 -180q-2 -61 -2 -139q0 -98 12.5 -136t48.5 -38q18 0 51 22q10 5 17 12l24 -40q-101 -80 -184 -80q-50 0 -74.5 28t-32.5 99q-123 -136 -256 -136q-86 0 -139 55t-53 142zM156 1163q0 42 28.5 70.5t69.5 28.5t69.5 -28.5t28.5 -70.5 q0 -40 -29 -69t-69 -29t-69 29t-29 69zM238 195q0 -48 33.5 -82.5t80.5 -34.5q43 0 82 21.5t94 76.5v72v155l-98 -36q-77 -30 -117.5 -54.5t-57.5 -52t-17 -65.5zM498 1163q0 42 28.5 70.5t69.5 28.5t69.5 -28.5t28.5 -70.5q0 -40 -29 -69t-69 -29t-69 29t-29 69z" />
<glyph unicode="&#xe5;" horiz-adv-x="850" d="M82 174q0 51 19 84t63.5 60t144.5 65l219 80q0 158 -12 205q-14 47 -43.5 73.5t-69.5 26.5q-32 0 -78 -19.5t-75 -48.5q-14 -14 -16.5 -24.5t-6.5 -46.5q-3 -22 -33 -38.5t-69 -17.5q-19 0 -19 19q0 70 62 117q6 6 18 14q117 77 148 96.5t84 46.5q11 1 19.5 1.5t17.5 0.5 q113 0 166 -73t53 -230q0 -24 -4 -180q-2 -61 -2 -139q0 -98 12.5 -136t48.5 -38q18 0 51 22q10 5 17 12l24 -40q-101 -80 -184 -80q-50 0 -74.5 28t-32.5 99q-123 -136 -256 -136q-86 0 -139 55t-53 142zM238 195q0 -48 33.5 -82.5t80.5 -34.5q43 0 82 21.5t94 76.5v72v155 l-98 -36q-77 -30 -117.5 -54.5t-57.5 -52t-17 -65.5zM266 1159q0 66 47 113t113 47t113 -47t47 -113t-47 -113t-113 -47t-113 47t-47 113zM332 1159q0 -39 27.5 -66.5t66.5 -27.5t65.5 27.5t26.5 66.5t-26.5 66.5t-65.5 27.5t-66.5 -27.5t-27.5 -66.5z" />
<glyph unicode="&#xe6;" horiz-adv-x="1184" d="M70 172q0 50 19.5 83t71.5 63t156 73l160 66q4 53 4 149q0 97 -28.5 141t-92.5 44q-58 0 -93 -31.5t-36 -85.5q0 -18 -14 -29l-18 -6q-71 -21 -74 -21q-16 0 -16 19q0 56 24.5 90.5t94 67.5t206.5 77q76 -10 114 -39t68 -98q63 69 127 102t138 33q55 0 107 -24t84 -63.5 t32 -82.5q0 -40 -24.5 -59.5t-121.5 -58.5l-346 -142q5 -168 82 -263t211 -95q102 0 203 82l35 -37q-61 -65 -147.5 -103t-178.5 -38q-198 0 -293 164q-129 -164 -270 -164q-80 0 -132 52t-52 134zM217 197q0 -50 29 -81.5t78 -31.5q43 0 87.5 28t94.5 85q-15 49 -19 76 t-12 120l-102 -41q-84 -33 -120 -69t-36 -86zM612 506l273 112q5 4 18 7q36 14 51 28t15 37q0 41 -37 72t-86 31q-65 0 -117.5 -36.5t-83 -102.5t-33.5 -148z" />
<glyph unicode="&#xe7;" horiz-adv-x="815" d="M76 406q0 201 122 328.5t314 127.5q63 0 125 -19t101.5 -48t39.5 -60q0 -23 -25 -46t-48 -23q-19 0 -26 4.5t-34 40.5q-60 86 -153 86q-74 0 -135 -41t-94.5 -114.5t-33.5 -166.5q0 -109 39.5 -197t111 -137t159.5 -49q57 0 108 20.5t109 69.5l32 -39 q-103 -134 -266 -157l-71 -68q6 2 16 2q62 0 100.5 -35t38.5 -92q0 -75 -68 -124.5t-169 -49.5q-51 0 -81 16t-30 41q0 37 41 37q17 0 51 -22q27 -17 49 -17q37 0 60.5 23.5t23.5 62.5q0 34 -24.5 56t-63.5 22q-30 0 -76 -16l-18 39l162 123q-69 6 -119.5 21t-99.5 48 q-42 30 -70.5 64.5t-52.5 85t-34.5 99.5t-10.5 104z" />
<glyph unicode="&#xe8;" horiz-adv-x="791" d="M76 410q0 128 51.5 233.5t143 166t202.5 60.5q118 0 194 -71t76 -181q0 -53 -16.5 -70.5t-69.5 -17.5h-442q-6 -33 -6 -63q0 -104 40.5 -185.5t112 -127t162.5 -45.5q55 0 96 13t101 52l29 -43q-63 -69 -143 -107t-165 -38q-103 0 -186.5 55t-131.5 152.5t-48 216.5z M229 600h295h29q51 0 51 51q0 62 -42.5 103t-106.5 41q-81 0 -136.5 -48.5t-89.5 -146.5zM242 1339q0 10 7 12.5t40 2.5h121l143 -350l-43 -21l-252 330q-16 19 -16 26z" />
<glyph unicode="&#xe9;" horiz-adv-x="791" d="M76 410q0 128 51.5 233.5t143 166t202.5 60.5q118 0 194 -71t76 -181q0 -53 -16.5 -70.5t-69.5 -17.5h-442q-6 -33 -6 -63q0 -104 40.5 -185.5t112 -127t162.5 -45.5q55 0 96 13t101 52l29 -43q-63 -69 -143 -107t-165 -38q-103 0 -186.5 55t-131.5 152.5t-48 216.5z M229 600h295h29q51 0 51 51q0 62 -42.5 103t-106.5 41q-81 0 -136.5 -48.5t-89.5 -146.5zM244 1004l139 350h137q19 0 24 -2.5t5 -12.5q0 -8 -21 -36l-237 -320z" />
<glyph unicode="&#xea;" horiz-adv-x="791" d="M76 410q0 128 51.5 233.5t143 166t202.5 60.5q118 0 194 -71t76 -181q0 -53 -16.5 -70.5t-69.5 -17.5h-442q-6 -33 -6 -63q0 -104 40.5 -185.5t112 -127t162.5 -45.5q55 0 96 13t101 52l29 -43q-63 -69 -143 -107t-165 -38q-103 0 -186.5 55t-131.5 152.5t-48 216.5z M170 999l172 367h104l177 -367l-37 -22l-195 235l-186 -235zM229 600h295h29q51 0 51 51q0 62 -42.5 103t-106.5 41q-81 0 -136.5 -48.5t-89.5 -146.5z" />
<glyph unicode="&#xeb;" horiz-adv-x="791" d="M76 410q0 128 51.5 233.5t143 166t202.5 60.5q118 0 194 -71t76 -181q0 -53 -16.5 -70.5t-69.5 -17.5h-442q-6 -33 -6 -63q0 -104 40.5 -185.5t112 -127t162.5 -45.5q55 0 96 13t101 52l29 -43q-63 -69 -143 -107t-165 -38q-103 0 -186.5 55t-131.5 152.5t-48 216.5z M127 1163q0 42 28.5 70.5t69.5 28.5q27 0 50 -13t36 -36t13 -50q0 -41 -28.5 -69.5t-70.5 -28.5q-40 0 -69 29t-29 69zM229 600h295h29q51 0 51 51q0 62 -42.5 103t-106.5 41q-81 0 -136.5 -48.5t-89.5 -146.5zM469 1163q0 42 28.5 70.5t69.5 28.5q27 0 50 -13t36 -36 t13 -50q0 -41 -28.5 -69.5t-70.5 -28.5q-40 0 -69 29t-29 69z" />
<glyph unicode="&#xec;" horiz-adv-x="565" d="M82 0v68h22q44 0 66 5.5t32.5 23.5t13.5 52.5t3 118.5v68v123q-2 141 -2 157q-4 69 -25.5 89t-93.5 20v53q83 23 129 43t119 66l37 -19q-9 -64 -13.5 -113t-4.5 -116l2 -180v-123v-68q0 -98 6 -138t28 -51t80 -11h11v-68q-100 10 -199 10q-91 0 -211 -10zM127 1339 q0 10 7 12.5t40 2.5h121l143 -350l-43 -21l-252 330q-16 19 -16 26z" />
<glyph unicode="&#xed;" horiz-adv-x="565" d="M82 0v68h22q44 0 66 5.5t32.5 23.5t13.5 52.5t3 118.5v68v123q-2 141 -2 157q-4 69 -25.5 89t-93.5 20v53q83 23 129 43t119 66l37 -19q-9 -64 -13.5 -113t-4.5 -116l2 -180v-123v-68q0 -98 6 -138t28 -51t80 -11h11v-68q-100 10 -199 10q-91 0 -211 -10zM129 1004 l139 350h138q18 0 23 -2.5t5 -12.5q0 -8 -20 -36l-238 -320z" />
<glyph unicode="&#xee;" horiz-adv-x="565" d="M55 999l172 367h105l176 -367l-37 -22l-195 235l-186 -235zM82 0v68h22q44 0 66 5.5t32.5 23.5t13.5 52.5t3 118.5v68v123q-2 141 -2 157q-4 69 -25.5 89t-93.5 20v53q83 23 129 43t119 66l37 -19q-9 -64 -13.5 -113t-4.5 -116l2 -180v-123v-68q0 -98 6 -138t28 -51 t80 -11h11v-68q-100 10 -199 10q-91 0 -211 -10z" />
<glyph unicode="&#xef;" horiz-adv-x="565" d="M29 1163q0 42 28.5 70.5t69.5 28.5t69.5 -28.5t28.5 -70.5q0 -40 -29 -69t-69 -29t-69 29t-29 69zM84 0v68h22q44 0 66 5.5t32.5 23.5t13.5 52.5t3 118.5v68v123q-2 141 -2 157q-4 69 -25.5 89t-93.5 20v53q83 23 129 43t119 66l37 -19q-9 -64 -13.5 -113t-4.5 -116 l2 -180v-123v-68q0 -98 6 -138t28 -51t80 -11h11v-68q-100 10 -199 10q-91 0 -211 -10zM342 1163q0 42 28.5 70.5t69.5 28.5q27 0 50 -13t36 -36t13 -50q0 -41 -28.5 -69.5t-70.5 -28.5q-40 0 -69 29t-29 69z" />
<glyph unicode="&#xf0;" horiz-adv-x="1038" d="M68 1405l22 51q113 -28 202 -64.5t163 -82.5l209 159l47 -63l-183 -139q106 -75 172 -144t119 -161q45 -76 78.5 -162.5t50.5 -175.5t17 -170q0 -104 -32 -189.5t-93 -148t-145 -96t-183 -33.5q-121 0 -222 57.5t-157.5 158.5t-56.5 222q0 126 61.5 229.5t167 163.5 t232.5 60q73 0 165 -31q-51 108 -113 187t-157 157l-221 -174l-51 63l207 162q-70 55 -140.5 94t-158.5 70zM240 463q0 -114 38 -206t105 -145t147 -53q84 0 146.5 44t96.5 123.5t34 183.5q0 109 -38 198t-105.5 141t-147.5 52q-63 0 -113.5 -23t-87.5 -68t-56 -109 t-19 -138z" />
<glyph unicode="&#xf1;" horiz-adv-x="1110" d="M82 0v68h22q44 0 66 5.5t32.5 23.5t13.5 52.5t3 118.5v68v131q-2 141 -2 149q-4 67 -25.5 87t-87.5 20v53q134 49 234 111l39 -19q-10 -73 -12 -141q81 56 133.5 86t93 43.5t76.5 13.5q127 0 192 -75q38 -41 52 -97.5t14 -165.5v-104v-92v-68q0 -98 6 -138t28 -51t80 -11 h4v-68q-145 10 -202 10q-55 0 -201 -10v68h23q44 0 66 5.5t32.5 23.5t13 52.5t2.5 118.5v68v92q0 110 -2.5 153t-9.5 67.5t-25 49.5q-46 66 -137 66q-60 0 -113 -24.5t-126 -86.5v-317v-68q0 -98 6 -138t28 -51t80 -11h17v-68q-141 10 -209 10q-90 0 -205 -10zM289 1059 q6 107 39 157t100 50q35 0 164 -49q80 -31 117 -31q52 0 67 78h47q-5 -93 -40 -148t-91 -55q-14 0 -20 1t-24 7.5t-62 20.5q-21 7 -60 18l-26 8l-29 10q-39 13 -65 13q-54 0 -66 -80h-51z" />
<glyph unicode="&#xf2;" horiz-adv-x="1040" d="M76 434q0 123 60.5 225t164.5 161t231 59q95 0 175 -33t138 -94t90 -145t32 -183q0 -91 -35 -171.5t-96 -140t-143.5 -93t-176.5 -33.5q-129 0 -229 56.5t-155.5 159t-55.5 232.5zM240 465q0 -173 83.5 -289.5t206.5 -116.5q61 0 112.5 24t89 71t56.5 111.5t19 142.5 q0 111 -38.5 201.5t-106.5 142t-150 51.5q-81 0 -142.5 -42.5t-95.5 -119.5t-34 -176zM367 1339q0 10 7 12.5t40 2.5h121l143 -350l-43 -21l-252 330q-16 19 -16 26z" />
<glyph unicode="&#xf3;" horiz-adv-x="1040" d="M76 434q0 123 60.5 225t164.5 161t231 59q95 0 175 -33t138 -94t90 -145t32 -183q0 -91 -35 -171.5t-96 -140t-143.5 -93t-176.5 -33.5q-129 0 -229 56.5t-155.5 159t-55.5 232.5zM240 465q0 -173 83.5 -289.5t206.5 -116.5q61 0 112.5 24t89 71t56.5 111.5t19 142.5 q0 111 -38.5 201.5t-106.5 142t-150 51.5q-81 0 -142.5 -42.5t-95.5 -119.5t-34 -176zM369 1004l139 350h137q19 0 24 -2.5t5 -12.5q0 -8 -21 -36l-237 -320z" />
<glyph unicode="&#xf4;" horiz-adv-x="1040" d="M76 434q0 123 60.5 225t164.5 161t231 59q95 0 175 -33t138 -94t90 -145t32 -183q0 -91 -35 -171.5t-96 -140t-143.5 -93t-176.5 -33.5q-129 0 -229 56.5t-155.5 159t-55.5 232.5zM240 465q0 -173 83.5 -289.5t206.5 -116.5q61 0 112.5 24t89 71t56.5 111.5t19 142.5 q0 111 -38.5 201.5t-106.5 142t-150 51.5q-81 0 -142.5 -42.5t-95.5 -119.5t-34 -176zM295 999l172 367h104l177 -367l-37 -22l-195 235l-186 -235z" />
<glyph unicode="&#xf5;" horiz-adv-x="1040" d="M76 434q0 123 60.5 225t164.5 161t231 59q95 0 175 -33t138 -94t90 -145t32 -183q0 -91 -35 -171.5t-96 -140t-143.5 -93t-176.5 -33.5q-129 0 -229 56.5t-155.5 159t-55.5 232.5zM240 465q0 -173 83.5 -289.5t206.5 -116.5q61 0 112.5 24t89 71t56.5 111.5t19 142.5 q0 111 -38.5 201.5t-106.5 142t-150 51.5q-81 0 -142.5 -42.5t-95.5 -119.5t-34 -176zM254 1059q6 107 39 157t100 50q35 0 164 -49q80 -31 117 -31q52 0 67 78h47q-5 -93 -40 -148t-91 -55q-14 0 -20 1t-24 7.5t-62 20.5q-21 7 -59 18l-27 8l-29 10q-38 13 -65 13 q-54 0 -66 -80h-51z" />
<glyph unicode="&#xf6;" horiz-adv-x="1040" d="M76 434q0 123 60.5 225t164.5 161t231 59q95 0 175 -33t138 -94t90 -145t32 -183q0 -91 -35 -171.5t-96 -140t-143.5 -93t-176.5 -33.5q-129 0 -229 56.5t-155.5 159t-55.5 232.5zM240 465q0 -173 83.5 -289.5t206.5 -116.5q61 0 112.5 24t89 71t56.5 111.5t19 142.5 q0 111 -38.5 201.5t-106.5 142t-150 51.5q-81 0 -142.5 -42.5t-95.5 -119.5t-34 -176zM252 1163q0 42 28.5 70.5t69.5 28.5q27 0 50 -13t36 -36t13 -50q0 -41 -28.5 -69.5t-70.5 -28.5q-40 0 -69 29t-29 69zM594 1163q0 42 28.5 70.5t69.5 28.5q27 0 50 -13t36 -36t13 -50 q0 -41 -28.5 -69.5t-70.5 -28.5q-40 0 -69 29t-29 69z" />
<glyph unicode="&#xf7;" horiz-adv-x="1124" d="M20 477v113h1078v-113h-1078zM432 119q0 52 36.5 89.5t90.5 37.5t90.5 -37.5t36.5 -89.5q0 -35 -17 -64t-46 -46t-64 -17t-64 17t-46 46t-17 64zM432 936q0 35 17 64t46 46t64 17t64 -17t46 -46t17 -64t-17 -64t-46 -46t-64 -17t-64 17t-46 46t-17 64z" />
<glyph unicode="&#xf8;" horiz-adv-x="1036" d="M76 428q0 94 35 177.5t96 143.5t142 94t177 34q67 0 112.5 -11.5t115.5 -48.5l75 117l64 -37l-78 -121q71 -65 109.5 -155.5t38.5 -196.5q0 -124 -59 -224.5t-163.5 -157t-230.5 -56.5q-100 0 -188 39l-84 -123l-60 37l80 120q-92 74 -137 166t-45 203zM240 475 q0 -90 24.5 -174t67.5 -137l356 557q-72 78 -184 78q-115 0 -189.5 -92t-74.5 -232zM381 113q57 -54 149 -54q63 0 114 23t87.5 69t55 108t18.5 136q0 150 -72 273z" />
<glyph unicode="&#xf9;" horiz-adv-x="1067" d="M63 784v66q33 -2 76 -2q116 0 199 16q-8 -209 -8 -329v-78q0 -126 3.5 -173.5t14.5 -78.5q17 -49 57 -76t93 -27q57 0 106 21t119 72v323v35q1 26 1.5 45t0.5 27q0 77 -8 107.5t-32 40t-83 11.5v66q54 -4 64 -4q60 0 113 5t100 13q-5 -87 -6 -106.5t-2 -64t-2 -77.5 t-1 -98v-80q0 -72 4 -268q0 -36 9.5 -54t34.5 -25.5t73 -10.5v-60q-88 -6 -141 -16.5t-117 -30.5l-24 27q16 75 16 117v14q-73 -73 -154.5 -112t-154.5 -39q-55 0 -108.5 30.5t-80.5 77.5q-23 41 -32 87t-9 136v146v78v30q1 23 1.5 40t0.5 24q0 75 -8 104.5t-32 39t-83 11.5 zM379 1339q0 10 7 12.5t40 2.5h121l143 -350l-43 -21l-252 330q-16 19 -16 26z" />
<glyph unicode="&#xfa;" horiz-adv-x="1067" d="M63 784v66q33 -2 76 -2q116 0 199 16q-8 -209 -8 -329v-78q0 -126 3.5 -173.5t14.5 -78.5q17 -49 57 -76t93 -27q57 0 106 21t119 72v323v35q1 26 1.5 45t0.5 27q0 77 -8 107.5t-32 40t-83 11.5v66q54 -4 64 -4q60 0 113 5t100 13q-5 -87 -6 -106.5t-2 -64t-2 -77.5 t-1 -98v-80q0 -72 4 -268q0 -36 9.5 -54t34.5 -25.5t73 -10.5v-60q-88 -6 -141 -16.5t-117 -30.5l-24 27q16 75 16 117v14q-73 -73 -154.5 -112t-154.5 -39q-55 0 -108.5 30.5t-80.5 77.5q-23 41 -32 87t-9 136v146v78v30q1 23 1.5 40t0.5 24q0 75 -8 104.5t-32 39t-83 11.5 zM381 1004l139 350h137q19 0 24 -2.5t5 -12.5q0 -8 -20 -36l-238 -320z" />
<glyph unicode="&#xfb;" horiz-adv-x="1067" d="M63 784v66q33 -2 76 -2q116 0 199 16q-8 -209 -8 -329v-78q0 -126 3.5 -173.5t14.5 -78.5q17 -49 57 -76t93 -27q57 0 106 21t119 72v323v35q1 26 1.5 45t0.5 27q0 77 -8 107.5t-32 40t-83 11.5v66q54 -4 64 -4q60 0 113 5t100 13q-5 -87 -6 -106.5t-2 -64t-2 -77.5 t-1 -98v-80q0 -72 4 -268q0 -36 9.5 -54t34.5 -25.5t73 -10.5v-60q-88 -6 -141 -16.5t-117 -30.5l-24 27q16 75 16 117v14q-73 -73 -154.5 -112t-154.5 -39q-55 0 -108.5 30.5t-80.5 77.5q-23 41 -32 87t-9 136v146v78v30q1 23 1.5 40t0.5 24q0 75 -8 104.5t-32 39t-83 11.5 zM307 999l172 367h105l176 -367l-37 -22l-195 235l-186 -235z" />
<glyph unicode="&#xfc;" horiz-adv-x="1067" d="M63 784v66q33 -2 76 -2q116 0 199 16q-8 -209 -8 -329v-78q0 -126 3.5 -173.5t14.5 -78.5q17 -49 57 -76t93 -27q57 0 106 21t119 72v323v35q1 26 1.5 45t0.5 27q0 77 -8 107.5t-32 40t-83 11.5v66q54 -4 64 -4q60 0 113 5t100 13q-5 -87 -6 -106.5t-2 -64t-2 -77.5 t-1 -98v-80q0 -72 4 -268q0 -36 9.5 -54t34.5 -25.5t73 -10.5v-60q-88 -6 -141 -16.5t-117 -30.5l-24 27q16 75 16 117v14q-73 -73 -154.5 -112t-154.5 -39q-55 0 -108.5 30.5t-80.5 77.5q-23 41 -32 87t-9 136v146v78v30q1 23 1.5 40t0.5 24q0 75 -8 104.5t-32 39t-83 11.5 zM264 1163q0 42 28.5 70.5t69.5 28.5q27 0 50 -13t36 -36t13 -50q0 -41 -28.5 -69.5t-70.5 -28.5q-40 0 -69 29t-29 69zM606 1163q0 42 28.5 70.5t70.5 28.5q41 0 69.5 -28.5t28.5 -70.5q0 -40 -29 -69t-69 -29q-41 0 -70 29t-29 69z" />
<glyph unicode="&#xfd;" horiz-adv-x="885" d="M-6 791v65q95 -10 188 -10q88 0 203 10v-65q-7 0 -13.5 -1t-11.5 -2q-44 -3 -60.5 -14t-16.5 -35q0 -35 34 -121l160 -417l111 291l12 30q41 104 51.5 138.5t10.5 68.5q0 33 -23.5 47t-81.5 15v65q146 -10 182 -10q71 0 174 10v-65q-87 -9 -122 -48q-25 -28 -42 -65 t-77 -186l-185 -463q-69 -172 -123 -272t-101.5 -141.5t-104.5 -41.5q-35 0 -60.5 24t-25.5 56q0 78 112 90q48 4 79 26t59 71.5t79 168.5l-190 494q-76 183 -94.5 222.5t-37.5 48.5t-85 16zM291 1004l139 350h137q19 0 24 -2.5t5 -12.5q0 -8 -21 -36l-237 -320z" />
<glyph unicode="&#xfe;" horiz-adv-x="1051" d="M55 -393h21q44 0 66 5.5t32.5 23.5t13 52.5t2.5 118.5v68v1149q-3 112 -3.5 137t-0.5 29q-3 63 -22.5 84.5t-73.5 21.5h-14v56q61 14 111 37t126 71l39 -18q-10 -90 -12 -174q-6 -111 -6 -244v-279l4 9q109 74 157 95t113 21q107 0 190.5 -53t130 -148.5t46.5 -217.5 q0 -124 -56 -232t-152 -170.5t-206 -62.5q-107 0 -223 51v-162v-68q0 -70 3 -110t14 -59.5t32.5 -25t65.5 -5.5h16v-68q-105 10 -207 10t-207 -10v68zM338 154q34 -41 92 -67t119 -26q83 0 146 43.5t97.5 121.5t34.5 180q0 101 -36 181t-101 124.5t-149 44.5 q-48 0 -104.5 -17t-98.5 -45v-540z" />
<glyph unicode="&#xff;" horiz-adv-x="885" d="M-6 791v65q95 -10 188 -10q88 0 203 10v-65q-7 0 -13.5 -1t-11.5 -2q-44 -3 -60.5 -14t-16.5 -35q0 -35 34 -121l160 -417l111 291l12 30q41 104 51.5 138.5t10.5 68.5q0 33 -23.5 47t-81.5 15v65q146 -10 182 -10q71 0 174 10v-65q-87 -9 -122 -48q-25 -28 -42 -65 t-77 -186l-185 -463q-69 -172 -123 -272t-101.5 -141.5t-104.5 -41.5q-35 0 -60.5 24t-25.5 56q0 78 112 90q48 4 79 26t59 71.5t79 168.5l-190 494q-76 183 -94.5 222.5t-37.5 48.5t-85 16zM174 1163q0 42 28.5 70.5t69.5 28.5q27 0 50 -13t36 -36t13 -50 q0 -41 -28.5 -69.5t-70.5 -28.5q-40 0 -69 29t-29 69zM516 1163q0 42 28.5 70.5t69.5 28.5q27 0 50 -13t36 -36t13 -50q0 -41 -28.5 -69.5t-70.5 -28.5q-40 0 -69 29t-29 69z" />
<glyph unicode="&#x152;" horiz-adv-x="1913" d="M82 690q0 196 95 355t261 249t367 90q94 0 211 -26h457h40q58 2 193 4q57 0 106 2q6 -149 25 -281l-70 -12q-4 20 -4 23q-16 85 -37.5 117t-74.5 51q-54 20 -226 20h-251q94 -50 168.5 -136t119 -191t49.5 -212q17 2 35 2q77 6 106 39t29 115v10h72q-2 -37 -4 -104 t-2 -100q0 -86 6 -203h-72q-5 72 -17 104t-45 44.5t-103 15.5q-3 -129 -39.5 -234.5t-108 -190.5t-184.5 -157h229q110 0 176 8t106 31t65.5 65.5t51.5 124.5l66 -18l-66 -295q-57 2 -157 4q-86 2 -144 2h-503q-113 -26 -217 -26q-155 0 -284 51t-225.5 147.5t-148 226.5 t-51.5 285zM260 692q0 -178 70.5 -324.5t196.5 -229.5t280 -83q47 0 111 13v1220q-58 12 -103 12q-124 0 -226 -43t-176.5 -125.5t-113.5 -193.5t-39 -246zM1081 125q68 32 122.5 94.5t90.5 149.5q49 115 49 297h-262v-541zM1081 743h260q-6 79 -28 151t-56 135.5 t-79.5 115.5t-96.5 82v-484z" />
<glyph unicode="&#x153;" horiz-adv-x="1487" d="M76 422q0 127 56 229.5t155 160.5t221 58q211 0 344 -180q65 89 146 134.5t171 45.5q78 0 139.5 -31.5t96.5 -88.5t35 -127q0 -58 -14 -72t-74 -14h-439q-6 -27 -6 -68q0 -78 23 -142.5t67.5 -114t102.5 -75.5t125 -26q51 0 87.5 11.5t104.5 49.5l29 -41 q-59 -68 -139 -106.5t-164 -38.5q-95 0 -172.5 45t-126.5 127q-65 -87 -153 -129.5t-206 -42.5q-185 0 -297 119t-112 317zM233 430q0 -111 32 -192.5t92 -125.5t141 -44q85 0 146.5 43t94.5 123.5t33 193.5q0 115 -32 197t-93.5 126t-146.5 44q-81 0 -141.5 -44t-93 -126 t-32.5 -195zM926 604h295q36 0 52.5 4t23 15t6.5 36q0 37 -19 68t-53 48.5t-76 17.5q-81 0 -134.5 -44t-94.5 -145z" />
<glyph unicode="&#x178;" horiz-adv-x="1100" d="M-61 1303v63q44 -4 110.5 -7t114.5 -3q44 0 123 3t127 7v-63q-61 -6 -85 -18.5t-24 -43.5q0 -23 12.5 -54t47.5 -93l225 -414l196 369q6 7 20.5 36.5t35.5 71.5q22 48 22 78q0 36 -24.5 52t-81.5 16v63q102 -10 200 -10q35 0 102 3t107 7v-63q-68 -3 -106.5 -22.5 t-75.5 -72t-100 -172.5l-248 -475v-225q0 -107 1.5 -145.5t8 -57t21.5 -33.5q28 -28 112 -28h27v-72q-122 10 -254 10q-138 0 -256 -10v72h27q84 0 112 28q15 15 21.5 33.5t8 57t1.5 145.5v231l-315 561q-45 81 -70.5 113.5t-55 44.5t-87.5 17zM229 1604q0 42 32 74t77 32 q44 0 75 -31t31 -75q0 -45 -31 -77t-75 -32q-45 0 -77 33t-32 76zM655 1604q0 42 32 74t77 32q44 0 75 -31t31 -75q0 -45 -31 -77t-75 -32q-45 0 -77 33t-32 76z" />
<glyph unicode="&#x2c6;" d="M285 999l172 367h104l176 -367l-37 -22l-194 235l-187 -235z" />
<glyph unicode="&#x2dc;" d="M246 1059q6 107 39 157t100 50q35 0 164 -49q80 -31 117 -31q52 0 67 78h47q-5 -93 -40 -148t-91 -55q-14 0 -20 1t-24 7.5t-62 20.5q-21 7 -60 18l-26 8l-29 10q-39 13 -66 13q-53 0 -65 -80h-51z" />
<glyph unicode="&#x2000;" horiz-adv-x="895" />
<glyph unicode="&#x2001;" horiz-adv-x="1790" />
<glyph unicode="&#x2002;" horiz-adv-x="895" />
<glyph unicode="&#x2003;" horiz-adv-x="1790" />
<glyph unicode="&#x2004;" horiz-adv-x="596" />
<glyph unicode="&#x2005;" horiz-adv-x="447" />
<glyph unicode="&#x2006;" horiz-adv-x="298" />
<glyph unicode="&#x2007;" horiz-adv-x="298" />
<glyph unicode="&#x2008;" horiz-adv-x="223" />
<glyph unicode="&#x2009;" horiz-adv-x="358" />
<glyph unicode="&#x200a;" horiz-adv-x="99" />
<glyph unicode="&#x2010;" horiz-adv-x="440" d="M0 383v133h440v-133h-440z" />
<glyph unicode="&#x2011;" horiz-adv-x="440" d="M0 383v133h440v-133h-440z" />
<glyph unicode="&#x2012;" horiz-adv-x="440" d="M0 383v133h440v-133h-440z" />
<glyph unicode="&#x2013;" horiz-adv-x="842" d="M68 383v129h706v-129h-706z" />
<glyph unicode="&#x2014;" horiz-adv-x="1227" d="M0 383v129h1227v-129h-1227z" />
<glyph unicode="&#x2018;" horiz-adv-x="475" d="M98 1178q0 69 31.5 132.5t81.5 100.5q38 29 79 39t116 10l-7 -59q-88 -3 -139 -45t-51 -111q0 -31 13.5 -43.5t49.5 -13.5q45 -3 74 -35t29 -78q0 -47 -35 -79.5t-86 -32.5q-69 0 -112.5 60t-43.5 155z" />
<glyph unicode="&#x2019;" horiz-adv-x="475" d="M68 963l6 59q89 3 139.5 45t50.5 111q0 32 -13 44t-50 13q-45 3 -74 35t-29 78q0 47 35 79.5t86 32.5q69 0 112.5 -60.5t43.5 -154.5q0 -67 -31 -130.5t-82 -102.5q-26 -20 -52 -30t-59.5 -14.5t-82.5 -4.5z" />
<glyph unicode="&#x201a;" horiz-adv-x="475" d="M68 -291l6 60q89 3 139.5 45t50.5 112q0 32 -13.5 44.5t-49.5 13.5q-45 3 -74 35t-29 77q0 47 35 80t86 33q69 0 112.5 -60.5t43.5 -154.5q0 -67 -31.5 -131.5t-81.5 -104.5q-26 -20 -52 -30t-59.5 -14.5t-82.5 -4.5z" />
<glyph unicode="&#x201c;" horiz-adv-x="850" d="M98 1178q0 69 31.5 132.5t81.5 100.5q38 29 79 39t116 10l-7 -59q-88 -3 -139 -45t-51 -111q0 -31 13.5 -43.5t49.5 -13.5q45 -3 74 -35t29 -78q0 -47 -35 -79.5t-86 -32.5q-69 0 -112.5 60t-43.5 155zM475 1178q0 69 31.5 132.5t81.5 100.5q38 29 78 39t116 10l-8 -59 q-87 -3 -137.5 -45t-50.5 -111q0 -31 13.5 -43.5t49.5 -13.5q45 -3 74 -35t29 -78q0 -47 -35 -79.5t-86 -32.5q-69 0 -112.5 60t-43.5 155z" />
<glyph unicode="&#x201d;" horiz-adv-x="850" d="M68 963l6 59q89 3 139.5 45t50.5 111q0 32 -13 44t-50 13q-45 3 -74 35t-29 78q0 47 35 79.5t86 32.5q69 0 112.5 -60.5t43.5 -154.5q0 -67 -31 -130.5t-82 -102.5q-26 -20 -52 -30t-59.5 -14.5t-82.5 -4.5zM444 963l7 59q89 3 139.5 45t50.5 111q0 32 -13 44t-50 13 q-45 3 -74 35t-29 78q0 48 35 80t86 32q69 0 112.5 -60.5t43.5 -154.5q0 -67 -31 -130.5t-82 -102.5q-26 -20 -52 -30t-59.5 -14.5t-83.5 -4.5z" />
<glyph unicode="&#x201e;" horiz-adv-x="850" d="M68 -291l6 60q89 3 139.5 45t50.5 112q0 32 -13.5 44.5t-49.5 13.5q-45 3 -74 35t-29 77q0 47 35 80t86 33q69 0 112.5 -60.5t43.5 -154.5q0 -67 -31.5 -131.5t-81.5 -104.5q-26 -20 -52 -30t-59.5 -14.5t-82.5 -4.5zM444 -291l7 60q89 3 139.5 45t50.5 112 q0 32 -13.5 44.5t-49.5 13.5q-45 3 -74 35t-29 77q0 48 35 80.5t86 32.5q69 0 112.5 -60.5t43.5 -154.5q0 -67 -31.5 -131.5t-81.5 -104.5q-26 -20 -52 -30t-59.5 -14.5t-83.5 -4.5z" />
<glyph unicode="&#x2022;" horiz-adv-x="1366" d="M401 694q0 57 22.5 109.5t60.5 90.5t91.5 60.5t112.5 22.5q74 0 140 -38.5t103.5 -103.5t37.5 -141q0 -75 -37.5 -140.5t-103 -104.5t-140.5 -39q-78 0 -144 38t-104.5 103.5t-38.5 142.5z" />
<glyph unicode="&#x2026;" horiz-adv-x="1341" d="M109 94q0 48 33.5 81.5t80.5 33.5q30 0 57 -15.5t42.5 -42.5t15.5 -57q0 -47 -33.5 -80.5t-81.5 -33.5q-46 0 -80 34t-34 80zM555 94q0 48 33.5 81.5t81.5 33.5q47 0 80.5 -33.5t33.5 -81.5q0 -46 -34 -80t-80 -34q-47 0 -81 34t-34 80zM1004 94q0 48 33.5 81.5 t80.5 33.5q30 0 57 -15.5t42.5 -42.5t15.5 -57q0 -47 -33.5 -80.5t-81.5 -33.5q-46 0 -80 34t-34 80z" />
<glyph unicode="&#x202f;" horiz-adv-x="358" />
<glyph unicode="&#x2039;" horiz-adv-x="481" d="M68 440v19l288 286l41 -36l-180 -263l180 -266l-41 -35z" />
<glyph unicode="&#x203a;" horiz-adv-x="481" d="M82 182l180 262l-180 267l41 34l289 -292v-19l-289 -289z" />
<glyph unicode="&#x205f;" horiz-adv-x="447" />
<glyph unicode="&#x2122;" horiz-adv-x="1911" d="M6 1200q21 53 33 90.5t27 95.5h30q21 -12 44.5 -17t63.5 -7t140 -2q199 0 264.5 4.5t114.5 21.5h35q-25 -79 -33.5 -111.5t-15.5 -74.5h-58q6 35 6 45q0 34 -14.5 43t-69.5 10h-135v-546q2 -87 6 -111.5t18.5 -31.5t57.5 -7h27v-55q-126 6 -168 6q-51 0 -166 -6v55h23 q40 0 55.5 8t19.5 35t4 107v546h-73q-62 0 -89.5 -5.5t-44.5 -24t-42 -68.5h-60zM807 545v57q54 3 71 12t22 42.5t7 129.5l13 367q2 45 2 70q0 62 -13 76t-69 14h-33v53q62 -6 106 -6q45 0 113 6l64 -137q25 -59 55 -115l188 -371l185 371q14 28 27 54.5t28 58.5 q50 104 61 139q64 -6 113 -6q68 0 106 6v-51q-14 -2 -32 -2q-53 -2 -68.5 -15t-15.5 -57v-29l14 -432q3 -112 4.5 -128t7.5 -27q12 -15 26 -18t66 -5v-57q-73 6 -165 6q-50 0 -164 -6v57q51 2 72 8.5t26.5 27t5.5 69.5v28l-6 434l-231 -469q-43 -85 -68 -147h-31l-305 610 l-4 -362l-2 -23v-24v-23q0 -43 3.5 -69.5t13.5 -38.5t30 -16.5t57 -4.5v-57q-113 6 -147 6q-32 0 -133 -6z" />
<glyph unicode="&#x25fc;" horiz-adv-x="855" d="M0 0v855h855v-855h-855z" />
</font>
</defs>
</svg>
