<?xml version="1.0" encoding="utf-8"?>
<!-- Generator: Adobe Illustrator 16.0.0, SVG Export Plug-In . SVG Version: 6.00 Build 0)  -->
<!DOCTYPE svg PUBLIC "-//W3C//DTD SVG 1.1//EN" "http://www.w3.org/Graphics/SVG/1.1/DTD/svg11.dtd">
<svg version="1.1" id="Layer_1" xmlns="http://www.w3.org/2000/svg" xmlns:xlink="http://www.w3.org/1999/xlink" x="0px" y="0px"
	 width="263.145px" height="51.085px" viewBox="0 0 263.145 51.085" enable-background="new 0 0 263.145 51.085"
	 xml:space="preserve">
<g id="Layer_1_1_">
	<polyline fill="#5F7F9C" points="13.391,17.558 18.885,17.558 18.885,22.481 21.453,22.481 21.453,17.558 26.95,17.558 
		26.95,32.142 21.453,32.142 21.453,26.691 18.885,26.691 18.885,32.142 13.391,32.142 13.391,17.558 	"/>
	<polyline fill="#5F7F9C" points="37.083,17.558 48.003,17.558 48.003,21.302 42.594,21.302 42.594,22.885 47.618,22.885 
		47.618,26.632 42.594,26.632 42.594,28.357 48.185,28.357 48.185,32.142 37.083,32.142 37.083,17.558 	"/>
	<path fill="#5F7F9C" d="M56.112,32.169h5.536l0.54-2.336h4.237l0.507,2.336h6.017l-4.597-14.611h-7.417L56.112,32.169
		L56.112,32.169z M65.632,26.275h-2.59l1.342-5.762L65.632,26.275"/>
	<path fill="#5F7F9C" d="M80.933,32.142h5.493v-5.285c0.177-0.016,0.361-0.016,0.506-0.016c1.316,0,1.499,0.621,1.72,2.195
		l0.141,1.082c0.083,0.652,0.244,1.316,0.428,2.023h5.572c-0.243-1.08-0.427-1.945-0.51-2.592l-0.182-1.561
		c-0.262-2.102-0.731-2.997-2.693-3.329c1.907-0.506,2.873-1.635,2.873-3.399c0-2.916-1.881-3.707-5.895-3.707H80.93L80.933,32.142
		L80.933,32.142z M86.427,23.576v-2.755c0.239-0.023,0.444-0.023,0.625-0.023c1.235,0,1.779,0.388,1.779,1.296
		c0,0.932-0.686,1.495-2.002,1.495C86.708,23.589,86.564,23.589,86.427,23.576"/>
	<path fill="#5F7F9C" d="M108.052,27.464c0,0.039,0,0.084,0,0.117c0,0.998,0.443,1.453,1.391,1.453c0.858,0,1.365-0.42,1.365-1.045
		c0-0.469-0.205-0.83-0.574-1.01c-0.747-0.367-2.062-0.572-3.782-1.123c-2.353-0.748-3.449-1.9-3.449-3.943
		c0-2.857,2.313-4.58,6.568-4.58c3.866,0,5.912,1.436,5.912,4.008c0,0.103,0,0.202,0,0.302h-4.842
		c-0.06-0.87-0.463-1.292-1.275-1.292c-0.748,0-1.215,0.42-1.215,0.974c0,1.016,1.012,0.975,2.856,1.482
		c3.389,0.902,5.004,1.835,5.004,4.486c0,3.082-2.471,5.086-6.688,5.086c-4.273,0-6.543-1.613-6.543-4.393
		c0-0.16,0-0.338,0.023-0.525L108.052,27.464"/>
	<polyline fill="#5F7F9C" points="135.632,21.447 132.123,21.447 132.123,32.142 126.494,32.142 126.494,21.447 122.964,21.447 
		122.964,17.558 135.632,17.558 135.632,21.447 	"/>
	<g enable-background="new    ">
		<path fill="#455560" d="M154.925,20.621c0.106-0.174,0.171-0.314,0.203-0.417c0.123-0.309,0.25-0.511,0.372-0.604
			c0.292-0.032,0.504-0.046,0.637-0.046c0.177,0,0.349,0.038,0.516,0.108l0.047,0.186c0,0.061-0.023,0.155-0.077,0.279
			c-0.03,0.063-0.101,0.259-0.204,0.589l-0.123,0.31l-1.021,2.775c-0.436,1.25-0.815,2.247-1.142,2.991
			c-0.325,0.744-0.611,1.5-0.848,2.27c-0.235,0.768-0.454,1.32-0.649,1.65l-0.061,0.148c0,0.062,0.055,0.141,0.161,0.24
			c0.438-0.256,0.804-0.537,1.104-0.84c0.778-0.771,1.235-1.252,1.383-1.438c0.105-0.133,0.205-0.258,0.302-0.371
			c0.116,0.102,0.225,0.209,0.318,0.324c-0.279,0.4-0.741,0.951-1.394,1.645c-0.65,0.689-1.241,1.182-1.768,1.473
			c-0.404,0.213-0.786,0.324-1.144,0.324c-0.224,0-0.398-0.049-0.514-0.152c-0.115-0.102-0.17-0.23-0.17-0.393
			c0-0.143,0.05-0.408,0.152-0.801c0.259-0.682,0.441-1.131,0.546-1.348c0.102-0.215,0.245-0.551,0.416-1.006
			c0.104-0.279,0.316-0.762,0.636-1.455c-0.202,0.195-0.451,0.486-0.748,0.867c-0.861,1.053-1.848,2.051-2.964,2.99
			c-0.254,0.219-0.871,0.562-1.847,1.039c-0.361,0.135-0.785,0.223-1.276,0.264c-0.414-0.012-0.689-0.053-0.825-0.125
			c-0.257-0.133-0.463-0.344-0.622-0.633c-0.114-0.217-0.173-0.553-0.173-1.008c0-0.66,0.146-1.395,0.441-2.201
			c0.508-1.373,1.019-2.39,1.537-3.053c0.888-1.146,1.766-2.055,2.637-2.727c0.872-0.671,1.671-1.163,2.398-1.473
			c0.962-0.413,1.796-0.62,2.504-0.62c0.23,0,0.453,0.021,0.663,0.063C154.534,20.479,154.736,20.541,154.925,20.621z
			 M147.363,30.787c0.255-0.062,0.48-0.15,0.672-0.266c0.115-0.061,0.531-0.346,1.246-0.85c1.301-1.273,2.036-2,2.208-2.186
			c0.374-0.406,0.793-0.957,1.263-1.658c0.127-0.178,0.399-0.661,0.812-1.457l0.402-1.068c0.146-0.629,0.219-0.992,0.219-1.084
			c0-0.29-0.12-0.564-0.36-0.82c-0.159-0.154-0.419-0.232-0.782-0.232c-0.415,0-0.772,0.068-1.069,0.201
			c-0.668,0.311-1.28,0.704-1.836,1.179c-0.744,0.653-1.462,1.485-2.151,2.503c-0.69,1.017-1.18,1.867-1.468,2.548
			c-0.393,0.938-0.589,1.643-0.589,2.107c0,0.385,0.078,0.666,0.239,0.852c0.158,0.186,0.362,0.279,0.609,0.279
			C146.855,30.833,147.053,30.816,147.363,30.787z"/>
		<path fill="#455560" d="M151.455,39.324c0.383-0.094,0.888-0.178,1.505-0.252c0.319-0.027,0.551-0.057,0.683-0.074
			c0.166-0.041,0.319-0.072,0.466-0.094c0.148-0.062,0.25-0.129,0.309-0.203c0.114-0.135,0.256-0.408,0.42-0.82l1.534-4.027
			c0.215-0.527,0.42-1.113,0.616-1.754c0.124-0.402,0.261-0.797,0.412-1.178c0.15-0.385,0.234-0.627,0.252-0.742
			c0.063-0.242,0.113-0.41,0.156-0.514l1.44-4.015c0.049-0.153,0.439-1.291,1.161-3.409c0.217-0.639,0.416-1.279,0.589-1.921
			c-0.733,0.124-1.373,0.269-1.923,0.433c-0.113,0.032-0.275,0.077-0.48,0.139c-0.382,0.155-0.619,0.233-0.712,0.233
			c-0.084,0-0.214-0.036-0.387-0.108l-0.03-0.17c0-0.144,0.083-0.269,0.25-0.371c0.505-0.319,1.704-0.681,3.595-1.083
			c0.493-1.292,0.795-2.17,0.896-2.634c0.159-0.621,0.335-1.048,0.528-1.287c0.123-0.02,0.251-0.03,0.387-0.03
			c0.148,0,0.361,0.01,0.652,0.03c0.18,0.187,0.267,0.338,0.267,0.452l-0.063,0.216c-0.02,0.05-0.088,0.29-0.203,0.712
			c-0.062,0.237-0.16,0.531-0.294,0.884c-0.271,0.69-0.439,1.156-0.515,1.393c0.452-0.031,0.757-0.046,0.913-0.046
			c0.167,0,0.413,0.013,0.74,0.032h0.079c0.548,0,1.116,0.146,1.714,0.434c0.834,0.414,1.438,0.969,1.818,1.666
			c0.382,0.696,0.571,1.507,0.571,2.425c0,0.694-0.135,1.431-0.403,2.215c-0.267,0.787-0.675,1.585-1.219,2.402
			c-0.55,0.816-1.169,1.498-1.872,2.055c-0.704,0.551-1.327,0.922-1.873,1.107c-1.227,0.432-2.035,0.65-2.43,0.65
			c-0.287,0-0.614-0.039-0.975-0.123c-0.359-0.08-0.752-0.205-1.175-0.371c-0.416,0.838-1.104,2.629-2.065,5.377
			c-0.184,0.545-0.338,0.951-0.45,1.215c-0.113,0.262-0.166,0.467-0.166,0.611l0.015,0.139l0.172,0.143
			c0.28,0.08,0.613,0.131,0.999,0.156c0.386,0.02,0.725,0.055,1.015,0.107c0.051,0.039,0.119,0.076,0.204,0.109l0.075,0.246
			c0,0.055-0.024,0.111-0.075,0.17c-0.404-0.02-0.716-0.027-0.933-0.027c-0.146,0-0.263,0.004-0.356,0.016l-0.372,0.018l-2.85-0.109
			c-0.507,0-0.903,0.027-1.193,0.094c-0.359-0.023-0.669-0.029-0.93-0.029h-0.575l-0.015-0.109
			C151.363,39.601,151.393,39.478,151.455,39.324z M164.337,29.703c0.958-1.055,1.641-2.131,2.046-3.23
			c0.41-1.1,0.614-2.063,0.614-2.889c0-0.526-0.073-1.059-0.217-1.596c-0.073-0.291-0.223-0.548-0.448-0.776
			c-0.317-0.332-0.626-0.563-0.924-0.698c-0.494-0.216-1.125-0.324-1.897-0.324c-0.235,0-0.519,0.015-0.848,0.046
			c-0.681,2.129-1.246,3.78-1.688,4.958l-1.288,3.703c-0.104,0.299-0.175,0.592-0.216,0.869c-0.027,0.145-0.047,0.301-0.047,0.465
			c0,0.35,0.098,0.604,0.296,0.76c0.306,0.238,0.737,0.355,1.28,0.355c0.495,0,0.971-0.096,1.422-0.295
			C162.773,30.896,163.41,30.445,164.337,29.703z"/>
		<path fill="#455560" d="M174.433,20.466c-0.217,0-0.376,0.015-0.48,0.046c-0.482,0.259-0.84,0.48-1.069,0.667
			c-0.464,0.361-0.903,0.786-1.316,1.27l-0.9,0.201c0.797-1.076,1.682-1.915,2.652-2.525c0.976-0.61,1.738-0.914,2.297-0.914
			c0.237,0,0.415,0.06,0.534,0.176c0.117,0.121,0.177,0.272,0.177,0.458c0,0.506-0.288,1.347-0.867,2.527
			c-0.071,0.144-0.245,0.515-0.511,1.115c-0.621,1.351-1.285,2.633-1.982,3.842c-0.228,0.393-0.479,0.855-0.748,1.391
			c-0.147,0.293-0.275,0.535-0.388,0.73c-0.316,0.537-0.479,0.936-0.479,1.193c0,0.072,0.026,0.137,0.082,0.193
			c0.052,0.061,0.124,0.086,0.211,0.086c0.113,0,0.284-0.062,0.517-0.186c0.386-0.205,0.849-0.551,1.387-1.029
			c0.541-0.479,1.017-1.027,1.426-1.648h0.682c-0.314,0.555-0.776,1.197-1.387,1.92c-0.609,0.723-1.302,1.301-2.078,1.734
			c-0.584,0.33-1.104,0.498-1.556,0.498c-0.345,0-0.601-0.068-0.761-0.209c-0.162-0.143-0.247-0.324-0.247-0.553
			c0-0.795,0.583-2.293,1.753-4.49l2.494-4.712c0.255-0.484,0.438-0.866,0.541-1.146c0.063-0.175,0.096-0.295,0.096-0.357
			C174.51,20.693,174.485,20.602,174.433,20.466z M175.317,13.511c0-0.363,0.142-0.684,0.417-0.969
			c0.283-0.283,0.607-0.426,0.979-0.426c0.349,0,0.648,0.123,0.899,0.371c0.247,0.248,0.372,0.532,0.372,0.853
			c0,0.414-0.156,0.79-0.466,1.131c-0.185,0.196-0.524,0.294-1.024,0.294c-0.33,0-0.609-0.114-0.837-0.341
			C175.43,14.198,175.317,13.891,175.317,13.511z"/>
		<path fill="#455560" d="M179.546,39.324c0.387-0.094,0.884-0.178,1.504-0.252c0.32-0.027,0.55-0.057,0.682-0.074
			c0.164-0.041,0.32-0.072,0.464-0.094c0.15-0.062,0.251-0.129,0.312-0.203c0.116-0.135,0.254-0.408,0.417-0.82l1.534-4.027
			c0.216-0.527,0.424-1.113,0.62-1.754c0.121-0.402,0.258-0.797,0.411-1.178c0.149-0.385,0.232-0.627,0.254-0.742
			c0.062-0.242,0.113-0.41,0.154-0.514l1.439-4.015c0.055-0.153,0.439-1.291,1.163-3.409c0.215-0.639,0.411-1.279,0.589-1.921
			c-0.734,0.124-1.376,0.269-1.922,0.433c-0.114,0.032-0.274,0.077-0.483,0.139c-0.382,0.155-0.614,0.233-0.711,0.233
			c-0.08,0-0.21-0.036-0.387-0.108l-0.03-0.17c0-0.144,0.084-0.269,0.251-0.371c0.507-0.319,1.703-0.681,3.595-1.083
			c0.493-1.292,0.795-2.17,0.896-2.634c0.156-0.621,0.333-1.048,0.528-1.287c0.123-0.02,0.253-0.03,0.389-0.03
			c0.145,0,0.358,0.01,0.652,0.03c0.177,0.187,0.264,0.338,0.264,0.452l-0.062,0.216c-0.021,0.05-0.088,0.29-0.201,0.712
			c-0.062,0.237-0.162,0.531-0.296,0.884c-0.27,0.69-0.438,1.156-0.516,1.393c0.451-0.031,0.757-0.046,0.914-0.046
			c0.164,0,0.412,0.013,0.745,0.032h0.072c0.547,0,1.117,0.146,1.714,0.434c0.833,0.414,1.439,0.969,1.819,1.666
			c0.383,0.696,0.57,1.507,0.57,2.425c0,0.694-0.135,1.431-0.402,2.215c-0.265,0.785-0.675,1.585-1.22,2.402
			c-0.546,0.816-1.168,1.498-1.87,2.055c-0.704,0.551-1.327,0.922-1.872,1.107c-1.226,0.432-2.037,0.65-2.43,0.65
			c-0.289,0-0.614-0.039-0.975-0.123c-0.36-0.08-0.752-0.205-1.177-0.371c-0.416,0.838-1.104,2.629-2.067,5.377
			c-0.184,0.545-0.335,0.951-0.445,1.215c-0.115,0.262-0.172,0.467-0.172,0.611l0.017,0.139l0.17,0.143
			c0.281,0.08,0.614,0.131,0.999,0.156c0.386,0.02,0.728,0.055,1.015,0.107c0.051,0.039,0.118,0.076,0.202,0.109l0.077,0.246
			c0,0.055-0.024,0.111-0.077,0.17c-0.402-0.02-0.712-0.027-0.931-0.027c-0.145,0-0.265,0.004-0.356,0.016l-0.371,0.018l-2.85-0.109
			c-0.508,0-0.906,0.027-1.196,0.094c-0.359-0.023-0.669-0.029-0.927-0.029h-0.574l-0.016-0.109
			C179.454,39.601,179.485,39.478,179.546,39.324z M192.43,29.703c0.958-1.055,1.64-2.131,2.047-3.23
			c0.408-1.1,0.614-2.063,0.614-2.889c0-0.526-0.073-1.059-0.219-1.596c-0.072-0.291-0.219-0.548-0.444-0.776
			c-0.316-0.332-0.628-0.563-0.925-0.698c-0.494-0.216-1.125-0.324-1.897-0.324c-0.237,0-0.518,0.015-0.846,0.046
			c-0.682,2.129-1.248,3.78-1.693,4.958l-1.286,3.703c-0.104,0.299-0.179,0.592-0.217,0.869c-0.028,0.145-0.048,0.301-0.048,0.465
			c0,0.35,0.099,0.604,0.297,0.76c0.303,0.238,0.734,0.355,1.279,0.355c0.493,0,0.97-0.096,1.422-0.295
			C190.862,30.896,191.502,30.445,192.43,29.703z"/>
		<path fill="#455560" d="M208.087,23.038c0,2.397-0.726,4.526-2.177,6.385c-1.45,1.861-2.959,2.791-4.517,2.791
			c-0.838,0-1.514-0.312-2.027-0.938c-0.518-0.625-0.775-1.604-0.775-2.936c0-0.898,0.2-1.934,0.604-3.108
			c0.404-1.17,0.923-2.146,1.566-2.92c0.144-0.176,0.31-0.386,0.496-0.635c0.546-0.713,1.197-1.312,1.951-1.797
			c0.752-0.486,1.522-0.729,2.308-0.729c0.725,0,1.331,0.301,1.828,0.907C207.84,20.661,208.087,21.655,208.087,23.038z
			 M200.031,30.091c0,0.473,0.11,0.824,0.335,1.051c0.22,0.227,0.58,0.342,1.074,0.342c0.485,0,0.978-0.238,1.476-0.715
			c0.886-0.865,1.778-2.359,2.663-4.477c0.888-2.117,1.331-3.788,1.331-5.006c0-0.433-0.107-0.775-0.323-1.03
			c-0.217-0.251-0.466-0.38-0.747-0.38c-0.61,0-1.243,0.357-1.904,1.069c-1.126,1.197-2.099,2.851-2.912,4.959
			C200.361,27.619,200.031,29.015,200.031,30.091z"/>
		<path fill="#455560" d="M213.139,20.466c-0.341,0.248-0.659,0.537-0.961,0.867c-0.083,0.093-0.554,0.713-1.409,1.858l-0.635,0.032
			c0.258-0.558,0.736-1.245,1.438-2.062c0.7-0.817,1.309-1.373,1.823-1.673c0.331-0.197,0.701-0.31,1.113-0.34
			c0.26,0.071,0.437,0.168,0.534,0.292c0.099,0.122,0.146,0.271,0.146,0.444c0,0.175-0.019,0.348-0.06,0.521
			c-0.115,0.563-0.342,1.372-0.68,2.425c-0.337,1.053-0.64,1.884-0.908,2.494l-0.804,1.905l-0.063,0.279
			c0.146-0.248,0.439-0.799,0.885-1.658c1.679-3.189,2.895-5.159,3.64-5.906c0.552-0.531,1.188-0.796,1.924-0.796
			c0.413,0,0.797,0.165,1.16,0.495c0.265,0.257,0.403,0.599,0.403,1.022c0,0.475-0.149,0.884-0.45,1.226
			c-0.204,0.237-0.501,0.357-0.881,0.357c-0.319,0-0.545-0.075-0.676-0.225c-0.13-0.148-0.21-0.523-0.239-1.123
			c-0.134-0.269-0.286-0.403-0.449-0.403c-0.17,0-0.344,0.087-0.527,0.262c-0.496,0.443-1.433,1.863-2.809,4.261
			c-1.38,2.398-2.24,4.064-2.584,4.998c-0.347,0.934-0.628,1.572-0.848,1.926c-0.111,0.18-0.32,0.268-0.63,0.268
			c-0.278,0-0.475-0.053-0.591-0.148c-0.114-0.1-0.177-0.223-0.177-0.381c0-0.205,0.052-0.443,0.154-0.713
			c0.445-1.084,1.157-3.082,2.14-5.997l1.083-3.315c0.071-0.296,0.121-0.485,0.155-0.567l0.093-0.229
			C213.448,20.764,213.344,20.631,213.139,20.466z"/>
		<path fill="#455560" d="M223.797,20.577h-0.944l-0.433-0.017l-1.01,0.032h-0.204c0.023-0.226,0.114-0.49,0.268-0.79
			c1.508-0.041,2.402-0.079,2.681-0.108c0.204-0.497,0.379-0.894,0.518-1.191c0.302-0.673,0.615-1.468,0.939-2.389
			c0.105-0.3,0.216-0.575,0.337-0.822c0.227-0.032,0.488-0.047,0.792-0.047c0.249,0,0.486,0.028,0.712,0.078l0.029,0.249
			c0,0.196-0.456,1.333-1.368,3.409c-0.102,0.239-0.187,0.48-0.255,0.729c0.295,0.053,0.468,0.078,0.521,0.078h0.32l0.523,0.015
			l1.47-0.032c0,0.342-0.061,0.621-0.185,0.837c-0.409,0.042-0.944,0.063-1.606,0.063c-0.329,0-0.535,0.004-0.63,0.015
			c-0.519,0.052-0.819,0.105-0.899,0.155l-2.522,6.05c-0.283,0.582-0.762,1.689-1.443,3.326c0,0.064,0.027,0.133,0.093,0.217
			l0.2,0.027c0.278,0,0.625-0.174,1.038-0.523c0.898-0.775,1.745-1.68,2.543-2.711c0.172,0.094,0.321,0.199,0.453,0.324
			c-1.02,1.25-1.734,2.074-2.146,2.473c-0.415,0.396-0.938,0.812-1.574,1.24c-0.632,0.432-1.017,0.67-1.146,0.719
			c-0.232,0.096-0.471,0.141-0.714,0.141c-0.249,0-0.436-0.053-0.558-0.162c-0.12-0.109-0.183-0.264-0.183-0.473
			c0-0.299,0.25-0.998,0.74-2.092l0.653-1.439l2.28-5.501C223.381,21.738,223.615,21.113,223.797,20.577z"/>
		<path fill="#455560" d="M237.946,20.621c0.103-0.174,0.171-0.314,0.202-0.417c0.123-0.309,0.249-0.511,0.374-0.604
			c0.289-0.032,0.501-0.046,0.637-0.046c0.176,0,0.344,0.038,0.513,0.108l0.047,0.186c0,0.061-0.021,0.155-0.076,0.279
			c-0.03,0.063-0.101,0.259-0.202,0.589l-0.123,0.31l-1.022,2.775c-0.436,1.25-0.815,2.247-1.143,2.991
			c-0.32,0.744-0.611,1.5-0.846,2.27c-0.238,0.768-0.454,1.32-0.65,1.65l-0.062,0.148c0,0.062,0.056,0.141,0.165,0.24
			c0.435-0.256,0.802-0.537,1.103-0.84c0.774-0.771,1.235-1.252,1.38-1.438c0.107-0.133,0.206-0.258,0.305-0.371
			c0.116,0.102,0.223,0.209,0.318,0.324c-0.28,0.4-0.74,0.951-1.394,1.645c-0.653,0.689-1.243,1.182-1.766,1.473
			c-0.408,0.213-0.788,0.324-1.146,0.324c-0.227,0-0.399-0.049-0.518-0.152c-0.112-0.102-0.169-0.23-0.169-0.393
			c0-0.143,0.052-0.408,0.155-0.801c0.258-0.682,0.438-1.131,0.541-1.348c0.105-0.217,0.243-0.551,0.421-1.006
			c0.101-0.279,0.315-0.762,0.634-1.455c-0.2,0.195-0.452,0.486-0.747,0.867c-0.861,1.053-1.849,2.051-2.964,2.99
			c-0.255,0.219-0.873,0.562-1.849,1.039c-0.36,0.135-0.786,0.223-1.274,0.264c-0.416-0.012-0.689-0.053-0.827-0.125
			c-0.258-0.133-0.464-0.344-0.622-0.633c-0.115-0.217-0.176-0.553-0.176-1.008c0-0.66,0.15-1.395,0.442-2.201
			c0.507-1.373,1.019-2.39,1.537-3.053c0.885-1.146,1.765-2.055,2.635-2.727c0.872-0.671,1.668-1.163,2.396-1.473
			c0.959-0.413,1.798-0.62,2.505-0.62c0.232,0,0.451,0.021,0.664,0.063C237.555,20.479,237.755,20.541,237.946,20.621z
			 M230.381,30.787c0.253-0.062,0.479-0.15,0.671-0.266c0.112-0.061,0.531-0.346,1.245-0.85c1.301-1.273,2.037-2,2.209-2.186
			c0.372-0.406,0.792-0.957,1.261-1.658c0.128-0.178,0.399-0.661,0.815-1.457l0.403-1.068c0.144-0.629,0.216-0.992,0.216-1.084
			c0-0.29-0.118-0.564-0.358-0.82c-0.161-0.154-0.421-0.232-0.781-0.232c-0.416,0-0.771,0.068-1.07,0.201
			c-0.67,0.311-1.282,0.704-1.835,1.179c-0.746,0.653-1.463,1.485-2.154,2.503c-0.692,1.017-1.181,1.867-1.469,2.548
			c-0.391,0.938-0.59,1.643-0.59,2.107c0,0.385,0.079,0.666,0.242,0.852c0.159,0.186,0.359,0.279,0.606,0.279
			C229.874,30.833,230.073,30.816,230.381,30.787z"/>
		<path fill="#455560" d="M246.141,11.836l0.049-0.449c1.267-0.104,2.227-0.154,2.881-0.154h0.684v0.208l-0.482,1.503
			c-0.018,0.042-0.396,0.998-1.13,2.867l-2.093,5.453c-0.376,1.022-0.993,2.603-1.859,4.74l-0.514,1.348
			c-0.36,0.979-0.65,1.641-0.868,1.98c-0.34,0.559-0.51,0.971-0.51,1.236l0.061,0.248c0.34-0.029,0.757-0.262,1.255-0.697
			c0.73-0.609,1.389-1.389,1.984-2.34c0.193-0.041,0.343-0.064,0.448-0.064l0.173,0.018c-0.389,0.752-0.805,1.369-1.25,1.842
			c-0.706,0.746-1.192,1.213-1.46,1.41c-0.594,0.455-1.164,0.799-1.708,1.037c-0.348,0.156-0.689,0.232-1.027,0.232
			c-0.181,0-0.313-0.043-0.399-0.141c-0.09-0.094-0.134-0.211-0.134-0.355c0-0.484,0.826-2.617,2.476-6.398
			c0.506-1.146,1.034-2.458,1.582-3.935c0.959-2.581,1.697-4.421,2.212-5.516c0.519-1.095,0.893-2.083,1.132-2.959
			c0.021-0.089,0.031-0.164,0.031-0.224c0-0.149-0.072-0.288-0.218-0.417C247.274,12.154,246.834,11.995,246.141,11.836z"/>
	</g>
</g>
<g id="business_media" display="none">
	<g display="inline">
		<path fill="#455560" d="M249.922,47.688c-1.2,0-4.485-0.438-4.485-4.604c0-6.765,11.244-31.65,11.244-34.75
			c0-0.758-0.694-0.947-1.454-1.074c-0.885-0.126-1.768-0.126-1.768-0.821c0-0.506,0.312-0.569,0.562-0.569
			c1.646,0,6.002-0.632,6.516-0.632c0.504,0,0.631,0.063,0.631,0.442c0,4.106-10.74,28.999-10.484,28.051
			c-0.129,0.504-0.381,1.069-0.188,1.069c0.254,0,0.691-0.817,1.137-1.514c0.254-0.44,7.959-10.743,11.938-10.743
			c3.285,0,3.604,3.601,3.604,5.247C267.168,37.015,257.06,47.688,249.922,47.688z M262.305,25.201
			c-3.602,0-14.215,11.751-14.215,19.08c0,0.883,0.252,2.271,2.084,2.271c4.613,0,14.594-14.658,14.594-18.512
			C264.768,26.085,263.883,25.201,262.305,25.201z"/>
		<path fill="#455560" d="M286.563,43.712c-0.062,0.188-0.255,0.502-0.255,0.885c0,0.381,0.126,0.566,0.507,0.566
			c1.83,0,6.002-5.812,6.572-5.812c0.314,0,0.632,0.316,0.632,0.631c0,0.695-5.877,7.707-9.729,7.707
			c-1.076,0-1.771-0.816-1.771-1.895c0-0.439,0.255-1.264,0.694-2.273l1.959-4.23c1.645-3.539,1.959-4.043,1.959-4.295
			c0-0.188,0-0.312-0.063-0.312c-0.377,0-2.59,3.405-6.816,7.01c-4.549,3.918-7.58,6-9.287,6c-0.758,0-1.58-0.438-1.58-1.387
			c0-1.707,2.724-6.822,3.604-8.401l5.436-10.107c0.506-0.945,1.143-2.021,1.143-2.336c0-0.441-0.378-0.631-0.762-0.631
			c-1.895,0-5.561,5.12-6.002,5.12c-0.311,0-0.506-0.129-0.506-0.508c0-1.197,5.688-7.645,9.729-7.645
			c1.069,0,1.708,0.504,1.708,1.073c0,1.265-0.382,2.084-0.821,2.969l-8.596,16.806c-0.124,0.312-0.252,0.506-0.252,0.883
			c0,0.312,0.313,0.512,0.694,0.512c2.591,0,12.697-10.994,14.529-14.219c1.389-2.463,3.096-6.444,3.477-7.139
			c0.253-0.443,0.503-0.633,1.955-0.633c0.947,0,1.271,0.127,1.271,0.568c0,0.381-0.691,1.959-1.271,3.222L286.563,43.712z"/>
		<path fill="#455560" d="M314.103,24.316c0,1.328-0.943,1.517-1.578,1.517c-1.896,0-2.396-2.526-3.979-2.526
			c-1.008,0-2.021,0.694-2.021,2.653c0,1.768,0.762,4.105,1.451,6.568c0.694,2.468,1.455,5.06,1.455,7.394
			c0,4.929-2.78,7.771-7.706,7.771c-3.666,0-5.057-1.266-5.057-3.225c0-1.008,0.822-1.699,1.642-1.699
			c2.274,0,1.834,3.406,4.424,3.406c3.031,0,3.538-2.211,3.538-3.729c0-1.831-0.757-4.229-1.453-6.567
			c-0.692-2.396-1.448-4.732-1.448-6.441c0-4.611,2.396-7.644,7.012-7.644C312.525,21.791,314.103,22.61,314.103,24.316z"/>
		<path fill="#455560" d="M323.265,41.058c-0.38,0.82-0.882,1.58-0.882,2.146c0,0.379,0.062,0.76,0.695,0.76
			c0.504,0,1.264-0.504,2.896-1.578c1.896-1.262,2.601-2.021,2.978-2.021s0.438,0.252,0.438,0.631c0,0.762-6.562,6.635-10.299,6.635
			c-1.141,0-1.827-0.377-1.827-1.389c0-0.508,0.188-1.014,0.438-1.518l7.271-14.723c0.692-1.449,1.263-2.588,1.263-3.41
			c0-0.506-0.312-0.631-0.562-0.631c-0.947,0-4.299,3.346-5.182,3.346c-0.386,0-0.514-0.188-0.514-0.566
			c0-0.504,0.567-0.756,1.075-1.264c0.757-0.76,5.939-5.56,8.72-5.56c0.944,0,1.327,1.075,1.327,1.707
			c0,0.821-0.565,2.337-0.889,3.031L323.265,41.058z M332.428,10.67c0,1.265-1.201,2.528-2.528,2.528
			c-1.32,0-2.525-1.263-2.525-2.528c0-1.263,1.205-2.525,2.525-2.525C331.227,8.145,332.428,9.408,332.428,10.67z"/>
		<path fill="#455560" d="M352.894,41.878c-0.251,0.506-0.564,0.949-0.564,1.266c0,0.506,0.313,0.758,0.693,0.758
			c1.578,0,4.93-4.105,5.367-4.105c0.38,0,0.567,0.252,0.567,0.502c0,1.328-5.438,7.02-9.729,7.02c-1.142,0-1.58-0.377-1.58-1.068
			c0-0.637,0.438-1.709,0.893-2.725l7.191-15.352c0.514-1.071,0.637-1.896,0.637-2.524c0-1.012-0.566-1.706-1.449-1.706
			c-2.271,0-4.48,2.594-11.754,14.34c-1.322,2.145-2.461,4.104-3.66,6.823c-0.633,1.392-1.07,2.209-2.086,2.209
			c-1.074,0-1.521-0.377-1.521-1.14c0-0.563,0.438-1.575,0.638-2.086l5.998-16.047c0.312-0.883,0.631-1.705,0.631-2.146
			c0-0.506-0.377-0.822-0.945-0.822c-1.645,0-4.604,4.672-5.238,4.672c-0.312,0-0.506-0.25-0.506-0.504
			c0-0.693,0.76-1.453,1.14-2.021c0.891-1.264,4.604-5.433,7.072-5.433c1.521,0,1.958,0.947,1.958,2.653
			c0,2.466-3.791,10.487-3.791,11.185c0,0.123,0.062,0.313,0.129,0.313c0.188,0,0.438-0.381,0.763-0.89
			c1.139-1.829,6.692-13.263,12.565-13.263c2.396,0,3.854,1.263,3.854,3.475c0,1.577-0.951,3.534-1.646,4.987L352.894,41.878z"/>
	</g>
	<g display="inline">
		<path fill="#455560" d="M380.943,26.528c0,2.274-2.34,8.151-12.949,9.917c-0.383,0.947-0.502,2.148-0.502,2.971
			c0,3.539,1.324,4.486,3.723,4.486c3.604,0,6.646-5.053,7.146-5.053c0.384,0,0.507,0.188,0.507,0.564
			c0,0.564-4.605,8.271-9.604,8.271c-3.783,0-5.301-3.283-5.301-7.326c0-8.4,7.453-18.572,13.201-18.572
			C379.87,21.791,380.943,24.379,380.943,26.528z M368.372,35.056c7.896-2.334,10.426-7.201,10.426-9.791
			c0-1.138-0.381-2.34-1.959-2.34C375.258,22.926,370.647,26.275,368.372,35.056z"/>
		<path fill="#455560" d="M399.26,24.316c0,1.328-0.942,1.517-1.578,1.517c-1.895,0-2.395-2.526-3.979-2.526
			c-1.018,0-2.021,0.694-2.021,2.653c0,1.768,0.758,4.105,1.449,6.568c0.695,2.468,1.457,5.06,1.457,7.394
			c0,4.929-2.779,7.771-7.707,7.771c-3.666,0-5.055-1.266-5.055-3.225c0-1.008,0.812-1.699,1.639-1.699
			c2.275,0,1.834,3.406,4.426,3.406c3.031,0,3.537-2.211,3.537-3.729c0-1.831-0.758-4.229-1.452-6.567
			c-0.691-2.396-1.451-4.732-1.451-6.441c0-4.611,2.397-7.644,7.016-7.644C397.682,21.791,399.26,22.61,399.26,24.316z"/>
		<path fill="#455560" d="M418.721,24.316c0,1.328-0.944,1.517-1.58,1.517c-1.895,0-2.396-2.526-3.979-2.526
			c-1.008,0-2.021,0.694-2.021,2.653c0,1.768,0.771,4.105,1.453,6.568c0.697,2.468,1.453,5.06,1.453,7.394
			c0,4.929-2.779,7.771-7.707,7.771c-3.662,0-5.055-1.266-5.055-3.225c0-1.008,0.822-1.699,1.645-1.699
			c2.273,0,1.83,3.406,4.418,3.406c3.037,0,3.539-2.211,3.539-3.729c0-1.831-0.754-4.229-1.438-6.567
			c-0.695-2.396-1.455-4.732-1.455-6.441c0-4.611,2.395-7.644,7.018-7.644C417.141,21.791,418.721,22.61,418.721,24.316z"/>
	</g>
	<g display="inline">
		<path fill="#455560" d="M452.391,28.042c0.445-1.074,0.57-2.273,0.57-2.967c0-0.443-0.189-1.643-1.072-1.643
			c-1.834,0-4.928,4.295-6.889,7.517c-2.395,3.981-3.598,6.258-7.262,13.016c-1.396,2.595-1.455,3.228-2.844,3.228
			c-0.771,0-1.203-0.188-1.203-0.694c0-0.816,0.438-1.896,0.762-2.654l6.061-15.35c0.314-0.763,0.82-1.771,0.82-2.592
			c0-0.569-0.254-1.075-0.82-1.075c-0.252,0-0.942,0.631-1.576,1.137c-3.352,2.655-3.729,4.616-4.678,4.616
			c-0.312,0-0.506-0.125-0.506-0.441c0-1.012,1.521-2.146,2.781-3.729c1.578-2.022,4.043-4.612,7.012-4.612
			c0.82,0,1.451,0.568,1.451,1.579c0,3.346-4.234,10.93-4.234,12.001c0,0.188,0.064,0.312,0.258,0.312
			c0.125,0,0.636-1.32,1.269-2.396c1.895-3.225,6.188-11.5,11.055-11.5c1.453,0,2.904,1.01,2.904,2.653
			c0,2.526-3.729,10.422-3.729,10.867c0,0.123,0,0.377,0.064,0.377c0.123,0,0.252-0.313,0.756-1.14
			c2.336-3.786,6.699-12.758,12.191-12.758c2.77,0,3.793,1.516,3.793,3.222c0,1.323-0.506,2.271-0.896,3.028L461.805,41.5
			c-0.252,0.508-0.562,1.271-0.562,1.897c0,0.438,0.25,0.634,0.631,0.634c0.438,0,1.643-0.57,2.271-1.144
			c3.789-3.408,3.923-4.169,4.484-4.169c0.443,0,0.566,0.189,0.566,0.507c0,0.948-6.629,8.463-11.113,8.463
			c-0.762,0-1.393-0.881-1.393-1.767c0-1.01,0.506-2.147,1.061-3.284l7.396-14.718c0.438-0.823,0.883-1.771,0.883-3.039
			c0-0.947-0.506-1.453-1.646-1.453c-3.225,0-6.94,5.619-13.646,17.375c-2.4,4.171-2.271,6.38-4.105,6.38
			c-1.188,0-1.645-0.252-1.645-0.817c0-0.441,0.313-1.015,0.631-1.771L452.391,28.042z"/>
		<path fill="#455560" d="M490.551,26.528c0,2.274-2.34,8.151-12.951,9.917c-0.381,0.947-0.504,2.148-0.504,2.971
			c0,3.539,1.328,4.486,3.728,4.486c3.604,0,6.639-5.053,7.141-5.053c0.379,0,0.506,0.188,0.506,0.564
			c0,0.564-4.604,8.271-9.604,8.271c-3.789,0-5.308-3.283-5.308-7.326c0-8.4,7.455-18.572,13.203-18.572
			C489.479,21.791,490.551,24.379,490.551,26.528z M477.981,35.056c7.896-2.334,10.427-7.201,10.427-9.791
			c0-1.138-0.379-2.34-1.959-2.34C484.87,22.926,480.254,26.275,477.981,35.056z"/>
		<path fill="#455560" d="M518.473,12.882c0.636-1.706,1.328-3.159,1.328-4.359c0-0.948-0.887-1.137-1.703-1.264
			c-0.889-0.126-1.771-0.38-1.771-1.011s1.393-0.631,2.146-0.631h4.611c1.012,0,1.582,0.063,1.582,0.631s-0.191,1.138-0.381,1.643
			L511.59,41.438c-0.508,1.39-0.822,2.021-0.822,2.524c0,0.313,0.125,0.695,0.693,0.695c0.443,0,1.01-0.695,2.719-2.216
			c2.775-2.465,3.662-4.674,4.484-4.674c0.316,0,0.566,0.127,0.566,0.379c0,1.453-7.199,9.537-10.865,9.537
			c-1.135,0-1.521-0.502-1.521-1.449c0-3.92,3.158-9.479,3.158-9.854c0-0.127,0-0.254-0.188-0.254c-0.189,0-0.39,0.441-0.568,0.695
			c-1.389,1.895-8.904,10.861-13.268,10.861c-2.777,0-3.156-2.211-3.156-4.547c0-8.146,9.162-20.217,18.061-20.217
			c1.646,0,2.851,0.381,3.666,0.569L518.473,12.882z M498.198,43.521c5.178,0,14.846-12.002,14.846-16.045
			c0-2.527-0.635-3.285-2.395-3.285c-5.438,0-13.896,10.107-13.896,17.309C496.745,42.511,496.995,43.521,498.198,43.521z"/>
	</g>
	<g display="inline">
		<path fill="#455560" d="M528.518,41.058c-0.375,0.82-0.885,1.58-0.885,2.146c0,0.379,0.066,0.76,0.697,0.76
			c0.506,0,1.264-0.504,2.904-1.578c1.895-1.262,2.59-2.021,2.971-2.021s0.441,0.252,0.441,0.631c0,0.762-6.57,6.635-10.312,6.635
			c-1.139,0-1.834-0.377-1.834-1.389c0-0.508,0.191-1.014,0.445-1.518l7.262-14.723c0.695-1.449,1.271-2.588,1.271-3.41
			c0-0.506-0.32-0.631-0.57-0.631c-0.949,0-4.297,3.346-5.185,3.346c-0.381,0-0.502-0.188-0.502-0.566
			c0-0.504,0.562-0.756,1.072-1.264c0.758-0.76,5.938-5.56,8.719-5.56c0.941,0,1.322,1.075,1.322,1.707
			c0,0.821-0.562,2.337-0.887,3.031L528.518,41.058z M537.68,10.67c0,1.265-1.194,2.528-2.522,2.528s-2.527-1.263-2.527-2.528
			c0-1.263,1.199-2.525,2.527-2.525S537.68,9.408,537.68,10.67z"/>
		<path fill="#455560" d="M556.883,25.201c1.014,0,2.021,0.252,2.531,0.252c0.631,0,1.197-0.316,1.641-1.2
			c0.693-1.391,1.07-1.832,2.715-1.832c1.074,0,1.455,0.253,1.455,0.885c0,0.188-0.129,0.632-0.381,1.137l-8.211,18.003
			c-0.188,0.382-0.381,0.695-0.381,1.072c0,0.381,0.254,0.444,0.695,0.444c2.211,0,6.311-5.812,7.016-5.812
			c0.438,0,0.566,0.125,0.566,0.566c0,0.947-7.771,8.971-11.062,8.971c-1.063,0-1.514-0.377-1.514-1.137
			c0-2.146,3.158-8.086,3.979-9.793l-0.127-0.127l-2.776,3.033c-3.16,3.477-8.463,8.021-12.193,8.021
			c-2.336,0-2.779-2.211-2.779-3.601C538.059,36.444,549.555,25.201,556.883,25.201z M543.936,43.901
			c4.295,0,15.162-11.18,15.162-15.351c0-1.075-0.565-1.836-2.34-1.836c-5.561,0-14.91,9.979-14.91,15.291
			C541.848,43.017,542.484,43.901,543.936,43.901z"/>
	</g>
</g>
</svg>
