<?xml version="1.0" encoding="utf-8"?>
<!-- Generator: Adobe Illustrator 16.0.0, SVG Export Plug-In . SVG Version: 6.00 Build 0)  -->
<!DOCTYPE svg PUBLIC "-//W3C//DTD SVG 1.1//EN" "http://www.w3.org/Graphics/SVG/1.1/DTD/svg11.dtd">
<svg version="1.1" id="Layer_1" xmlns="http://www.w3.org/2000/svg" xmlns:xlink="http://www.w3.org/1999/xlink" x="0px" y="0px"
	 width="263.145px" height="51.085px" viewBox="0 0 263.145 51.085" enable-background="new 0 0 263.145 51.085"
	 xml:space="preserve">
<g id="Layer_1_1_">
	<polyline fill="#5F7F9C" points="13.391,19.22 17.723,19.22 17.723,23.102 19.747,23.102 19.747,19.22 24.082,19.22 24.082,30.719 
		19.747,30.719 19.747,26.421 17.723,26.421 17.723,30.719 13.391,30.719 13.391,19.22 	"/>
	<polyline fill="#5F7F9C" points="32.072,19.22 40.681,19.22 40.681,22.172 36.417,22.172 36.417,23.42 40.378,23.42 40.378,26.375 
		36.417,26.375 36.417,27.734 40.824,27.734 40.824,30.719 32.072,30.719 32.072,19.22 	"/>
	<path fill="#5F7F9C" d="M47.075,30.741h4.365l0.426-1.842h3.341l0.399,1.842h4.744L56.725,19.22h-5.848L47.075,30.741
		L47.075,30.741z M54.581,26.093h-2.042l1.058-4.543L54.581,26.093"/>
	<path fill="#5F7F9C" d="M66.645,30.719h4.331v-4.167c0.14-0.013,0.285-0.013,0.399-0.013c1.038,0,1.182,0.489,1.356,1.731
		l0.111,0.853c0.065,0.515,0.192,1.038,0.337,1.596h4.393c-0.191-0.852-0.336-1.534-0.402-2.044l-0.143-1.23
		c-0.207-1.657-0.577-2.362-2.124-2.625c1.503-0.398,2.265-1.289,2.265-2.68c0-2.299-1.483-2.922-4.647-2.922h-5.879L66.645,30.719
		L66.645,30.719z M70.977,23.965v-2.172c0.188-0.018,0.35-0.018,0.493-0.018c0.974,0,1.403,0.306,1.403,1.022
		c0,0.735-0.541,1.179-1.579,1.179C71.198,23.976,71.085,23.976,70.977,23.965"/>
	<path fill="#5F7F9C" d="M88.028,27.031c0,0.031,0,0.066,0,0.092c0,0.787,0.349,1.146,1.097,1.146c0.677,0,1.076-0.331,1.076-0.824
		c0-0.369-0.162-0.654-0.453-0.796c-0.589-0.29-1.626-0.451-2.982-0.885c-1.855-0.59-2.72-1.498-2.72-3.109
		c0-2.253,1.824-3.611,5.179-3.611c3.048,0,4.661,1.132,4.661,3.161c0,0.081,0,0.159,0,0.238h-3.818
		c-0.048-0.686-0.366-1.019-1.005-1.019c-0.59,0-0.958,0.332-0.958,0.768c0,0.801,0.798,0.769,2.252,1.169
		c2.672,0.711,3.946,1.447,3.946,3.537c0,2.43-1.948,4.01-5.273,4.01c-3.369,0-5.159-1.271-5.159-3.464c0-0.125,0-0.266,0.019-0.414
		L88.028,27.031"/>
	<polyline fill="#5F7F9C" points="109.773,22.287 107.007,22.287 107.007,30.719 102.569,30.719 102.569,22.287 99.785,22.287 
		99.785,19.22 109.773,19.22 109.773,22.287 	"/>
	<g enable-background="new    ">
		<path fill="#455560" d="M124.985,21.635c0.084-0.138,0.135-0.248,0.16-0.329c0.097-0.244,0.197-0.403,0.293-0.476
			c0.23-0.025,0.397-0.036,0.502-0.036c0.139,0,0.275,0.03,0.406,0.085l0.037,0.147c0,0.048-0.019,0.122-0.061,0.22
			c-0.024,0.05-0.08,0.204-0.161,0.464l-0.097,0.244l-0.804,2.188c-0.344,0.985-0.643,1.772-0.9,2.359
			c-0.256,0.586-0.482,1.182-0.668,1.789c-0.186,0.605-0.358,1.041-0.512,1.301l-0.048,0.117c0,0.05,0.043,0.111,0.127,0.189
			c0.346-0.201,0.634-0.423,0.87-0.662c0.614-0.607,0.974-0.986,1.09-1.133c0.083-0.105,0.162-0.203,0.238-0.293
			c0.092,0.08,0.177,0.164,0.251,0.256c-0.22,0.315-0.584,0.75-1.099,1.296c-0.513,0.544-0.979,0.933-1.394,1.161
			c-0.319,0.168-0.62,0.256-0.902,0.256c-0.176,0-0.314-0.038-0.405-0.12c-0.091-0.08-0.134-0.182-0.134-0.31
			c0-0.112,0.04-0.321,0.12-0.631c0.204-0.538,0.348-0.893,0.431-1.062c0.08-0.17,0.193-0.435,0.328-0.793
			c0.082-0.221,0.249-0.602,0.501-1.147c-0.159,0.153-0.355,0.384-0.59,0.684c-0.679,0.83-1.457,1.616-2.337,2.357
			c-0.2,0.173-0.687,0.443-1.456,0.819c-0.285,0.106-0.619,0.176-1.006,0.208c-0.326-0.009-0.543-0.042-0.65-0.099
			c-0.203-0.104-0.365-0.271-0.491-0.499c-0.09-0.171-0.136-0.436-0.136-0.795c0-0.521,0.116-1.099,0.348-1.735
			c0.4-1.082,0.803-1.884,1.212-2.407c0.7-0.903,1.392-1.62,2.079-2.15c0.688-0.529,1.317-0.917,1.891-1.161
			c0.758-0.326,1.416-0.489,1.974-0.489c0.182,0,0.357,0.017,0.523,0.05C124.677,21.523,124.836,21.572,124.985,21.635z
			 M119.022,29.65c0.201-0.049,0.379-0.118,0.53-0.209c0.091-0.048,0.419-0.272,0.982-0.67c1.026-1.004,1.605-1.577,1.741-1.723
			c0.295-0.32,0.625-0.756,0.996-1.308c0.1-0.14,0.315-0.521,0.64-1.149l0.317-0.842c0.115-0.496,0.172-0.782,0.172-0.855
			c0-0.229-0.095-0.445-0.284-0.647c-0.125-0.122-0.33-0.183-0.617-0.183c-0.327,0-0.609,0.054-0.843,0.158
			c-0.526,0.245-1.009,0.555-1.447,0.93c-0.587,0.515-1.153,1.171-1.696,1.974c-0.544,0.802-0.93,1.472-1.157,2.009
			c-0.31,0.739-0.464,1.296-0.464,1.662c0,0.303,0.062,0.524,0.188,0.671c0.125,0.146,0.286,0.221,0.48,0.221
			C118.622,29.687,118.778,29.673,119.022,29.65z"/>
		<path fill="#455560" d="M122.249,36.381c0.302-0.074,0.7-0.14,1.187-0.198c0.252-0.021,0.435-0.045,0.538-0.059
			c0.131-0.032,0.252-0.058,0.368-0.074c0.117-0.049,0.197-0.102,0.243-0.16c0.09-0.106,0.202-0.322,0.331-0.646l1.209-3.176
			c0.169-0.416,0.331-0.878,0.486-1.383c0.098-0.317,0.206-0.628,0.325-0.929c0.119-0.304,0.185-0.494,0.199-0.585
			c0.05-0.191,0.089-0.323,0.123-0.405l1.136-3.166c0.039-0.121,0.347-1.018,0.916-2.688c0.171-0.504,0.328-1.009,0.464-1.515
			c-0.578,0.097-1.083,0.211-1.516,0.341c-0.089,0.025-0.217,0.061-0.379,0.109c-0.301,0.123-0.488,0.184-0.562,0.184
			c-0.066,0-0.168-0.028-0.305-0.085l-0.024-0.134c0-0.113,0.065-0.211,0.197-0.292c0.398-0.252,1.344-0.537,2.834-0.854
			c0.389-1.019,0.627-1.711,0.707-2.077c0.125-0.489,0.264-0.826,0.417-1.015c0.097-0.016,0.198-0.024,0.305-0.024
			c0.117,0,0.285,0.008,0.514,0.024c0.142,0.147,0.21,0.267,0.21,0.356l-0.05,0.17c-0.016,0.04-0.07,0.229-0.161,0.562
			c-0.049,0.187-0.126,0.418-0.232,0.697c-0.214,0.544-0.346,0.911-0.406,1.098c0.356-0.024,0.597-0.036,0.72-0.036
			c0.132,0,0.325,0.01,0.584,0.025h0.062c0.433,0,0.881,0.115,1.352,0.342c0.657,0.326,1.135,0.764,1.434,1.313
			c0.302,0.549,0.45,1.188,0.45,1.912c0,0.548-0.105,1.128-0.317,1.747c-0.21,0.62-0.532,1.25-0.961,1.893
			c-0.434,0.645-0.922,1.182-1.477,1.621c-0.555,0.434-1.046,0.727-1.477,0.873c-0.967,0.34-1.604,0.513-1.916,0.513
			c-0.227,0-0.484-0.031-0.769-0.098c-0.283-0.062-0.593-0.161-0.926-0.292c-0.328,0.66-0.871,2.072-1.628,4.239
			c-0.145,0.43-0.267,0.75-0.355,0.958c-0.089,0.206-0.131,0.368-0.131,0.482l0.012,0.109l0.135,0.112
			c0.221,0.062,0.483,0.103,0.788,0.123c0.304,0.016,0.571,0.043,0.8,0.085c0.04,0.03,0.094,0.06,0.161,0.086l0.06,0.193
			c0,0.044-0.02,0.088-0.06,0.135c-0.319-0.016-0.564-0.021-0.735-0.021c-0.115,0-0.207,0.003-0.281,0.012l-0.293,0.014
			l-2.247-0.086c-0.399,0-0.712,0.021-0.941,0.074c-0.283-0.019-0.527-0.023-0.733-0.023h-0.454l-0.011-0.086
			C122.176,36.6,122.2,36.503,122.249,36.381z M132.406,28.795c0.755-0.831,1.293-1.68,1.613-2.547
			c0.323-0.868,0.483-1.626,0.483-2.278c0-0.415-0.058-0.835-0.171-1.259c-0.058-0.229-0.175-0.432-0.354-0.612
			c-0.25-0.261-0.493-0.444-0.728-0.55c-0.39-0.171-0.888-0.256-1.497-0.256c-0.186,0-0.409,0.012-0.668,0.036
			c-0.537,1.679-0.982,2.98-1.331,3.91l-1.016,2.919c-0.082,0.235-0.138,0.467-0.17,0.686c-0.022,0.113-0.037,0.236-0.037,0.366
			c0,0.275,0.077,0.476,0.233,0.599c0.241,0.188,0.581,0.28,1.009,0.28c0.39,0,0.765-0.075,1.121-0.232
			C131.173,29.737,131.676,29.38,132.406,28.795z"/>
		<path fill="#455560" d="M140.366,21.513c-0.171,0-0.297,0.012-0.379,0.036c-0.381,0.204-0.662,0.379-0.843,0.526
			c-0.366,0.285-0.713,0.619-1.038,1.001l-0.71,0.159c0.628-0.848,1.325-1.51,2.091-1.991c0.77-0.48,1.371-0.721,1.812-0.721
			c0.187,0,0.327,0.047,0.421,0.139c0.093,0.095,0.14,0.214,0.14,0.361c0,0.398-0.228,1.062-0.685,1.993
			c-0.056,0.113-0.192,0.406-0.402,0.879c-0.489,1.065-1.014,2.076-1.563,3.029c-0.179,0.31-0.378,0.675-0.589,1.097
			c-0.116,0.23-0.218,0.422-0.306,0.576c-0.25,0.424-0.378,0.737-0.378,0.94c0,0.058,0.021,0.108,0.064,0.152
			c0.041,0.048,0.099,0.068,0.167,0.068c0.089,0,0.224-0.05,0.407-0.146c0.304-0.162,0.669-0.435,1.093-0.812
			c0.427-0.377,0.802-0.811,1.125-1.3h0.537c-0.248,0.438-0.612,0.944-1.094,1.514c-0.48,0.57-1.026,1.025-1.639,1.367
			c-0.46,0.261-0.87,0.394-1.227,0.394c-0.271,0-0.473-0.055-0.6-0.165c-0.128-0.112-0.194-0.256-0.194-0.437
			c0-0.626,0.459-1.808,1.382-3.54l1.967-3.715c0.201-0.381,0.345-0.683,0.427-0.904c0.05-0.138,0.075-0.232,0.075-0.282
			C140.427,21.692,140.407,21.62,140.366,21.513z M141.063,16.029c0-0.286,0.112-0.539,0.329-0.764
			c0.224-0.223,0.479-0.336,0.771-0.336c0.274,0,0.512,0.097,0.709,0.292c0.195,0.195,0.294,0.419,0.294,0.672
			c0,0.327-0.124,0.623-0.367,0.892c-0.146,0.154-0.414,0.232-0.809,0.232c-0.26,0-0.48-0.09-0.659-0.269
			C141.153,16.571,141.063,16.329,141.063,16.029z"/>
		<path fill="#455560" d="M144.398,36.381c0.305-0.074,0.697-0.14,1.186-0.198c0.253-0.021,0.434-0.045,0.538-0.059
			c0.129-0.032,0.252-0.058,0.365-0.074c0.119-0.049,0.198-0.102,0.246-0.16c0.092-0.106,0.2-0.322,0.328-0.646l1.21-3.176
			c0.17-0.416,0.334-0.878,0.489-1.383c0.096-0.317,0.203-0.628,0.324-0.929c0.117-0.304,0.183-0.494,0.2-0.585
			c0.049-0.191,0.089-0.323,0.121-0.405l1.136-3.166c0.043-0.121,0.346-1.018,0.917-2.688c0.169-0.504,0.323-1.009,0.464-1.515
			c-0.579,0.097-1.085,0.211-1.516,0.341c-0.09,0.025-0.216,0.061-0.381,0.109c-0.301,0.123-0.484,0.184-0.561,0.184
			c-0.063,0-0.166-0.028-0.305-0.085l-0.024-0.134c0-0.113,0.066-0.211,0.198-0.292c0.399-0.252,1.343-0.537,2.834-0.854
			c0.389-1.019,0.627-1.711,0.707-2.077c0.123-0.489,0.263-0.826,0.417-1.015c0.097-0.016,0.199-0.024,0.306-0.024
			c0.114,0,0.283,0.008,0.515,0.024c0.14,0.147,0.208,0.267,0.208,0.356l-0.049,0.17c-0.017,0.04-0.069,0.229-0.159,0.562
			c-0.048,0.187-0.128,0.418-0.233,0.697c-0.212,0.544-0.346,0.911-0.406,1.098c0.355-0.024,0.597-0.036,0.721-0.036
			c0.129,0,0.325,0.01,0.588,0.025h0.057c0.431,0,0.881,0.115,1.352,0.342c0.656,0.326,1.135,0.764,1.435,1.313
			c0.302,0.549,0.449,1.188,0.449,1.912c0,0.548-0.106,1.128-0.317,1.747c-0.209,0.619-0.532,1.25-0.962,1.893
			c-0.43,0.645-0.921,1.182-1.474,1.621c-0.556,0.434-1.047,0.727-1.477,0.873c-0.967,0.34-1.606,0.513-1.916,0.513
			c-0.228,0-0.484-0.031-0.769-0.098c-0.284-0.062-0.593-0.161-0.928-0.292c-0.328,0.66-0.87,2.072-1.63,4.239
			c-0.145,0.43-0.264,0.75-0.351,0.958c-0.091,0.206-0.136,0.368-0.136,0.482l0.013,0.109l0.134,0.112
			c0.223,0.062,0.484,0.103,0.788,0.123c0.304,0.016,0.573,0.043,0.8,0.085c0.04,0.03,0.094,0.06,0.159,0.086l0.062,0.193
			c0,0.044-0.02,0.088-0.062,0.135c-0.316-0.016-0.561-0.021-0.733-0.021c-0.114,0-0.209,0.003-0.281,0.012l-0.292,0.014
			l-2.247-0.086c-0.4,0-0.715,0.021-0.943,0.074c-0.283-0.019-0.527-0.023-0.73-0.023h-0.453l-0.012-0.086
			C144.325,36.6,144.35,36.503,144.398,36.381z M154.556,28.795c0.756-0.831,1.293-1.68,1.614-2.547
			c0.322-0.868,0.484-1.626,0.484-2.278c0-0.415-0.058-0.835-0.173-1.259c-0.057-0.229-0.172-0.432-0.351-0.612
			c-0.249-0.261-0.494-0.444-0.729-0.55c-0.39-0.171-0.887-0.256-1.496-0.256c-0.188,0-0.408,0.012-0.667,0.036
			c-0.537,1.679-0.984,2.98-1.335,3.91l-1.015,2.919c-0.082,0.235-0.141,0.467-0.171,0.686c-0.021,0.113-0.037,0.236-0.037,0.366
			c0,0.275,0.077,0.476,0.234,0.599c0.238,0.188,0.578,0.28,1.008,0.28c0.39,0,0.765-0.075,1.121-0.232
			C153.32,29.737,153.824,29.38,154.556,28.795z"/>
		<path fill="#455560" d="M166.902,23.541c0,1.89-0.572,3.568-1.717,5.035c-1.144,1.467-2.333,2.2-3.561,2.2
			c-0.661,0-1.194-0.246-1.599-0.739c-0.408-0.492-0.611-1.264-0.611-2.314c0-0.709,0.157-1.524,0.476-2.45
			c0.318-0.923,0.728-1.692,1.235-2.302c0.113-0.139,0.244-0.304,0.391-0.5c0.431-0.562,0.944-1.035,1.539-1.417
			c0.593-0.383,1.2-0.574,1.819-0.574c0.571,0,1.049,0.237,1.441,0.715C166.706,21.667,166.902,22.45,166.902,23.541z
			 M160.549,29.102c0,0.373,0.087,0.649,0.264,0.828c0.174,0.179,0.458,0.27,0.848,0.27c0.383,0,0.771-0.188,1.163-0.563
			c0.698-0.682,1.402-1.86,2.1-3.529c0.7-1.669,1.05-2.987,1.05-3.947c0-0.341-0.085-0.611-0.255-0.812
			c-0.171-0.198-0.367-0.3-0.589-0.3c-0.481,0-0.98,0.282-1.502,0.843c-0.888,0.944-1.654,2.248-2.296,3.91
			C160.809,27.152,160.549,28.253,160.549,29.102z"/>
		<path fill="#455560" d="M170.884,21.513c-0.269,0.195-0.52,0.423-0.757,0.684c-0.065,0.074-0.438,0.562-1.111,1.465l-0.501,0.025
			c0.204-0.439,0.581-0.981,1.135-1.625c0.552-0.645,1.031-1.083,1.438-1.319c0.261-0.155,0.553-0.244,0.878-0.268
			c0.204,0.056,0.344,0.133,0.421,0.23c0.078,0.096,0.114,0.214,0.114,0.351c0,0.138-0.015,0.274-0.047,0.411
			c-0.091,0.444-0.27,1.082-0.535,1.912c-0.266,0.83-0.505,1.486-0.717,1.966l-0.634,1.502l-0.05,0.22
			c0.115-0.195,0.347-0.629,0.697-1.307c1.324-2.515,2.282-4.068,2.87-4.657c0.436-0.418,0.938-0.628,1.517-0.628
			c0.326,0,0.629,0.13,0.915,0.391c0.209,0.203,0.318,0.472,0.318,0.806c0,0.375-0.118,0.697-0.355,0.966
			c-0.161,0.187-0.395,0.282-0.694,0.282c-0.252,0-0.43-0.059-0.533-0.177c-0.102-0.117-0.165-0.413-0.188-0.885
			c-0.105-0.212-0.226-0.318-0.354-0.318c-0.134,0-0.271,0.069-0.415,0.207c-0.392,0.35-1.13,1.469-2.215,3.36
			c-1.088,1.891-1.767,3.205-2.037,3.941c-0.273,0.735-0.495,1.239-0.669,1.518c-0.087,0.143-0.252,0.212-0.496,0.212
			c-0.22,0-0.374-0.042-0.466-0.117c-0.09-0.079-0.14-0.176-0.14-0.301c0-0.161,0.041-0.35,0.122-0.562
			c0.351-0.854,0.912-2.431,1.687-4.729l0.854-2.614c0.056-0.233,0.095-0.382,0.122-0.447l0.073-0.181
			C171.128,21.748,171.046,21.643,170.884,21.513z"/>
		<path fill="#455560" d="M179.288,21.6h-0.745l-0.341-0.013l-0.796,0.025h-0.161c0.019-0.178,0.09-0.386,0.211-0.623
			c1.188-0.033,1.895-0.062,2.113-0.085c0.161-0.392,0.299-0.705,0.408-0.939c0.238-0.531,0.485-1.158,0.741-1.884
			c0.083-0.236,0.17-0.453,0.266-0.648c0.179-0.025,0.385-0.037,0.624-0.037c0.196,0,0.384,0.022,0.562,0.062l0.023,0.196
			c0,0.155-0.36,1.051-1.079,2.688c-0.08,0.188-0.147,0.378-0.201,0.574c0.232,0.042,0.369,0.062,0.41,0.062h0.253l0.413,0.012
			l1.158-0.025c0,0.27-0.048,0.49-0.146,0.66c-0.322,0.033-0.744,0.05-1.267,0.05c-0.259,0-0.422,0.003-0.496,0.012
			c-0.409,0.042-0.646,0.083-0.71,0.122l-1.988,4.771c-0.224,0.459-0.601,1.332-1.138,2.622c0,0.052,0.021,0.105,0.072,0.171
			l0.158,0.022c0.22,0,0.493-0.138,0.818-0.413c0.709-0.611,1.376-1.324,2.005-2.138c0.136,0.074,0.254,0.157,0.357,0.256
			c-0.804,0.985-1.367,1.636-1.692,1.949c-0.327,0.312-0.74,0.641-1.241,0.979c-0.498,0.34-0.802,0.528-0.904,0.566
			c-0.183,0.075-0.371,0.111-0.562,0.111c-0.196,0-0.344-0.042-0.439-0.128c-0.095-0.087-0.145-0.208-0.145-0.373
			c0-0.235,0.197-0.787,0.584-1.649l0.516-1.135l1.798-4.337C178.96,22.516,179.145,22.023,179.288,21.6z"/>
		<path fill="#455560" d="M190.444,21.635c0.081-0.138,0.135-0.248,0.159-0.329c0.097-0.244,0.196-0.403,0.295-0.476
			c0.228-0.025,0.396-0.036,0.502-0.036c0.139,0,0.271,0.03,0.404,0.085l0.037,0.147c0,0.048-0.017,0.122-0.06,0.22
			c-0.024,0.05-0.08,0.204-0.16,0.464l-0.097,0.244l-0.807,2.188c-0.343,0.985-0.643,1.772-0.9,2.359
			c-0.253,0.586-0.482,1.182-0.667,1.789c-0.188,0.605-0.358,1.041-0.513,1.301l-0.05,0.117c0,0.05,0.044,0.111,0.131,0.189
			c0.343-0.201,0.632-0.423,0.869-0.662c0.61-0.607,0.974-0.986,1.088-1.133c0.085-0.105,0.162-0.203,0.24-0.293
			c0.092,0.08,0.176,0.164,0.251,0.256c-0.221,0.315-0.584,0.75-1.099,1.296c-0.516,0.544-0.98,0.933-1.393,1.161
			c-0.321,0.168-0.621,0.256-0.903,0.256c-0.179,0-0.315-0.038-0.408-0.12c-0.089-0.08-0.134-0.182-0.134-0.31
			c0-0.112,0.041-0.321,0.123-0.631c0.203-0.538,0.346-0.893,0.427-1.062c0.083-0.172,0.191-0.435,0.331-0.793
			c0.08-0.221,0.249-0.602,0.5-1.147c-0.157,0.153-0.356,0.384-0.589,0.684c-0.679,0.83-1.458,1.616-2.337,2.357
			c-0.201,0.173-0.688,0.443-1.458,0.819c-0.284,0.106-0.619,0.176-1.005,0.208c-0.327-0.009-0.543-0.042-0.651-0.099
			c-0.203-0.104-0.366-0.271-0.491-0.499c-0.091-0.171-0.139-0.436-0.139-0.795c0-0.521,0.119-1.099,0.35-1.735
			c0.399-1.082,0.803-1.884,1.212-2.407c0.697-0.903,1.392-1.62,2.077-2.15c0.688-0.529,1.315-0.917,1.89-1.161
			c0.756-0.326,1.417-0.489,1.975-0.489c0.184,0,0.356,0.017,0.523,0.05C190.136,21.523,190.293,21.572,190.444,21.635z
			 M184.479,29.65c0.2-0.049,0.379-0.118,0.529-0.209c0.089-0.048,0.419-0.272,0.981-0.67c1.026-1.004,1.606-1.577,1.742-1.723
			c0.293-0.32,0.624-0.756,0.994-1.308c0.101-0.14,0.314-0.521,0.643-1.149l0.318-0.842c0.113-0.496,0.17-0.782,0.17-0.855
			c0-0.229-0.093-0.445-0.282-0.647c-0.127-0.122-0.332-0.183-0.616-0.183c-0.328,0-0.608,0.054-0.844,0.158
			c-0.528,0.245-1.011,0.555-1.447,0.93c-0.588,0.515-1.153,1.171-1.698,1.974c-0.546,0.802-0.931,1.472-1.158,2.009
			c-0.308,0.739-0.465,1.296-0.465,1.662c0,0.303,0.062,0.524,0.19,0.671c0.126,0.146,0.284,0.221,0.479,0.221
			C184.079,29.687,184.236,29.673,184.479,29.65z"/>
		<path fill="#455560" d="M196.906,14.708l0.038-0.354c0.999-0.082,1.756-0.122,2.271-0.122h0.539v0.164l-0.381,1.185
			c-0.014,0.033-0.312,0.787-0.891,2.26l-1.649,4.299c-0.297,0.806-0.783,2.052-1.467,3.737l-0.404,1.062
			c-0.284,0.771-0.513,1.294-0.685,1.562c-0.269,0.439-0.402,0.765-0.402,0.975l0.048,0.195c0.268-0.023,0.597-0.206,0.989-0.55
			c0.576-0.48,1.095-1.095,1.564-1.845c0.152-0.032,0.271-0.051,0.354-0.051l0.137,0.014c-0.307,0.593-0.635,1.08-0.985,1.452
			c-0.558,0.588-0.94,0.956-1.151,1.112c-0.469,0.358-0.918,0.63-1.347,0.817c-0.274,0.123-0.544,0.184-0.811,0.184
			c-0.143,0-0.247-0.034-0.314-0.111c-0.071-0.074-0.105-0.166-0.105-0.28c0-0.382,0.651-2.063,1.952-5.044
			c0.398-0.904,0.815-1.938,1.247-3.103c0.756-2.035,1.338-3.486,1.744-4.349c0.408-0.863,0.703-1.642,0.893-2.333
			c0.017-0.07,0.024-0.129,0.024-0.176c0-0.117-0.058-0.227-0.172-0.329C197.798,14.959,197.451,14.833,196.906,14.708z"/>
	</g>
</g>
<g id="business_media" display="none">
	<g display="inline">
		<path fill="#455560" d="M249.922,47.688c-1.2,0-4.485-0.438-4.485-4.604c0-6.765,11.244-31.65,11.244-34.75
			c0-0.758-0.694-0.947-1.454-1.074c-0.885-0.126-1.768-0.126-1.768-0.821c0-0.506,0.312-0.569,0.562-0.569
			c1.646,0,6.002-0.632,6.516-0.632c0.504,0,0.631,0.063,0.631,0.442c0,4.106-10.74,28.999-10.484,28.051
			c-0.129,0.504-0.381,1.069-0.188,1.069c0.254,0,0.691-0.817,1.137-1.514c0.254-0.44,7.959-10.743,11.938-10.743
			c3.285,0,3.604,3.601,3.604,5.247C267.168,37.015,257.06,47.688,249.922,47.688z M262.305,25.201
			c-3.602,0-14.215,11.751-14.215,19.08c0,0.883,0.252,2.271,2.084,2.271c4.613,0,14.594-14.658,14.594-18.512
			C264.768,26.085,263.883,25.201,262.305,25.201z"/>
		<path fill="#455560" d="M286.563,43.712c-0.062,0.188-0.255,0.502-0.255,0.885c0,0.381,0.126,0.566,0.507,0.566
			c1.83,0,6.002-5.812,6.572-5.812c0.314,0,0.632,0.316,0.632,0.631c0,0.695-5.877,7.707-9.729,7.707
			c-1.076,0-1.771-0.816-1.771-1.895c0-0.439,0.255-1.264,0.694-2.273l1.959-4.23c1.645-3.539,1.959-4.043,1.959-4.295
			c0-0.188,0-0.312-0.063-0.312c-0.377,0-2.59,3.405-6.816,7.01c-4.549,3.918-7.58,6-9.287,6c-0.758,0-1.58-0.438-1.58-1.387
			c0-1.707,2.724-6.822,3.604-8.401l5.436-10.107c0.506-0.945,1.143-2.021,1.143-2.336c0-0.441-0.378-0.631-0.762-0.631
			c-1.895,0-5.561,5.12-6.002,5.12c-0.311,0-0.506-0.129-0.506-0.508c0-1.197,5.688-7.645,9.729-7.645
			c1.069,0,1.708,0.504,1.708,1.073c0,1.265-0.382,2.084-0.821,2.969l-8.596,16.806c-0.124,0.312-0.252,0.506-0.252,0.883
			c0,0.312,0.313,0.512,0.694,0.512c2.591,0,12.697-10.994,14.529-14.219c1.389-2.463,3.096-6.444,3.477-7.139
			c0.253-0.443,0.503-0.633,1.955-0.633c0.947,0,1.271,0.127,1.271,0.568c0,0.381-0.691,1.959-1.271,3.222L286.563,43.712z"/>
		<path fill="#455560" d="M314.103,24.316c0,1.328-0.943,1.517-1.578,1.517c-1.896,0-2.396-2.526-3.979-2.526
			c-1.008,0-2.021,0.694-2.021,2.653c0,1.768,0.762,4.105,1.451,6.568c0.694,2.468,1.455,5.06,1.455,7.394
			c0,4.929-2.78,7.771-7.706,7.771c-3.666,0-5.057-1.266-5.057-3.225c0-1.008,0.822-1.699,1.642-1.699
			c2.274,0,1.834,3.406,4.424,3.406c3.031,0,3.538-2.211,3.538-3.729c0-1.831-0.757-4.229-1.453-6.567
			c-0.692-2.396-1.448-4.732-1.448-6.441c0-4.611,2.396-7.644,7.012-7.644C312.525,21.791,314.103,22.61,314.103,24.316z"/>
		<path fill="#455560" d="M323.265,41.058c-0.38,0.82-0.882,1.58-0.882,2.146c0,0.379,0.062,0.76,0.695,0.76
			c0.504,0,1.264-0.504,2.896-1.578c1.896-1.262,2.601-2.021,2.978-2.021s0.438,0.252,0.438,0.631c0,0.762-6.562,6.635-10.299,6.635
			c-1.141,0-1.827-0.377-1.827-1.389c0-0.508,0.188-1.014,0.438-1.518l7.271-14.723c0.692-1.449,1.263-2.588,1.263-3.41
			c0-0.506-0.312-0.631-0.562-0.631c-0.947,0-4.299,3.346-5.182,3.346c-0.386,0-0.514-0.188-0.514-0.566
			c0-0.504,0.567-0.756,1.075-1.264c0.757-0.76,5.939-5.56,8.72-5.56c0.944,0,1.327,1.075,1.327,1.707
			c0,0.821-0.565,2.337-0.889,3.031L323.265,41.058z M332.428,10.67c0,1.265-1.201,2.528-2.528,2.528
			c-1.32,0-2.525-1.263-2.525-2.528c0-1.263,1.205-2.525,2.525-2.525C331.227,8.145,332.428,9.408,332.428,10.67z"/>
		<path fill="#455560" d="M352.894,41.878c-0.251,0.506-0.564,0.949-0.564,1.266c0,0.506,0.313,0.758,0.693,0.758
			c1.578,0,4.93-4.105,5.367-4.105c0.38,0,0.567,0.252,0.567,0.502c0,1.328-5.438,7.02-9.729,7.02c-1.142,0-1.58-0.377-1.58-1.068
			c0-0.637,0.438-1.709,0.893-2.725l7.191-15.352c0.514-1.071,0.637-1.896,0.637-2.524c0-1.012-0.566-1.706-1.449-1.706
			c-2.271,0-4.48,2.594-11.754,14.34c-1.322,2.145-2.461,4.104-3.66,6.823c-0.633,1.392-1.07,2.209-2.086,2.209
			c-1.074,0-1.521-0.377-1.521-1.14c0-0.563,0.438-1.575,0.638-2.086l5.998-16.047c0.312-0.883,0.631-1.705,0.631-2.146
			c0-0.506-0.377-0.822-0.945-0.822c-1.645,0-4.604,4.672-5.238,4.672c-0.312,0-0.506-0.25-0.506-0.504
			c0-0.693,0.76-1.453,1.14-2.021c0.891-1.264,4.604-5.433,7.072-5.433c1.521,0,1.958,0.947,1.958,2.653
			c0,2.466-3.791,10.487-3.791,11.185c0,0.123,0.062,0.313,0.129,0.313c0.188,0,0.438-0.381,0.763-0.89
			c1.139-1.829,6.692-13.263,12.565-13.263c2.396,0,3.854,1.263,3.854,3.475c0,1.577-0.951,3.534-1.646,4.987L352.894,41.878z"/>
	</g>
	<g display="inline">
		<path fill="#455560" d="M380.943,26.528c0,2.274-2.34,8.151-12.949,9.917c-0.383,0.947-0.502,2.148-0.502,2.971
			c0,3.539,1.324,4.486,3.723,4.486c3.604,0,6.646-5.053,7.146-5.053c0.384,0,0.507,0.188,0.507,0.564
			c0,0.564-4.605,8.271-9.604,8.271c-3.783,0-5.301-3.283-5.301-7.326c0-8.4,7.453-18.572,13.201-18.572
			C379.87,21.791,380.943,24.379,380.943,26.528z M368.372,35.056c7.896-2.334,10.426-7.201,10.426-9.791
			c0-1.138-0.381-2.34-1.959-2.34C375.258,22.926,370.647,26.275,368.372,35.056z"/>
		<path fill="#455560" d="M399.26,24.316c0,1.328-0.942,1.517-1.578,1.517c-1.895,0-2.395-2.526-3.979-2.526
			c-1.018,0-2.021,0.694-2.021,2.653c0,1.768,0.758,4.105,1.449,6.568c0.695,2.468,1.457,5.06,1.457,7.394
			c0,4.929-2.779,7.771-7.707,7.771c-3.666,0-5.055-1.266-5.055-3.225c0-1.008,0.812-1.699,1.639-1.699
			c2.275,0,1.834,3.406,4.426,3.406c3.031,0,3.537-2.211,3.537-3.729c0-1.831-0.758-4.229-1.452-6.567
			c-0.691-2.396-1.451-4.732-1.451-6.441c0-4.611,2.397-7.644,7.016-7.644C397.682,21.791,399.26,22.61,399.26,24.316z"/>
		<path fill="#455560" d="M418.721,24.316c0,1.328-0.944,1.517-1.58,1.517c-1.895,0-2.396-2.526-3.979-2.526
			c-1.008,0-2.021,0.694-2.021,2.653c0,1.768,0.771,4.105,1.453,6.568c0.697,2.468,1.453,5.06,1.453,7.394
			c0,4.929-2.779,7.771-7.707,7.771c-3.662,0-5.055-1.266-5.055-3.225c0-1.008,0.822-1.699,1.645-1.699
			c2.273,0,1.83,3.406,4.418,3.406c3.037,0,3.539-2.211,3.539-3.729c0-1.831-0.754-4.229-1.438-6.567
			c-0.695-2.396-1.455-4.732-1.455-6.441c0-4.611,2.395-7.644,7.018-7.644C417.141,21.791,418.721,22.61,418.721,24.316z"/>
	</g>
	<g display="inline">
		<path fill="#455560" d="M452.391,28.042c0.445-1.074,0.57-2.273,0.57-2.967c0-0.443-0.189-1.643-1.072-1.643
			c-1.834,0-4.928,4.295-6.889,7.517c-2.395,3.981-3.598,6.258-7.262,13.016c-1.396,2.595-1.455,3.228-2.844,3.228
			c-0.771,0-1.203-0.188-1.203-0.694c0-0.816,0.438-1.896,0.762-2.654l6.061-15.35c0.314-0.763,0.82-1.771,0.82-2.592
			c0-0.569-0.254-1.075-0.82-1.075c-0.252,0-0.942,0.631-1.576,1.137c-3.352,2.655-3.729,4.616-4.678,4.616
			c-0.312,0-0.506-0.125-0.506-0.441c0-1.012,1.521-2.146,2.781-3.729c1.578-2.022,4.043-4.612,7.012-4.612
			c0.82,0,1.451,0.568,1.451,1.579c0,3.346-4.234,10.93-4.234,12.001c0,0.188,0.064,0.312,0.258,0.312
			c0.125,0,0.636-1.32,1.269-2.396c1.895-3.225,6.188-11.5,11.055-11.5c1.453,0,2.904,1.01,2.904,2.653
			c0,2.526-3.729,10.422-3.729,10.867c0,0.123,0,0.377,0.064,0.377c0.123,0,0.252-0.313,0.756-1.14
			c2.336-3.786,6.699-12.758,12.191-12.758c2.77,0,3.793,1.516,3.793,3.222c0,1.323-0.506,2.271-0.896,3.028L461.805,41.5
			c-0.252,0.508-0.562,1.271-0.562,1.897c0,0.438,0.25,0.634,0.631,0.634c0.438,0,1.643-0.57,2.271-1.144
			c3.789-3.408,3.923-4.169,4.484-4.169c0.443,0,0.566,0.189,0.566,0.507c0,0.948-6.629,8.463-11.113,8.463
			c-0.762,0-1.393-0.881-1.393-1.767c0-1.01,0.506-2.147,1.061-3.284l7.396-14.718c0.438-0.823,0.883-1.771,0.883-3.039
			c0-0.947-0.506-1.453-1.646-1.453c-3.225,0-6.94,5.619-13.646,17.375c-2.4,4.171-2.271,6.38-4.105,6.38
			c-1.188,0-1.645-0.252-1.645-0.817c0-0.441,0.313-1.015,0.631-1.771L452.391,28.042z"/>
		<path fill="#455560" d="M490.551,26.528c0,2.274-2.34,8.151-12.951,9.917c-0.381,0.947-0.504,2.148-0.504,2.971
			c0,3.539,1.328,4.486,3.728,4.486c3.604,0,6.639-5.053,7.141-5.053c0.379,0,0.506,0.188,0.506,0.564
			c0,0.564-4.604,8.271-9.604,8.271c-3.789,0-5.308-3.283-5.308-7.326c0-8.4,7.455-18.572,13.203-18.572
			C489.479,21.791,490.551,24.379,490.551,26.528z M477.981,35.056c7.896-2.334,10.427-7.201,10.427-9.791
			c0-1.138-0.379-2.34-1.959-2.34C484.87,22.926,480.254,26.275,477.981,35.056z"/>
		<path fill="#455560" d="M518.473,12.882c0.636-1.706,1.328-3.159,1.328-4.359c0-0.948-0.887-1.137-1.703-1.264
			c-0.889-0.126-1.771-0.38-1.771-1.011s1.393-0.631,2.146-0.631h4.611c1.012,0,1.582,0.063,1.582,0.631s-0.191,1.138-0.381,1.643
			L511.59,41.438c-0.508,1.39-0.822,2.021-0.822,2.524c0,0.313,0.125,0.695,0.693,0.695c0.443,0,1.01-0.695,2.719-2.216
			c2.775-2.465,3.662-4.674,4.484-4.674c0.316,0,0.566,0.127,0.566,0.379c0,1.453-7.199,9.537-10.865,9.537
			c-1.135,0-1.521-0.502-1.521-1.449c0-3.92,3.158-9.479,3.158-9.854c0-0.127,0-0.254-0.188-0.254c-0.189,0-0.39,0.441-0.568,0.695
			c-1.389,1.895-8.904,10.861-13.268,10.861c-2.777,0-3.156-2.211-3.156-4.547c0-8.146,9.162-20.217,18.061-20.217
			c1.646,0,2.851,0.381,3.666,0.569L518.473,12.882z M498.198,43.521c5.178,0,14.846-12.002,14.846-16.045
			c0-2.527-0.635-3.285-2.395-3.285c-5.438,0-13.896,10.107-13.896,17.309C496.745,42.511,496.995,43.521,498.198,43.521z"/>
	</g>
	<g display="inline">
		<path fill="#455560" d="M528.518,41.058c-0.375,0.82-0.885,1.58-0.885,2.146c0,0.379,0.066,0.76,0.697,0.76
			c0.506,0,1.264-0.504,2.904-1.578c1.895-1.262,2.59-2.021,2.971-2.021s0.441,0.252,0.441,0.631c0,0.762-6.57,6.635-10.312,6.635
			c-1.139,0-1.834-0.377-1.834-1.389c0-0.508,0.191-1.014,0.445-1.518l7.262-14.723c0.695-1.449,1.271-2.588,1.271-3.41
			c0-0.506-0.32-0.631-0.57-0.631c-0.949,0-4.297,3.346-5.185,3.346c-0.381,0-0.502-0.188-0.502-0.566
			c0-0.504,0.562-0.756,1.072-1.264c0.758-0.76,5.938-5.56,8.719-5.56c0.941,0,1.322,1.075,1.322,1.707
			c0,0.821-0.562,2.337-0.887,3.031L528.518,41.058z M537.68,10.67c0,1.265-1.194,2.528-2.522,2.528s-2.527-1.263-2.527-2.528
			c0-1.263,1.199-2.525,2.527-2.525S537.68,9.408,537.68,10.67z"/>
		<path fill="#455560" d="M556.883,25.201c1.014,0,2.021,0.252,2.531,0.252c0.631,0,1.197-0.316,1.641-1.2
			c0.693-1.391,1.07-1.832,2.715-1.832c1.074,0,1.455,0.253,1.455,0.885c0,0.188-0.129,0.632-0.381,1.137l-8.211,18.003
			c-0.188,0.382-0.381,0.695-0.381,1.072c0,0.381,0.254,0.444,0.695,0.444c2.211,0,6.311-5.812,7.016-5.812
			c0.438,0,0.566,0.125,0.566,0.566c0,0.947-7.771,8.971-11.062,8.971c-1.063,0-1.514-0.377-1.514-1.137
			c0-2.146,3.158-8.086,3.979-9.793l-0.127-0.127l-2.776,3.033c-3.16,3.477-8.463,8.021-12.193,8.021
			c-2.336,0-2.779-2.211-2.779-3.601C538.059,36.444,549.555,25.201,556.883,25.201z M543.936,43.901
			c4.295,0,15.162-11.18,15.162-15.351c0-1.075-0.565-1.836-2.34-1.836c-5.561,0-14.91,9.979-14.91,15.291
			C541.848,43.017,542.484,43.901,543.936,43.901z"/>
	</g>
</g>
</svg>
